<?xml version="1.0" standalone="no"?><!DOCTYPE svg PUBLIC "-//W3C//DTD SVG 1.1//EN" "http://www.w3.org/Graphics/SVG/1.1/DTD/svg11.dtd"><svg t="1511948235210" class="icon" style="" viewBox="0 0 1024 1024" version="1.1" xmlns="http://www.w3.org/2000/svg" p-id="14030" xmlns:xlink="http://www.w3.org/1999/xlink" width="64" height="64"><defs><style type="text/css"></style></defs><path d="M512.064 64.96C265.536 64.96 65.024 265.536 65.024 512c0 246.528 200.576 446.976 447.04 446.976 246.464 0 446.912-200.512 446.912-446.976C959.104 265.536 758.528 64.96 512.064 64.96zM512.064 916.224c-222.912 0-404.288-181.376-404.288-404.288 0-222.848 181.376-404.224 404.288-404.224 223.04 0 404.16 181.376 404.16 404.224C916.224 734.848 734.976 916.224 512.064 916.224z" p-id="14031" fill="#B62D29"></path><path d="M792.768 299.008 422.144 669.504 231.296 478.72 203.584 506.432 422.144 724.992 449.792 697.344 820.352 326.72Z" p-id="14032" fill="#B62D29"></path></svg>