<?xml version="1.0" standalone="no"?><!DOCTYPE svg PUBLIC "-//W3C//DTD SVG 1.1//EN" "http://www.w3.org/Graphics/SVG/1.1/DTD/svg11.dtd"><svg t="1521084784970" class="icon" style="" viewBox="0 0 1024 1024" version="1.1" xmlns="http://www.w3.org/2000/svg" p-id="18840" xmlns:xlink="http://www.w3.org/1999/xlink" width="16" height="16"><defs><style type="text/css"></style></defs><path d="M910.222222 398.222222v512a56.888889 56.888889 0 0 1-56.888889 56.888889H170.666667a56.888889 56.888889 0 0 1-56.888889-56.888889V398.222222H56.888889V56.888889h910.222222v341.333333h-56.888889zM290.929778 558.876444l115.825778 115.598223a27.306667 27.306667 0 1 0 38.627555-38.570667L378.197333 568.888889H597.333333a85.333333 85.333333 0 0 1 0 170.666667H341.333333v56.888888h256a142.222222 142.222222 0 0 0 0-284.444444H376.490667l68.892444-68.778667a27.306667 27.306667 0 1 0-38.627555-38.513777L290.929778 520.305778a27.192889 27.192889 0 0 0 0 38.570666zM853.333333 170.666667H170.666667v113.777777h682.666666V170.666667z" fill="#d81e06" p-id="18841"></path></svg>