<?xml version="1.0" standalone="no"?><!DOCTYPE svg PUBLIC "-//W3C//DTD SVG 1.1//EN" "http://www.w3.org/Graphics/SVG/1.1/DTD/svg11.dtd"><svg t="1513826860704" class="icon" style="" viewBox="0 0 1024 1024" version="1.1" xmlns="http://www.w3.org/2000/svg" p-id="29083" xmlns:xlink="http://www.w3.org/1999/xlink" width="64" height="64"><defs><style type="text/css"></style></defs><path d="M956.384 517.962c3.319-4.183 5.593-9.233 5.593-14.997v-267.172c0-95.823-77.942-173.784-173.765-173.784h-552.418c-95.823 0-173.784 77.968-173.784 173.784v552.418c0 95.823 77.968 173.791 173.784 173.791h552.418c95.823 0 173.765-77.968 173.765-173.791v-70.549c0.005-0.167 0.007-0.363 0.007-0.56 0-13.523-10.962-24.486-24.486-24.486-13.522 0-24.486 10.962-24.486 24.486 0 0.197 0.003 0.394 0.007 0.589l-0.001 70.52c0 68.832-55.993 124.826-124.799 124.826h-552.425c-68.832 0-124.826-55.993-124.826-124.826v-552.418c0-68.832 55.993-124.825 124.826-124.825h552.418c68.806 0 124.799 55.993 124.799 124.825v251.726h-450.093l174.63-174.623c4.222-4.393 6.822-10.372 6.822-16.957 0-13.523-10.962-24.486-24.486-24.486-6.586 0-12.564 2.6-16.966 6.83l-216.169 216.175c-0.096 0.096-0.192 0.121-0.289 0.192-4.433 4.429-7.176 10.549-7.176 17.31 0 0.024 0 0.050 0 0.075 0 6.28 2.39 12.547 7.176 17.332 0.070 0.051 0.167 0.077 0.237 0.141l216.221 216.203c4.419 4.429 10.529 7.169 17.279 7.169 0.008 0 0.018 0 0.026 0 13.519-0.005 24.477-10.965 24.477-24.486 0-6.757-2.737-12.874-7.162-17.303l-174.623-174.61h470.184c11.423 0.007 20.578-7.957 23.281-18.515z" p-id="29084" fill="#8a8a8a"></path></svg>