<?xml version="1.0" standalone="no"?><!DOCTYPE svg PUBLIC "-//W3C//DTD SVG 1.1//EN" "http://www.w3.org/Graphics/SVG/1.1/DTD/svg11.dtd"><svg t="1522054174470" class="icon" style="" viewBox="0 0 1024 1024" version="1.1" xmlns="http://www.w3.org/2000/svg" p-id="2173" xmlns:xlink="http://www.w3.org/1999/xlink" width="200" height="200"><defs><style type="text/css"></style></defs><path d="M865.5 909.1H158.1c-52 0-94.3-42.3-94.3-94.3V330.9c0-52 42.3-94.3 94.3-94.3h707.4c52 0 94.3 42.3 94.3 94.3v483.8c0 52.1-42.3 94.4-94.3 94.4zM158.1 269.8c-33.7 0-61.1 27.4-61.1 61.1v483.9c0 33.7 27.4 61.1 61.1 61.1h707.4c33.7 0 61.2-27.4 61.2-61.1V330.9c0-33.7-27.4-61.2-61.2-61.2H158.1z m354.2 510.6c-56.8 0-111.3-22-152-62.7-52.2-52.2-73.6-127.1-57.4-200.4 17.6-79.6 80.5-142.4 160.1-160.1 73.5-16.1 148.2 5.2 200.4 57.3 52.2 52.2 73.6 127.1 57.4 200.4-17.6 79.6-80.5 142.4-160.1 160.1-16.2 3.6-32.4 5.4-48.4 5.4z m-1-395.3c-13.6 0-27.4 1.5-41.1 4.5-66.1 14.6-120.3 68.8-134.9 134.9-13.8 62.2 4.3 125.7 48.4 169.8 44.1 44.1 107.5 62.2 169.7 48.4 66.1-14.6 120.3-68.8 134.9-134.9 13.8-62.2-4.3-125.7-48.4-169.8-34.4-34.4-80.5-52.9-128.6-52.9z" p-id="2174" fill="#8a8a8a"></path><path d="M514.4 268.2l-13.5-100.6c-1.7-12.6-12.4-22-25-22h-187c-12.6 0-23.4 9.5-25 21.9l-13.5 100.7-32.8-4.4 13.5-100.6c3.7-28.9 28.6-50.8 57.8-50.8h187c29.2 0 54.1 21.8 57.9 50.8l13.4 100.5-32.8 4.5z m-65.6-0.4H326.1V162.4h122.7v105.4z m-89.5-33.2h56.4v-39.1h-56.4v39.1z" p-id="2175" fill="#8a8a8a"></path></svg>