<?xml version="1.0" standalone="no"?><!DOCTYPE svg PUBLIC "-//W3C//DTD SVG 1.1//EN" "http://www.w3.org/Graphics/SVG/1.1/DTD/svg11.dtd"><svg t="1508237756205" class="icon" style="" viewBox="0 0 1024 1024" version="1.1" xmlns="http://www.w3.org/2000/svg" p-id="6057" xmlns:xlink="http://www.w3.org/1999/xlink" width="32" height="32"><defs><style type="text/css"></style></defs><path d="M872.106667 51.2H151.893333c-47.786667 0-85.333333 37.546667-85.333333 85.333333v657.066667c0 47.786667 37.546667 85.333333 85.333333 85.333333h720.213334c47.786667 0 85.333333-37.546667 85.333333-85.333333V136.533333c0-46.08-39.253333-85.333333-85.333333-85.333333z m51.2 742.4c0 29.013333-22.186667 51.2-51.2 51.2H151.893333c-29.013333 0-51.2-22.186667-51.2-51.2V136.533333c0-29.013333 22.186667-51.2 51.2-51.2h720.213334c29.013333 0 51.2 22.186667 51.2 51.2v657.066667z" p-id="6058" fill="#d81e06"></path><path d="M793.6 269.653333L431.786667 624.64 230.4 424.96c-6.826667-6.826667-17.066667-6.826667-23.893333 0s-6.826667 17.066667 0 23.893333l211.626666 211.626667c3.413333 3.413333 8.533333 5.12 11.946667 5.12s8.533333-1.706667 11.946667-5.12c0 0 1.706667-1.706667 1.706666-3.413333l372.053334-365.226667c6.826667-6.826667 6.826667-17.066667 0-23.893333-5.12-5.12-15.36-5.12-22.186667 1.706666z" p-id="6059" fill="#d81e06"></path></svg>