<?xml version="1.0" standalone="no"?><!DOCTYPE svg PUBLIC "-//W3C//DTD SVG 1.1//EN" "http://www.w3.org/Graphics/SVG/1.1/DTD/svg11.dtd"><svg t="1513826545156" class="icon" style="" viewBox="0 0 1024 1024" version="1.1" xmlns="http://www.w3.org/2000/svg" p-id="25989" xmlns:xlink="http://www.w3.org/1999/xlink" width="64" height="64"><defs><style type="text/css"></style></defs><path d="M1006.057739 523.954087c0-270.469565-219.269565-489.73913-489.73913-489.73913s-489.73913 219.269565-489.73913 489.73913 219.269565 489.73913 489.73913 489.73913c89.199304 0 172.855652-23.841391 244.891826-65.513739l219.202783 26.824348-39.869217-206.180174C982.216348 696.765217 1006.057739 613.13113 1006.057739 523.954087zM766.619826 903.969391l-14.803478-1.80313-12.911304 7.457391c-67.33913 38.956522-144.294957 59.547826-222.608696 59.547826-245.49287 0-445.217391-199.724522-445.217391-445.217391s199.724522-445.217391 445.217391-445.217391 445.217391 199.724522 445.217391 445.217391c0 78.269217-20.591304 155.247304-59.547826 222.586435l-8.325565 14.402783 3.161043 16.339478 28.271304 146.098087L766.619826 903.969391z" p-id="25990" fill="#8a8a8a"></path><path d="M737.257739 390.722783c-26.134261-25.86713-60.972522-38.912-95.632696-38.912-32.656696 0-65.135304 11.575652-90.000696 34.927304-10.462609 8.94887-18.031304 15.938783-24.197565 15.938783-6.611478 0-12.399304-6.589217-24.153043-15.938783-26.579478-23.485217-59.058087-35.06087-91.247304-35.06087-34.281739 0-68.229565 13.133913-94.363826 39.045565-52.602435 52.045913-52.602435 141.04487 0 193.113043l189.729391 183.407304c3.784348 3.784348 12.354783 6.344348 20.969739 6.344348 7.279304 0 14.58087-1.825391 19.055304-6.299826l189.796174-183.451826C789.815652 531.767652 789.815652 442.768696 737.257739 390.722783zM706.31513 551.824696l-178.866087 172.877913-178.465391-172.521739c-16.695652-16.517565-26.245565-40.18087-26.245565-64.934957 0-24.731826 9.572174-48.37287 26.267826-64.912696 17.029565-16.873739 39.424-26.156522 63.042783-26.156522 22.372174 0 44.29913 8.481391 61.751652 23.908174l0.868174 0.75687 0.912696 0.734609c2.448696 1.936696 4.585739 3.739826 6.500174 5.36487 10.173217 8.548174 24.086261 20.23513 45.345391 20.23513 22.194087 0 37.353739-13.04487 50.754783-24.576l2.404174-2.070261 0.77913-0.667826 0.734609-0.690087c15.693913-14.736696 36.841739-22.861913 59.525565-22.861913 24.153043 0 47.593739 9.48313 64.311652 26.022957 16.673391 16.495304 26.223304 40.158609 26.223304 64.890435C732.16 512.022261 722.587826 535.685565 706.31513 551.824696z" p-id="25991" fill="#8a8a8a"></path></svg>