<?xml version="1.0" standalone="no"?><!DOCTYPE svg PUBLIC "-//W3C//DTD SVG 1.1//EN" "http://www.w3.org/Graphics/SVG/1.1/DTD/svg11.dtd"><svg t="1521084495616" class="icon" style="" viewBox="0 0 1024 1024" version="1.1" xmlns="http://www.w3.org/2000/svg" p-id="8547" xmlns:xlink="http://www.w3.org/1999/xlink" width="32" height="32"><defs><style type="text/css"></style></defs><path d="M830.620921 704.186168c35.182174-58.159791 53.750628-124.389396 53.750628-192.185656 0-205.323038-167.049535-372.371549-372.371549-372.371549S139.628451 306.677474 139.628451 512.000512 306.676962 884.372061 512 884.372061c69.023986 0 136.185392-19.091697 194.936008-55.296805l146.503817 48.68306c7.431887 2.477978 15.613312 0.523243 21.136541-4.999987 5.545757-5.545757 7.477965-13.727181 5.022514-21.159068L830.620921 704.186168zM663.75365 540.818786 526.613929 677.913454c-4.023131 4.045658-9.319042 6.067975-14.613929 6.067975s-10.590798-2.022317-14.612905-6.067975L360.247374 540.818786c-45.8426-45.8426-45.8426-120.502451 0-166.367579 22.227057-22.182003 51.774389-34.432636 83.205805-34.432636 24.933378 0 48.705587 7.70426 68.546822 22.000762 19.841235-14.296502 43.615492-22.000762 68.546822-22.000762 31.432439 0 60.978748 12.250634 83.206829 34.432636C709.596251 420.317359 709.596251 494.97721 663.75365 540.818786z" p-id="8548" fill="#d81e06"></path></svg>