<?xml version="1.0" standalone="no"?><!DOCTYPE svg PUBLIC "-//W3C//DTD SVG 1.1//EN" "http://www.w3.org/Graphics/SVG/1.1/DTD/svg11.dtd"><svg t="1510654411706" class="icon" style="" viewBox="0 0 1024 1024" version="1.1" xmlns="http://www.w3.org/2000/svg" p-id="6617" xmlns:xlink="http://www.w3.org/1999/xlink" width="200" height="200"><defs><style type="text/css"></style></defs><path d="M512.201344 64.153584a9.907198 9.907198 0 0 1 9.011198 5.887998l115.967971 248.115138 14.515196 30.975993 33.791992 5.119998 266.444733 40.95999a10.009597 10.009597 0 0 1 7.935998 6.963198 10.393597 10.393597 0 0 1-2.431999 10.495998l-195.327951 201.24155-22.399995 23.039994 5.119999 31.743992 45.311989 278.75833a10.879997 10.879997 0 0 1-4.556799 10.751997 9.241598 9.241598 0 0 1-5.119999 1.5616 11.801597 11.801597 0 0 1-5.452799-1.6128l-232.473541-125.004768-30.335993-16.307196-30.335992 16.307196-232.780742 125.286368a9.881598 9.881598 0 0 1-4.863999 1.3312 9.164798 9.164798 0 0 1-5.503999-1.791999 10.419197 10.419197 0 0 1-4.223998-10.239998l45.311988-279.03993 5.119999-31.743992-22.399994-23.039994-195.276752-201.29275a10.572797 10.572797 0 0 1-2.431999-10.495998 10.009597 10.009597 0 0 1 8.012798-6.963198l266.521533-40.95999 33.791992-5.119998 14.463996-30.975993 115.839971-248.115137a9.420798 9.420798 0 0 1 8.703998-5.887999z m0-63.999984a73.932782 73.932782 0 0 0-66.943983 42.751989l-115.839971 248.140738-266.495934 40.95999a74.239981 74.239981 0 0 0-41.727989 125.286369l195.276751 201.292749-45.311989 279.039931a74.547181 74.547181 0 0 0 30.412793 72.729581A72.217582 72.217582 0 0 0 244.118211 1023.999744a73.523182 73.523182 0 0 0 35.839991-9.292798l232.217542-124.953568 232.319942 124.953568a74.393581 74.393581 0 0 0 35.839991 9.292798 72.703982 72.703982 0 0 0 42.623989-13.644797 74.623981 74.623981 0 0 0 30.387193-72.729581l-45.311989-279.039931 195.327951-201.241549a74.239981 74.239981 0 0 0-41.727989-125.286369l-266.393534-40.95999-115.967971-248.115138A74.035181 74.035181 0 0 0 512.252544 0.1792m0 0z" p-id="6618" fill="#8a8a8a"></path></svg>