<?xml version="1.0" standalone="no"?><!DOCTYPE svg PUBLIC "-//W3C//DTD SVG 1.1//EN" "http://www.w3.org/Graphics/SVG/1.1/DTD/svg11.dtd"><svg t="1513824431705" class="icon" style="" viewBox="0 0 1024 1024" version="1.1" xmlns="http://www.w3.org/2000/svg" p-id="7343" xmlns:xlink="http://www.w3.org/1999/xlink" width="64" height="64"><defs><style type="text/css"></style></defs><path d="M929.6 797.3c0-121.9-72.9-226.1-176-268.6 49.9-34.5 82.8-93.4 82.8-160.2 0-91.3-61.3-167.6-143.6-187.5-0.8-0.2-1.5-0.1-2.2 0.2-0.9-0.1-1.8-0.3-2.8-0.3-17.6 0-31.8 14.8-31.8 33 0 16.4 11.7 30 26.9 32.4 2.7 1.2 6.2 2 6.4 2.1 47.7 16.7 82 63.4 82 118.4 0 61.3-42.7 112.3-99 123-0.1 0-0.1 0.2-0.2 0.2-18.7 1.2-33.6 17.2-33.6 36.9 0 20 15.3 36.2 34.4 37 0.1 0.1 0.2 0.3 0.4 0.3C786.4 576 866.7 675.9 866.7 797.3c0 18 14.1 32.6 31.4 32.6 17 0 30.7-13.9 31.3-31.3 0-0.2 0.1-0.3 0.1-0.5v-0.2c0-0.1 0.1-0.3 0.1-0.6zM552.7 534.2c59.6-41.4 98.9-111.7 98.9-191.6 0-127.3-99.7-230.5-222.6-230.5-123 0-222.7 103.2-222.7 230.5 0 79.9 39.3 150.2 98.9 191.6C181.9 585.1 94.8 709.7 94.8 855.5c0 8.2 0.5 16.3 1.1 24.3h0.1c0 17.7 13.9 32.1 31 32.1s31-14.4 31-32.1c0-1-0.2-1.9-0.3-2.9-0.6-7.1-1.1-14.2-1.1-21.4 0-155.8 121.9-282 272.4-282 150.4 0 272.4 126.3 272.4 282 0 7.5-0.5 14.9-1.2 22.2 0 0.4-0.1 0.7-0.1 1.1v1h0.1c0.5 17.3 14.1 31.2 30.9 31.2 16.8 0 30.4-13.9 30.9-31.2h0.1c0.6-8 1-16.1 1-24.3 0-145.8-87.2-270.4-210.4-321.3z m-123.8-26.1C340.6 508.1 269 434 269 342.5s71.6-165.6 159.9-165.6c88.3 0 159.9 74.1 159.9 165.6 0.1 91.5-71.5 165.6-159.9 165.6z m0 0" fill="#8a8a8a" p-id="7344"></path></svg>