<?xml version="1.0" standalone="no"?><!DOCTYPE svg PUBLIC "-//W3C//DTD SVG 1.1//EN" "http://www.w3.org/Graphics/SVG/1.1/DTD/svg11.dtd"><svg t="1511673095884" class="icon" style="" viewBox="0 0 1024 1024" version="1.1" xmlns="http://www.w3.org/2000/svg" p-id="6543" xmlns:xlink="http://www.w3.org/1999/xlink" width="64" height="64"><defs><style type="text/css"></style></defs><path d="M704.61857 679.924364c-56.666505 0-105.111273 38.843475-117.903515 94.595878l-1.828202 8.221738H442.765479l-1.828202-8.221738c-12.797414-55.752404-61.697293-94.595879-117.903515-94.595878-67.172848 0-121.55604 54.838303-121.556041 122.464969-1.374384 68.096 53.010101 122.934303 120.186828 122.934303 54.379313 0 102.363798-37.474263 116.989415-90.944646l2.283313-8.221737H585.340671l2.288485 8.221737c14.161455 53.469091 62.601051 90.484364 116.989414 90.484364 67.171556 0 121.55604-54.838303 121.55604-122.475314-0.005172-67.625374-54.379313-122.463677-121.55604-122.463676zM321.664549 881.913535c-43.41398 0-78.601051-35.646061-78.60105-79.06004 0-43.874263 35.187071-79.06004 78.60105-79.06004s78.601051 35.640889 78.601051 79.06004c0 43.869091-35.187071 79.06004-78.601051 79.06004z m382.495031 0c-43.41398 0-78.601051-35.646061-78.601051-79.06004 0-43.874263 35.187071-79.06004 78.601051-79.06004s78.595879 35.640889 78.595879 79.06004c0 43.41398-35.181899 79.06004-78.595879 79.06004z m0 0M220.675135 566.136242h129.322667c11.879434 0 21.474263-9.596121 21.474263-21.934545V414.418747c0-11.883313-9.594828-21.938424-21.474263-21.938424-11.883313 0-21.479434 9.594828-21.479434 21.938424v108.303516h-107.843233c-11.884606 0-21.480727 9.596121-21.480727 21.939717 0 11.878141 9.596121 21.474263 21.480727 21.474262z m0 0" fill="#8a8a8a" p-id="6544"></path><path d="M867.760388 99.555556H398.437398c-38.384485 0-69.91903 31.530667-69.91903 70.379313v100.989414L125.618974 373.288081c-0.914101 0.45899-1.833374 0.914101-2.742303 1.828202C89.517802 398.87903 70.780671 435.894303 70.780671 479.762101v327.661899c0 11.879434 9.596121 21.474263 21.474262 21.474263 11.884606 0 21.480727-9.596121 21.480728-21.474263V479.762101c0-29.242182 10.514101-51.635717 31.534545-67.630545l1.828202-0.914101 212.040404-107.389415c0.908929-0.919273 1.824323-1.373091 2.738424-2.287192l0.914101-0.455111c1.373091-0.914101 2.287192-1.373091 2.742303-2.287192 0.453818-0.455111 0.914101-1.369212 1.373091-2.283313l1.369212-2.742303c0.453818-0.914101 1.367919-1.828202 1.36792-2.283313 0.455111-0.45899 0.455111-1.828202 0.455111-3.201293v-1.369212c0-1.369212 0.45899-2.283313 0.919272-3.197414v-114.245818c0-14.620444 11.878141-26.96404 26.958869-26.964041h469.324283c23.762747 0 42.95499 19.656404 42.95499 43.87297v618.298182c0 11.883313 9.596121 21.934545 21.479434 21.934545 11.879434 0 21.479434-9.596121 21.479435-21.934545V186.838626c0.45899-47.980606-37.934545-87.283071-85.454869-87.28307z m0 0" fill="#8a8a8a" p-id="6545"></path></svg>