<?xml version="1.0" standalone="no"?><!DOCTYPE svg PUBLIC "-//W3C//DTD SVG 1.1//EN" "http://www.w3.org/Graphics/SVG/1.1/DTD/svg11.dtd"><svg t="1521181482946" class="icon" style="" viewBox="0 0 1024 1024" version="1.1" xmlns="http://www.w3.org/2000/svg" p-id="1421" xmlns:xlink="http://www.w3.org/1999/xlink" width="32" height="32"><defs><style type="text/css"></style></defs><path d="M846.478525 372.95084c-32.050463-133.783476-170.53795-176.049366-349.079739-148.667809-188.967844 28.926157-313.413507 152.915461-323.593829 193.426123-4.177443 16.70977-8.635722 37.87782 18.675626 66.277408 27.241138 28.294275 72.806856-7.652794 106.928488 27.697497s3.685979 69.155982-39.527734 85.584916c-43.248817 16.499143-101.943641 47.707096-69.647446 122.655331 59.186287 126.2711 241.940624 99.661844 421.465341 23.590264C791.223948 667.37278 878.528987 506.734316 846.478525 372.95084zM737.022508 298.880219c6.845389-3.264724 21.764827-4.142338 33.138704-1.965855 11.268564 2.211587 19.904285 15.797052 19.131985 30.225026-0.7723 14.427974-9.197395 32.857868-18.429894 40.931916-9.408022 8.074049-25.134865 5.686939-34.964141-5.300788s-16.499143-28.540007-14.638601-38.930956C722.980684 313.378402 730.142014 302.109839 737.022508 298.880219zM305.376845 464.363113c-12.3217-31.839835 16.885293-72.701543 65.154062-91.271855 48.268769-18.605417 97.344943-7.898526 109.631539 23.976414 12.3217 31.804731-16.885293 72.666438-65.154062 91.271855C366.739615 506.944943 317.663441 496.132739 305.376845 464.363113zM463.452676 738.810559c-24.257251 7.056016-47.636887 1.930751-51.954748-11.373877-4.352965-13.374837-8.460199-32.015358-9.372917-41.493589-0.807405-9.513336 9.16229-24.151937 22.150977-32.717449 13.023792-8.425094 37.772506-6.073089 54.97374 5.335893 17.131025 11.373877 30.611176 31.207953 29.803771 44.021118C508.210989 715.501131 487.674822 731.824751 463.452676 738.810559zM505.999402 324.927803C490.237455 330.825369 430.700122 328.052108 440.45919 302.601303c0.737196-1.860542 0 0 3.685979-6.915598 3.650874-6.915598 3.650874-6.915598 3.650874-6.915598C453.061726 276.55372 464.154767 265.987247 472.614966 264.969215 481.04006 264.021392 494.098956 266.127665 501.716646 269.603017c7.54748 3.475351 18.078848 14.954542 23.344532 25.48591C530.326862 305.620295 521.761349 319.030237 505.999402 324.927803zM625.530427 661.475214c-11.198354 8.635722-32.331299 10.004799-46.864587 3.054097-14.533288-7.020912-26.539047-21.238258-26.784779-31.804731-0.140418-10.461159 9.056976-22.045663 20.360644-25.696538 11.373877-3.650874 25.766747-6.318821 32.085567-5.827357 6.353925 0.561673 18.289475 10.7771 26.503942 22.677545C639.186101 635.813781 636.728782 652.839493 625.530427 661.475214zM642.41572 319.275968c-5.265684 7.863421-19.728762 12.251491-32.085567 9.759068-12.356805-2.492424-23.94131-15.16517-25.696538-28.118752-1.860542-12.988687 4.247652-29.558039 13.480151-36.789578 9.302708-7.231539 22.537127-9.337813 29.417621-4.668906 6.810285 4.668906 15.235379 16.815084 18.535207 26.995406C649.366423 296.668632 647.751613 311.447652 642.41572 319.275968zM739.550036 612.118204c0 0 0 0-5.792252-0.737196-5.792252-0.737196-5.792252-0.737196-5.792252-0.737196-20.781899-16.007679-37.210833-36.052383-36.368324-44.688104 0.737196-8.635722 8.530408-19.272403 17.236339-23.590264s23.590264-3.650874 32.998286 1.439287c9.513336 5.125266 17.236339 19.623449 17.236339 32.155776C759.138381 588.563044 750.292032 604.746246 739.550036 612.118204zM800.947911 489.182036c-7.407062 12.286596-22.642441 18.745835-33.630168 14.392869-11.022832-4.352965-17.341652-26.854988-13.901406-49.953788 3.475351-23.0988 13.796092-40.686184 22.923277-39.03627 9.232499 1.649914 21.589304 14.076928 27.451766 27.627288C809.618737 455.762496 808.354973 476.895441 800.947911 489.182036z" p-id="1422" fill="#d81e06"></path></svg>