<?xml version="1.0" standalone="no"?><!DOCTYPE svg PUBLIC "-//W3C//DTD SVG 1.1//EN" "http://www.w3.org/Graphics/SVG/1.1/DTD/svg11.dtd"><svg t="1513151580777" class="icon" style="" viewBox="0 0 1024 1024" version="1.1" xmlns="http://www.w3.org/2000/svg" p-id="1958" xmlns:xlink="http://www.w3.org/1999/xlink" width="64" height="64"><defs><style type="text/css"></style></defs><path d="M958.482821 486.84611c4.324492-247.762897-192.037734-452.153984-438.651458-456.459033C273.217638 26.083052 69.840648 223.496214 65.516156 471.260134c-2.778276 159.164023 77.872578 305.368896 209.659067 388.338562 11.310603 7.121188 26.252921 3.724835 33.374108-7.586792 7.121188-11.310603 3.724835-26.252921-7.586792-33.374108-117.586069-74.02904-189.532681-204.455555-187.052187-346.533434 3.858888-221.091444 185.245028-397.159462 405.075759-393.323087 219.830731 3.837398 394.9614 186.128141 391.102512 407.219585-2.429329 139.192156-75.840292 264.816295-192.07969 335.653643-11.412934 6.955412-15.027252 21.846564-8.071839 33.259498 6.955412 11.412934 21.846564 15.027252 33.259498 8.071839C873.467565 783.597745 955.760826 642.773416 958.482821 486.84611zM505.071194 988.841246c9.074679 6.80601 21.658276 6.395664 30.270421-0.986467l84.703147-72.602551c10.148128-8.698103 11.322883-23.976064 2.62478-34.124192-8.698103-10.148128-23.976064-11.322883-34.124192-2.62478l-84.703147 72.602551 30.270421-0.986467-96.803743-72.602551c-10.692526-8.019651-25.862018-5.852288-33.880645 4.840238-8.019651 10.692526-5.852288 25.862018 4.840238 33.880645L505.071194 988.841246zM541.0445 432.937316l170.0827 0c13.365402 0 24.201192-10.834766 24.201192-24.201192 0-13.365402-10.834766-24.201192-24.201192-24.201192L577.066925 384.534933l80.550571-96.411817c8.569166-10.256598 7.202029-25.51921-3.055592-34.088376-10.256598-8.569166-25.51921-7.202029-34.088376 3.055592L513.995447 384.535957l9.830903 0L417.347247 257.090333c-8.569166-10.256598-23.831778-11.624758-34.088376-3.055592-10.256598 8.569166-11.624758 23.831778-3.055592 34.088376l80.550571 96.411817L326.694597 384.534933c-13.365402 0-24.201192 10.834766-24.201192 24.201192 0 13.365402 10.834766 24.201192 24.201192 24.201192l165.948543 0L492.64314 547.891442 326.694597 547.891442c-13.365402 0-24.201192 10.834766-24.201192 24.201192s10.834766 24.201192 24.201192 24.201192l165.948543 0 0 131.650389c0 13.365402 10.834766 24.201192 24.201192 24.201192s24.201192-10.834766 24.201192-24.201192L541.045523 596.292801l170.0827 0c13.365402 0 24.201192-10.834766 24.201192-24.201192s-10.834766-24.201192-24.201192-24.201192L541.0445 547.890418 541.0445 432.937316z" p-id="1959" fill="#ffffff"></path></svg>