<?xml version="1.0" standalone="no"?><!DOCTYPE svg PUBLIC "-//W3C//DTD SVG 1.1//EN" "http://www.w3.org/Graphics/SVG/1.1/DTD/svg11.dtd"><svg t="1511346982961" class="icon" style="" viewBox="0 0 1024 1024" version="1.1" xmlns="http://www.w3.org/2000/svg" p-id="15076" xmlns:xlink="http://www.w3.org/1999/xlink" width="64" height="64"><defs><style type="text/css"></style></defs><path d="M573.4393 511.994883c0 33.932834-27.496238 61.439304-61.439304 61.439304-9.496282 0-18.48091-2.148943-26.503631-5.996574l-122.868375 122.868375c-3.990894 4.001127-9.230222 5.996574-14.46955 5.996574s-10.478655-1.995447-14.46955-5.996574c-7.992021-7.992021-7.992021-20.947078 0-28.939099l122.868375-122.868375c-3.847631-8.022721-5.996574-17.007349-5.996574-26.503631 0-26.749224 17.099447-49.517787 40.97318-57.94983l0-331.172585c0-11.2973 9.15859-20.466124 20.466124-20.466124s20.466124 9.168824 20.466124 20.466124l0 331.172585C556.339854 462.477097 573.4393 485.245659 573.4393 511.994883z" p-id="15077" fill="#8a8a8a"></path><path d="M1023.990786 511.994883c0 91.258447-24.313755 180.859138-70.311369 259.101129-5.730515 9.752108-18.266016 13.006222-28.007891 7.275707-9.752108-5.730515-13.006222-18.266016-7.275707-28.018124 42.303478-71.958892 64.662719-154.386206 64.662719-238.358713 0-63.59848-12.453636-125.293611-37.012985-183.356005-23.720238-56.087413-57.68377-106.464777-100.949156-149.730163-43.265386-43.265386-93.64275-77.239152-149.740396-100.95939-58.062394-24.559349-119.747291-37.002752-183.356005-37.002752s-125.293611 12.443403-183.356005 37.002752c-56.097646 23.720238-106.47501 57.694003-149.740396 100.95939s-77.228919 93.64275-100.949156 149.730163c-24.559349 58.062394-37.012985 119.757524-37.012985 183.356005 0 63.608713 12.453636 125.293611 37.012985 183.356005 23.720238 56.087413 57.68377 106.464777 100.949156 149.740396 43.265386 43.265386 93.64275 77.228919 149.740396 100.949156 58.062394 24.559349 119.747291 37.012985 183.356005 37.012985 117.946272 0 230.79648-43.797505 317.767274-123.308397 8.339946-7.623631 21.284769-7.040347 28.9084 1.299599s7.05058 21.284769-1.289366 28.9084c-94.533027 86.428442-217.196741 134.032646-345.386308 134.032646-69.114101 0-136.171356-13.538341-199.299115-40.246633-60.978816-25.787316-115.725698-62.697971-162.736385-109.708658s-83.921341-101.767801-109.708658-162.736385c-26.708292-63.127759-40.246633-130.185015-40.246633-199.299115s13.538341-136.161123 40.246633-199.299115c25.787316-60.968583 62.697971-115.715465 109.708658-162.736385 47.010687-47.010687 101.757568-83.921341 162.736385-109.708658 63.127759-26.698059 130.185015-40.2364 199.299115-40.2364s136.171356 13.538341 199.299115 40.2364c60.978816 25.787316 115.725698 62.697971 162.736385 109.708658 47.010687 47.02092 83.921341 101.767801 109.708658 162.736385C1010.442212 375.833761 1023.990786 442.880783 1023.990786 511.994883z" p-id="15078" fill="#8a8a8a"></path></svg>