<?xml version="1.0" standalone="no"?><!DOCTYPE svg PUBLIC "-//W3C//DTD SVG 1.1//EN" "http://www.w3.org/Graphics/SVG/1.1/DTD/svg11.dtd"><svg t="1513836418734" class="icon" style="" viewBox="0 0 1024 1024" version="1.1" xmlns="http://www.w3.org/2000/svg" p-id="53849" xmlns:xlink="http://www.w3.org/1999/xlink" width="64" height="64"><defs><style type="text/css"></style></defs><path d="M271.258278 217.006623c-4.520971-15.8234 4.520971-33.907285 20.344371-38.428257 15.8234-4.520971 33.907285 4.520971 38.428256 20.344371l22.604857 70.075055c4.520971 15.8234-4.520971 33.907285-20.344371 38.428257-15.8234 4.520971-33.907285-4.520971-38.428256-20.344371l-22.604857-70.075055z m210.225166-63.293599c0-15.8234 13.562914-29.386313 31.646799-29.386313s29.386313 13.562914 29.386313 29.386313l-2.260485 99.461369c0 15.8234-13.562914 29.386313-31.646799 29.386313-15.8234 0-29.386313-13.562914-29.386314-31.646799l2.260486-97.200883z m386.543046 106.242826c9.041943-13.562914 27.125828-20.344371 42.949227-11.302428 13.562914 9.041943 20.344371 27.125828 11.302429 42.949227l-31.646799 54.251656c-9.041943 13.562914-27.125828 20.344371-42.949228 11.302428-13.562914-9.041943-20.344371-27.125828-11.302428-42.949227l31.646799-54.251656z m-171.796909-72.335541c4.520971-15.8234 22.604857-24.865342 38.428256-20.344371 15.8234 4.520971 24.865342 22.604857 20.344371 38.428256l-22.604857 72.335541c-4.520971 15.8234-22.604857 24.865342-38.428256 20.344371-15.8234-4.520971-24.865342-22.604857-20.344371-38.428256l22.604857-72.335541zM103.98234 298.384106c-9.041943-13.562914-4.520971-33.907285 11.302428-42.949227 15.8234-6.781457 33.907285-2.260486 42.949228 11.302428l31.646799 54.251655c9.041943 13.562914 4.520971 33.907285-11.302429 42.949228-13.562914 9.041943-33.907285 4.520971-42.949227-11.302428l-31.646799-54.251656z" fill="#ffffff" p-id="53850"></path><path d="M513.130243 804.732892c-133.368653 0-257.695364-22.604857-352.635762-63.293598-101.721854-45.209713-158.233996-106.242826-158.233995-174.057396s56.512141-128.847682 158.233995-174.057395c94.940397-40.688742 219.267108-63.293598 352.635762-63.293598s257.695364 22.604857 352.635761 63.293598c101.721854 45.209713 158.233996 106.242826 158.233996 174.057395s-56.512141 128.847682-158.233996 174.057396c-94.940397 40.688742-219.267108 63.293598-352.635761 63.293598z m0-415.92936c-124.326711 0-241.871965 20.344371-330.030905 58.772627-79.116998 33.907285-124.326711 76.856512-124.326711 119.805739s45.209713 85.898455 124.326711 119.80574C271.258278 725.615894 388.803532 745.960265 513.130243 745.960265s241.871965-20.344371 330.030905-58.772627c79.116998-33.907285 124.326711-76.856512 124.326711-119.80574s-45.209713-85.898455-124.326711-119.805739c-88.15894-38.428256-205.704194-58.772627-330.030905-58.772627z" fill="#ffffff" p-id="53851"></path><path d="M513.130243 752.741722c-101.721854 0-185.359823-83.637969-185.359824-185.359824 0-101.721854 83.637969-185.359823 185.359824-185.359823 101.721854 0 185.359823 83.637969 185.359823 185.359823-2.260486 103.98234-83.637969 185.359823-185.359823 185.359824z m0-309.686534c-70.075055 0-126.587196 56.512141-126.587197 126.587196 0 70.075055 56.512141 126.587196 126.587197 126.587197 70.075055 0 126.587196-56.512141 126.587196-126.587197-2.260486-70.075055-58.772627-126.587196-126.587196-126.587196z" fill="#ffffff" p-id="53852"></path><path d="M434.013245 605.810155h-6.781457c-15.8234-4.520971-24.865342-18.083885-22.604856-33.907285 11.302428-49.730684 49.730684-90.419426 99.461368-103.98234 15.8234-4.520971 31.646799 4.520971 36.167771 20.344371 4.520971 15.8234-4.520971 31.646799-20.344371 36.16777-29.386313 9.041943-49.730684 31.646799-56.512142 61.033113-4.520971 11.302428-15.8234 20.344371-29.386313 20.344371z" fill="#ffffff" p-id="53853"></path></svg>