<?xml version="1.0" standalone="no"?><!DOCTYPE svg PUBLIC "-//W3C//DTD SVG 1.1//EN" "http://www.w3.org/Graphics/SVG/1.1/DTD/svg11.dtd"><svg t="1511401967858" class="icon" style="" viewBox="0 0 1024 1024" version="1.1" xmlns="http://www.w3.org/2000/svg" p-id="2428" xmlns:xlink="http://www.w3.org/1999/xlink" width="64" height="64"><defs><style type="text/css"></style></defs><path d="M803.84 0H220.16C146.432 0 86.528 59.904 86.528 133.632v756.736c0 73.728 59.904 133.632 133.632 133.632h583.68c73.728 0 133.632-59.904 133.632-133.632V133.632C937.472 59.904 877.568 0 803.84 0z m-174.08 102.656c-7.424 10.24-19.2 16.128-31.744 16.384h-171.776c-12.544 0-24.32-6.144-31.744-16.128l-37.632-51.968h310.784L629.76 102.656zM353.024 132.608c16.896 23.296 44.288 37.12 72.96 37.12h171.776c28.928 0 56.064-13.824 72.96-37.376l59.392-81.664H803.84c45.568 0 82.688 37.12 82.688 82.688v756.736c0 45.568-37.12 82.688-82.688 82.688H220.16c-45.568 0-82.688-37.12-82.688-82.688V133.632c0-45.568 37.12-82.688 82.688-82.688h73.472l59.392 81.664z" p-id="2429" fill="#8a8a8a"></path><path d="M409.344 380.672h313.344c14.08 0 25.6-11.52 25.6-25.6s-11.52-25.6-25.6-25.6H409.344c-14.08 0-25.6 11.52-25.6 25.6s11.52 25.6 25.6 25.6zM279.808 380.672h23.552c14.08 0 25.6-11.52 25.6-25.6s-11.52-25.6-25.6-25.6h-23.552c-14.08 0-25.6 11.52-25.6 25.6s11.52 25.6 25.6 25.6zM409.344 578.816h313.344c14.08 0 25.6-11.52 25.6-25.6s-11.52-25.6-25.6-25.6H409.344c-14.08 0-25.6 11.52-25.6 25.6s11.52 25.6 25.6 25.6zM279.808 578.816h23.552c14.08 0 25.6-11.52 25.6-25.6s-11.52-25.6-25.6-25.6h-23.552c-14.08 0-25.6 11.52-25.6 25.6s11.52 25.6 25.6 25.6zM409.344 774.656h313.344c14.08 0 25.6-11.52 25.6-25.6s-11.52-25.6-25.6-25.6H409.344c-14.08 0-25.6 11.52-25.6 25.6s11.52 25.6 25.6 25.6zM279.808 774.656h23.552c14.08 0 25.6-11.52 25.6-25.6s-11.52-25.6-25.6-25.6h-23.552c-14.08 0-25.6 11.52-25.6 25.6s11.52 25.6 25.6 25.6z" p-id="2430" fill="#8a8a8a"></path></svg>