<?xml version="1.0" standalone="no"?><!DOCTYPE svg PUBLIC "-//W3C//DTD SVG 1.1//EN" "http://www.w3.org/Graphics/SVG/1.1/DTD/svg11.dtd"><svg t="1511673041829" class="icon" style="" viewBox="0 0 1024 1024" version="1.1" xmlns="http://www.w3.org/2000/svg" p-id="4957" xmlns:xlink="http://www.w3.org/1999/xlink" width="64" height="64"><defs><style type="text/css"></style></defs><path d="M909.567249 578.332754c-11.261485 69.984934-44.719504 139.504264-99.414197 206.665897-4.275373 5.26184-10.467399 7.946996-16.715707 7.946996-4.76656 0-9.590426-1.589195-13.59053-4.849448-9.207709-7.534604-10.604522-21.12718-3.067872-30.333866 49.844222-61.243853 80.205717-123.912148 90.261747-186.27959 7.890714-49.295729 3.232624-98.81147-13.921058-147.148361-29.430286-83.029018-85.412298-133.776819-85.98842-134.297682-8.848529-7.919367-9.590426-21.566178-1.670036-30.444383 7.918343-8.877181 21.564132-9.645684 30.41573-1.698688 2.629897 2.357697 64.751746 58.721403 97.852632 152.025439C913.32176 465.134623 918.664442 521.803273 909.567249 578.332754zM710.190363 680.269401c-4.219091 4.711302-10.083659 7.096628-15.948227 7.096628-5.1503 0-10.357905-1.834788-14.468526-5.590322-8.823969-8.000208-9.480932-21.645996-1.479701-30.469965 40.171931-44.364417 59.051931-89.604784 56.145741-134.407176-4.381797-67.463508-56.17337-112.293529-56.692187-112.732527-9.070586-7.725962-10.16757-21.345144-2.468215-30.41573 7.730055-9.098215 21.320585-10.194176 30.363542-2.466168 2.712785 2.301416 66.25703 57.32459 71.793116 142.819776C781.134135 570.989509 758.526231 626.916263 710.190363 680.269401zM538.544051 859.723539c-5.727445 2.768043-11.605316 4.13825-17.359366 4.13825-8.193613 0-16.138562-2.794649-23.072485-8.275477-48.419779-38.416961-172.153872-149.805888-197.981097-173.126013L174.741301 682.4603c-35.623335 0-64.614623-29.04757-64.614623-64.72207L110.126678 384.957559c0-35.7052 28.991288-64.724117 64.614623-64.724117l146.258085 0c19.263739-17.070794 133.803425-118.404714 177.318498-152.054091 11.920494-9.206686 26.704199-10.576893 40.568974-3.753487 20.538779 10.111289 37.198204 38.82833 37.198204 63.984267L576.085062 795.521309C576.084039 820.896232 559.259862 849.694115 538.544051 859.723539zM533.023314 228.409107c0-8.823969-6.674003-19.866467-11.180644-23.895223-47.748491 37.484729-173.565011 149.177578-174.85233 150.327774-3.041266 2.686179-6.64535 4.328585-10.371208 5.04183-3.370771 2.190899-7.41283 3.50687-11.755742 3.50687L174.741301 363.390357c-11.865235 0-21.537526 9.645684-21.537526 21.566178l0 232.780671c0 11.890818 9.67229 21.591761 21.537526 21.591761l133.831055 0c6.261611 0 11.878538 2.686179 15.811104 6.961552 0.013303 0 0.027629 0 0.027629 0 1.452071 1.313925 143.147234 129.419582 197.48684 173.126013 4.535293-4.16588 11.125385-15.126512 11.125385-23.896246L533.023314 228.409107z" p-id="4958" fill="#8a8a8a"></path></svg>