<?xml version="1.0" standalone="no"?><!DOCTYPE svg PUBLIC "-//W3C//DTD SVG 1.1//EN" "http://www.w3.org/Graphics/SVG/1.1/DTD/svg11.dtd"><svg t="1511342833027" class="icon" style="" viewBox="0 0 1024 1024" version="1.1" xmlns="http://www.w3.org/2000/svg" p-id="3817" xmlns:xlink="http://www.w3.org/1999/xlink" width="32" height="32"><defs><style type="text/css"></style></defs><path d="M265.6 452.8m-48 0a48 48 0 1 0 96 0 48 48 0 1 0-96 0Z" fill="#ffffff" p-id="3818"></path><path d="M512 452.8m-48 0a48 48 0 1 0 96 0 48 48 0 1 0-96 0Z" fill="#ffffff" p-id="3819"></path><path d="M768 452.8m-48 0a48 48 0 1 0 96 0 48 48 0 1 0-96 0Z" fill="#ffffff" p-id="3820"></path><path d="M771.2 835.2C923.2 756.8 1024 612.8 1024 448 1024 200 795.2 0 512 0S0 200 0 448s228.8 448 512 448c22.4 0 43.2-1.6 64-3.2h1.6c40 0 104 131.2 278.4 131.2 54.4 0-110.4-176-84.8-188.8z m3.2 112c4.8 6.4 9.6 12.8 14.4 20.8-59.2-16-99.2-51.2-129.6-78.4-27.2-24-49.6-44.8-81.6-44.8h-6.4c-19.2 1.6-40 3.2-59.2 3.2C256 848 48 668.8 48 448S256 48 512 48s464 179.2 464 400c0 140.8-86.4 272-227.2 344-12.8 6.4-24 19.2-27.2 33.6-8 33.6 14.4 64 52.8 121.6z" fill="#ffffff" p-id="3821"></path></svg>