<?xml version="1.0" standalone="no"?><!DOCTYPE svg PUBLIC "-//W3C//DTD SVG 1.1//EN" "http://www.w3.org/Graphics/SVG/1.1/DTD/svg11.dtd"><svg t="1513824251111" class="icon" style="" viewBox="0 0 1024 1024" version="1.1" xmlns="http://www.w3.org/2000/svg" p-id="4987" xmlns:xlink="http://www.w3.org/1999/xlink" width="64" height="64"><defs><style type="text/css"></style></defs><path d="M313.2 791.5h-136c-31.3 0-56.9-25.5-56.9-56.9V178.1c0-31.3 25.5-56.9 56.9-56.9h500.7c31.3 0 56.9 25.5 56.9 56.9v195.3c0 15.5 12.5 27.9 27.9 27.9 15.5 0 27.9-12.5 27.9-27.9V178.1c0-62.1-50.6-112.8-112.8-112.8H177.2c-62.1 0-112.8 50.5-112.8 112.8v556.5c0 62.1 50.6 112.8 112.8 112.8h136c15.4 0 27.9-12.5 27.9-27.9 0-15.5-12.4-28-27.9-28z" p-id="4988" fill="#8a8a8a"></path><path d="M315.8 568H204.1c-15.4 0-27.9 12.5-27.9 27.9 0 15.4 12.5 27.9 27.9 27.9h111.8c15.4 0 27.9-12.5 27.9-27.9-0.1-15.3-12.5-27.9-28-27.9zM204.1 400.5c-15.4 0-27.9 12.5-27.9 27.9 0 15.5 12.5 27.9 27.9 27.9h231.1c15.5 0 27.9-12.5 27.9-27.9 0-15.4-12.5-27.9-27.9-27.9H204.1zM678.8 260.8c0-15.5-12.4-27.9-27.8-27.9H204.1c-15.4 0-27.9 12.5-27.9 27.9 0 15.5 12.5 27.9 27.9 27.9h446.8c15.4 0.1 27.9-12.4 27.9-27.9zM816.5 570.6c0-75.6-61.3-136.9-136.9-136.9S542.7 495 542.7 570.6 604 707.5 679.6 707.5s136.9-61.3 136.9-136.9z m-136.9 80.8c-44.6 0-80.8-36.2-80.8-80.8 0-44.6 36.2-80.8 80.8-80.8 44.6 0 80.8 36.2 80.8 80.8 0 44.6-36.2 80.8-80.8 80.8zM535.6 685.1c-75.6 0-136.9 61.3-136.9 136.9S460 959 535.6 959s137-61.3 137-137-61.3-136.9-137-136.9z m0 217.7c-44.6 0-80.8-36.2-80.8-80.8 0-44.6 36.2-80.8 80.8-80.8s80.8 36.2 80.8 80.8c0 44.7-36.1 80.8-80.8 80.8zM823.6 685.1c-75.6 0-136.9 61.3-136.9 136.9s61.2 137 136.9 137 136.9-61.3 136.9-137-61.3-136.9-136.9-136.9z m0 217.7c-44.6 0-80.8-36.2-80.8-80.8 0-44.6 36.2-80.8 80.8-80.8 44.6 0 80.8 36.2 80.8 80.8-0.1 44.7-36.2 80.8-80.8 80.8z" p-id="4989" fill="#8a8a8a"></path></svg>