<?xml version="1.0" standalone="no"?><!DOCTYPE svg PUBLIC "-//W3C//DTD SVG 1.1//EN" "http://www.w3.org/Graphics/SVG/1.1/DTD/svg11.dtd"><svg t="1513825567230" class="icon" style="" viewBox="0 0 1203 1024" version="1.1" xmlns="http://www.w3.org/2000/svg" p-id="8905" xmlns:xlink="http://www.w3.org/1999/xlink" width="75.1875" height="64"><defs><style type="text/css"></style></defs><path d="M977.517579 1023.946664H127.579978A127.739986 127.739986 0 0 1 0 896.366686V127.579978A127.739986 127.739986 0 0 1 127.579978 0h853.857805a127.739986 127.739986 0 0 1 127.579978 127.579978V252.546487a42.508881 42.508881 0 1 1-85.071097 0V127.579978c0-23.441221-19.06766-42.535549-42.535549-42.535549H127.579978c-23.441221 0-42.535549 19.094328-42.535549 42.535549v768.786708c0 23.467889 19.094328 42.535549 42.535549 42.535548h849.964269c23.467889 0 42.535549-19.06766 42.535549-42.535548v-131.500183c0-23.521225 19.014324-42.508881 42.50888-42.50888 23.521225 0 42.535549 18.987656 42.535549 42.50888v131.500183a127.739986 127.739986 0 0 1-127.606646 127.579978m-225.051721-513.413407a41.655503 41.655503 0 1 1 83.284337 0 41.655503 41.655503 0 0 1-83.284337 0m353.325069 167.288713H680.515444a85.124434 85.124434 0 0 1-85.017762-85.04443v-170.115526a85.124434 85.124434 0 0 1 85.017762-85.04443h425.275483a85.124434 85.124434 0 0 1 85.044429 85.04443v170.115526a85.124434 85.124434 0 0 1-85.044429 85.04443m-425.275483-255.159956v170.115526h425.355487l-0.080004-170.115526H680.515444z" p-id="8906" fill="#ffffff"></path></svg>