<?xml version="1.0" standalone="no"?><!DOCTYPE svg PUBLIC "-//W3C//DTD SVG 1.1//EN" "http://www.w3.org/Graphics/SVG/1.1/DTD/svg11.dtd"><svg t="1519730357433" class="icon" style="" viewBox="0 0 1024 1024" version="1.1" xmlns="http://www.w3.org/2000/svg" p-id="3875" xmlns:xlink="http://www.w3.org/1999/xlink" width="32" height="32"><defs><style type="text/css"></style></defs><path d="M271.84385 239.331877 257.588171 235.508805 265.598612 205.603705 235.693512 197.593264 227.684094 227.499387Z" p-id="3876" fill="#d81e06"></path><path d="M572.094168 287.73426 557.144688 283.7229 549.134247 313.630047 564.085774 317.638337Z" p-id="3877" fill="#d81e06"></path><path d="M212.731544 223.491097l7.476275 2.003634 8.010441-29.904077-7.476275-2.00568c-24.774243-6.632047-50.236148 8.072863-56.868195 32.837896l29.904077 8.010441C195.983091 226.182392 204.47244 221.283826 212.731544 223.491097L212.731544 223.491097z" p-id="3878" fill="#d81e06"></path><path d="M181.750949 279.289937 180.45135 284.134269 193.767634 234.432287 191.764 241.910609 161.860946 233.900168 163.865603 226.422869 150.631184 275.81479 151.846872 271.27131Z" p-id="3879" fill="#d81e06"></path><path d="M179.753455 286.766213 149.848355 278.755772 147.844721 286.232047 177.748798 294.242488Z" p-id="3880" fill="#d81e06"></path><path d="M511.751848 303.613926 519.762289 273.710872 532.222065 277.045827 512.287037 271.706215 504.276596 301.610292 474.284515 293.577339Z" p-id="3881" fill="#d81e06"></path><path d="M474.906685 261.699304 467.43041 259.694647 459.420993 289.598724 451.943694 287.594067 459.954135 257.68999 280.541953 209.613018 272.531512 239.518119 466.897268 291.595194Z" p-id="3882" fill="#d81e06"></path><path d="M639.373481 305.765939 646.847709 307.769572 638.839315 337.675696 713.594903 357.704868 721.603297 327.799768 758.983649 337.813842 750.971162 367.717919 723.459574 360.342951 758.450507 369.715413 766.460947 339.812359 773.936199 341.815993 765.924735 371.72007 765.291308 371.550201 893.002992 405.77263 901.019573 375.868553 661.79412 311.771723 653.783679 341.6758 646.308427 339.672166 654.318868 309.767066 589.546655 292.415886 594.51583 293.747207 586.504366 323.652308 579.032184 321.647651 587.040578 291.742551 579.56328 289.737894 571.554886 319.642994 564.077587 317.638337 631.354853 335.662853Z" p-id="3883" fill="#d81e06"></path><path d="M888.314203 572.772109 918.220327 580.782549 906.196479 625.63713 876.300588 617.629759 868.284007 647.529743 898.189108 655.543254 897.010259 659.93733 922.227594 565.838186 892.323517 557.827745Z" p-id="3884" fill="#d81e06"></path><path d="M898.337487 535.39892 928.244634 543.40936 924.611897 556.961004 930.244174 535.933085 900.338051 527.923668Z" p-id="3885" fill="#d81e06"></path><path d="M834.230424 774.612093 864.134501 782.63072 892.173091 677.972079 862.276177 669.960615Z" p-id="3886" fill="#d81e06"></path><path d="M864.28288 662.486386 894.190027 670.494781 893.572974 672.803359 896.188544 663.019529 866.29163 655.007041Z" p-id="3887" fill="#d81e06"></path><path d="M923.438165 381.8815l-8.006348 29.896914c8.258081 2.214435 13.154601 10.704806 10.94426 18.961864l-16.796548 62.664202 0.765433-2.864234 29.90817 8.010441 16.031115-59.800991C962.915271 413.976476 948.211385 388.514571 923.438165 381.8815L923.438165 381.8815z" p-id="3888" fill="#d81e06"></path><path d="M175.745165 301.718763 145.840064 293.708322 139.833257 316.137147 169.739381 324.147588Z" p-id="3889" fill="#d81e06"></path><path d="M908.354632 498.017544 906.345881 505.494842 936.254052 513.503237 938.743756 504.217756 938.260755 506.025938Z" p-id="3890" fill="#d81e06"></path><path d="M147.697365 406.376381 117.793288 398.36594 109.782847 428.272064 139.687948 436.281481Z" p-id="3891" fill="#d81e06"></path><path d="M159.71712 361.519754 129.810996 353.509313 119.797945 390.890688 149.700999 398.900106Z" p-id="3892" fill="#d81e06"></path><path d="M830.231343 789.56362c-2.214435 8.258081-10.704806 13.156648-18.960841 10.942213l-119.611192-32.045857-8.010441 29.904077 10.818393 2.902096-3.342118-0.89744 8.008394-29.906124 7.475252 2.004657-8.008394 29.904077 104.658641 28.040636c24.77322 6.639211 50.234101-8.064676 56.865125-32.829709l2.00875-7.477298-29.90817-8.008394L830.231343 789.56362 830.231343 789.56362z" p-id="3893" fill="#d81e06"></path><path d="M137.683291 443.757756 107.779214 435.747315 71.721996 570.31208 101.626074 578.320475Z" p-id="3894" fill="#d81e06"></path><path d="M655.75559 758.838851 661.754211 760.447489 653.744793 790.355659 646.268518 788.351002 654.278959 758.444878 535.969413 726.746946 549.620317 730.406289 541.608853 760.309342 526.657326 756.300029 534.667767 726.394928 498.526639 716.713428 504.764714 718.386534 496.753249 748.289588 491.181347 746.796584 567.174112 767.161401 564.030515 766.31615 572.040956 736.412073 579.517231 738.414683 571.50679 768.320806 578.984089 770.325463 586.99453 740.41934 594.469781 742.423997 586.459341 772.329097 583.683111 771.586177 661.211858 792.358269 669.222299 762.454192 690.759825 768.228709Z" p-id="3895" fill="#d81e06"></path><path d="M444.970886 702.359512l-8.009418 29.904077-29.906124-8.010441 8.009418-29.904077-74.752518-20.028149-8.010441 29.906124-7.476275-2.006703 8.009418-29.904077 4.558829 1.220804L108.567159 612.226702c-8.257058-2.212388-13.155624-10.704806-10.942213-18.960841l2.003634-7.477298-29.904077-8.008394-2.004657 7.475252c-6.640234 24.77322 8.064676 50.235125 32.837896 56.876382l371.383402 99.510388-27.511587-7.374968 8.009418-29.906124 29.9051 8.012488-8.010441 29.904077 14.951527 4.007267 8.010441-29.904077L444.970886 702.359512 444.970886 702.359512z" p-id="3896" fill="#d81e06"></path><path d="M115.510292 646.130883 108.034017 644.126226 116.043435 614.224196 123.520733 616.228853Z" p-id="3897" fill="#d81e06"></path><path d="M182.787558 664.157445 130.462842 650.13201 138.47226 620.22998 190.797999 634.251322Z" p-id="3898" fill="#d81e06"></path><path d="M309.872978 698.210006 317.883419 668.305929 325.359694 670.308539 317.350277 700.214662Z" p-id="3899" fill="#d81e06"></path><path d="M354.722442 710.227714 347.248214 708.223057 355.257631 678.31898 362.733906 680.323637Z" p-id="3900" fill="#d81e06"></path><path d="M237.189585 409.270291l47.242977 12.658298 4.15667-15.508205 11.200086 3.001357-4.15667 15.509229 47.388287 12.69616-18.853393 70.362534-10.627035-2.846838 1.809205-6.748704-36.761252-9.850345-8.388041 31.304983-11.200086-3.00238 8.388041-31.30396-36.616966-9.812483-1.808182 6.749728-10.626012-2.846838L237.189585 409.270291zM232.450654 375.834784l62.752206 16.814967c-1.37737-4.626367-3.038196-9.535167-4.980431-14.724353l11.485589-3.233648c2.588965 6.030343 4.765537 11.692297 6.53074 16.986883l-7.867178 2.355651 63.470567 17.006326-7.194866 26.852578-11.202133-3.001357 4.424776-16.514115-108.98825-29.204136-4.424776 16.514115-11.200086-3.001357L232.450654 375.834784zM233.463728 465.679022l36.617989 9.81146 4.539386-16.944927-36.616966-9.81146L233.463728 465.679022zM240.619708 438.97073l36.616966 9.81146 4.502547-16.800641-36.617989-9.812483L240.619708 438.97073zM281.281803 478.491839l36.761252 9.850345 4.539386-16.944927-36.761252-9.849322L281.281803 478.491839zM329.700559 444.832228l-36.761252-9.850345-4.502547 16.800641 36.761252 9.850345L329.700559 444.832228z" p-id="3901" fill="#d81e06"></path><path d="M353.598852 488.326834c14.602579-13.529131 26.424836-28.932959 35.467793-46.210461l-20.533662-5.502317 2.692319-10.050913 20.677948 5.541203 7.656377-28.576849 10.770298 2.885723-7.656377 28.575826 16.368806 4.386914-2.692319 10.050913-16.370853-4.386914-6.771217 25.273616 5.720282-3.545756c4.743024 6.810103 9.052167 13.505595 12.932544 20.086477l-9.284457 5.361101c-3.333932-6.331195-6.800893-12.339026-10.407024-18.025539l-19.776416 73.809029-10.769274-2.885723 20.393469-76.105329c-9.090029 14.390755-18.159592 25.453718-27.208689 33.186843C354.664114 497.745345 354.261954 493.123071 353.598852 488.326834zM392.046512 543.571043c36.434817-5.012154 69.408813-20.289092 98.92915-45.827745l7.994068 9.221012c-11.413957 9.665127-23.27203 17.928325-35.576263 24.789593 8.595772 11.949146 16.576537 23.52581 23.938202 34.732036l-11.260461 6.986111c-6.613628-11.313673-14.126742-23.484877-22.537296-36.512588-17.86795 8.858762-36.672224 14.901385-56.414871 18.127869C395.992381 552.015366 394.300856 548.175921 392.046512 543.571043zM395.318022 514.127454c21.693068-4.755304 40.809451-12.150738 57.349149-22.187325-9.637498-1.556449-18.593474-2.980891-26.863834-4.27435-3.64604-0.565888-7.129374-0.780783-10.446933-0.644683l-2.50403-11.906168c4.488221-1.054005 8.218172-2.723018 11.190877-5.004991 8.006348-5.754051 16.150842-12.602016 24.433482-20.539802l-27.282367-7.310499 2.77009-10.339486 44.084031 11.813047c-2.361791-6.890944-4.600785-13.083993-6.719028-18.576077l10.911514-3.387144c2.430352 5.474688 5.16872 12.107759 8.209986 19.898189l-8.955976 2.988054 43.939745 11.773138-2.772136 10.339486-50.831712-13.621229c-9.834996 8.752338-19.74367 16.821107-29.724998 24.201192 10.68434 2.246157 21.524223 4.485151 32.522718 6.713912 7.27673-5.334495 13.998829-11.279904 20.170388-17.836227l8.979512 8.40953c-24.065092 24.332175-54.939263 41.147142-92.623537 50.441832C399.272078 521.394974 397.324726 517.742794 395.318022 514.127454z" p-id="3902" fill="#d81e06"></path><path d="M550.259884 579.191308l35.601846 10.155291 48.125067 11.662621c-1.898233 2.877537-4.252861 6.29845-7.058766 10.266831l-47.607274-12.447497-33.945113-10.019191c-16.223496-4.552689-26.114774-13.205766-29.673833-25.958208-4.900613 2.584871-12.363585 7.460925-22.388916 14.624069l-2.692319-13.495362c10.664897-5.915733 18.361183-10.136871 23.091928-12.666484l12.94687-48.320519-17.08819-4.579295 2.847861-10.624988 28.145014 7.540743-16.448624 61.387116C527.450389 567.821353 536.164864 575.310931 550.259884 579.191308zM542.004873 444.004373c3.291976 7.243985 7.567349 18.085914 12.831236 32.525788l-12.120039 4.449335c-4.497431-14.235213-8.348132-25.322735-11.556197-33.262568L542.004873 444.004373zM550.79712 570.869782l-10.1952-2.732228 21.661346-80.84426 34.606169 9.273201c-6.192026-5.608741-12.625552-11.281951-19.293415-17.020652l7.733125-5.315052c6.53995 5.650697 12.671601 11.013845 18.391882 16.086373l29.227672-6.558369-67.345828-18.046005 2.462075-9.18929 86.301552 23.125697-2.576685 9.620102-39.506782 8.728802c1.442862 1.310855 2.845815 2.583848 4.206812 3.821025l30.803563 8.251941-17.392112 64.906266c-2.923586 10.913561-9.413394 15.024182-19.464307 12.329816-4.978385-1.333368-10.346649-2.925632-16.108886-4.77884 0.493234-3.765767 0.765433-7.644097 0.807389-11.632945 5.852288 2.286066 10.933003 4.006244 15.240099 5.160533 5.16872 1.384533 8.420787-0.410346 9.755178-5.389754l1.88493-7.036253-27.427676-7.349385-6.001691 22.401196-10.1952-2.732228 6.001691-22.401196-26.995841-7.233752L550.79712 570.869782zM559.839053 537.125237l26.995841 7.233752 3.847631-14.359033-26.995841-7.233752L559.839053 537.125237zM566.148759 513.574868l26.995841 7.232728 3.849678-14.358009-26.995841-7.233752L566.148759 513.574868zM597.030094 547.091216l27.427676 7.349385 3.847631-14.360056-27.427676-7.349385L597.030094 547.091216zM634.61613 516.530177l-27.427676-7.349385-3.849678 14.359033 27.427676 7.349385L634.61613 516.530177z" p-id="3903" fill="#d81e06"></path><path d="M699.190845 617.866143l38.436404 11.067057 44.035936 10.260691c-2.65241 3.39226-5.196349 6.764054-7.634888 10.113335l-42.225707-10.69969-36.531008-10.710946c-16.414855-4.604878-27.061332-13.30605-31.94455-26.104541-3.245927 1.387603-10.413164 5.930059-21.503756 13.628392l-2.799766-13.677511c9.239432-4.807493 16.532535-8.470929 21.875217-10.991332l13.217023-49.324382-16.656355-4.463662 2.77009-10.339486 27.713178 7.426133-16.678868 62.249763C676.016029 606.705965 685.326069 613.892645 699.190845 617.866143zM687.210999 481.066477c4.369517 8.969279 8.876158 19.718087 13.522991 32.249495-4.447289 1.270946-8.460696 2.65855-12.044314 4.160763-3.858888-12.012591-7.777127-22.861684-11.747555-32.54523L687.210999 481.066477zM707.730335 515.344165l61.604056 16.506952 7.347339-27.427676 11.631922 3.118014-7.349385 27.426653 24.699542 6.617721-2.809999 10.482749-24.697495-6.618744-15.968693 59.59326c-3.307326 12.349259-10.898211 16.932648-22.768563 13.752212-6.223748-1.667989-13.487176-3.664459-21.789259-5.991458 0.521886-3.861958 0.957815-8.362458 1.308809-13.501502 7.452739 2.818185 14.481829 5.112438 21.087271 6.882757 5.934153 1.590218 9.753131-0.977257 11.453866-7.704472l15.043624-56.145741-61.60201-16.506952L707.730335 515.344165zM706.085882 544.454156l10.492982-4.114714c6.867408 16.102746 12.051477 28.727275 15.553231 37.873586l-11.872399 4.668323C715.616956 568.811914 710.892351 556.002167 706.085882 544.454156z" p-id="3904" fill="#d81e06"></path></svg>