<?xml version="1.0" standalone="no"?><!DOCTYPE svg PUBLIC "-//W3C//DTD SVG 1.1//EN" "http://www.w3.org/Graphics/SVG/1.1/DTD/svg11.dtd"><svg t="1513836040588" class="icon" style="" viewBox="0 0 1024 1024" version="1.1" xmlns="http://www.w3.org/2000/svg" p-id="47930" xmlns:xlink="http://www.w3.org/1999/xlink" width="64" height="64"><defs><style type="text/css"></style></defs><path d="M413.281 830.046H214.018c-15.048 0-27.359-12.311-27.359-27.359V146.076c0-15.048 12.311-27.359 27.359-27.359h519.817c15.046 0 27.359 12.311 27.359 27.359v232.55c0 15.048 12.311 27.359 27.359 27.359 15.046 0 27.359-12.311 27.359-27.359v-232.55c0-45.141-36.935-82.076-82.076-82.076H214.018c-45.143 0-82.077 36.935-82.077 82.076v656.611c0 45.142 36.934 82.076 82.077 82.076h199.263c15.048 0 27.359-12.311 27.359-27.359-0.001-15.047-12.312-27.358-27.359-27.358z" fill="#ffffff" p-id="47931"></path><path d="M671.821 214.473H261.439c-15.048 0-27.359 12.311-27.359 27.359 0 15.048 12.311 27.359 27.359 27.359h410.382c15.047 0 27.359-12.311 27.359-27.359 0-15.047-12.312-27.359-27.359-27.359z m0 136.794H261.439c-15.048 0-27.359 12.311-27.359 27.359 0 15.048 12.311 27.359 27.359 27.359h410.382c15.047 0 27.359-12.311 27.359-27.359 0-15.048-12.312-27.359-27.359-27.359zM512.228 488.061H261.439c-15.048 0-27.359 12.311-27.359 27.359s12.311 27.359 27.359 27.359h250.789c15.048 0 27.359-12.311 27.359-27.359s-12.312-27.359-27.359-27.359z m333.321 421.781H579.257c-13.679 0-25.079 11.399-25.079 25.079S565.577 960 579.257 960H845.55c13.68 0 24.622-10.944 25.079-25.535-0.001-13.679-11.4-24.623-25.08-24.623z m-6.839-196.527h-52.438c-6.84-15.959 1.823-46.053 23.711-81.62l0.455-0.912v-0.456c0.456-0.455 0.913-1.368 0.913-1.368 9.575-18.239 19.151-41.038 19.151-70.677 0-66.117-51.982-118.555-118.555-119.01h-0.912c-66.573 0.455-118.099 52.893-118.099 119.01 0 29.639 9.576 51.982 19.151 70.221 0.456 1.368 0.913 2.28 1.368 2.735l0.456 0.456c21.887 35.567 30.55 65.205 23.711 81.62h-52.438c-29.639 0-53.349 24.624-53.349 55.174v88.004c0 12.311 10.031 22.343 22.343 22.343h315.994c12.311 0 21.887-10.032 21.887-21.887v-88.46c0-30.55-23.711-55.173-53.349-55.173z m4.103 114.907H581.081v-59.734c0-2.736 1.823-4.56 4.103-4.56h74.325l3.192-2.736c38.302-31.462 36.022-86.636-6.383-155.488-8.664-16.871-13.679-30.095-13.679-47.423 0-38.758 30.094-68.397 69.309-68.852 39.67 0.455 69.309 30.094 69.309 68.852 0 17.784-5.016 31.007-13.679 47.423-42.406 68.852-44.23 124.026-6.383 155.488l3.192 2.736h73.868c2.28 0 4.103 1.824 4.103 4.56v59.734h0.455z m-404.91-203.367H261.439c-15.048 0-27.359 12.311-27.359 27.359s12.311 27.359 27.359 27.359h176.464c15.048 0 27.359-12.311 27.359-27.359s-12.311-27.359-27.359-27.359z" fill="#ffffff" p-id="47932"></path></svg>