<?xml version="1.0" standalone="no"?><!DOCTYPE svg PUBLIC "-//W3C//DTD SVG 1.1//EN" "http://www.w3.org/Graphics/SVG/1.1/DTD/svg11.dtd"><svg t="1508205486597" class="icon" style="" viewBox="0 0 1024 1024" version="1.1" xmlns="http://www.w3.org/2000/svg" p-id="996" xmlns:xlink="http://www.w3.org/1999/xlink" width="32" height="32"><defs><style type="text/css"></style></defs><path d="M1005.441697 891.648667c-21.082194 75.863626-159.126731 137.34252-309.66549 99.729806-151.278105-37.707842-302.811489-117.541538-424.710832-238.608816C150.191965 631.064181 70.261937 479.595821 32.586607 328.158769-4.959879 177.554986 56.453991 39.701908 132.285105 18.493279c19.349427-5.350022 97.742964-13.968097 215.925108 196.672012 33.702851 60.678137 7.784806 57.79541-67.724801 180.878429-35.335673 57.506415 22.521148 135.610957 22.521148 135.610957s39.31056 61.863017 83.359436 106.009429c44.018772 44.211436 105.944405 83.294413 105.944405 83.294413s78.104542 57.667771 135.610957 22.683708c123.181759-75.415683 120.201497-101.620315 180.590638-67.629673C1019.439898 794.098366 1010.695387 872.394367 1005.441697 891.648667L1005.441697 891.648667z" p-id="997" fill="#ffffff"></path></svg>