<?xml version="1.0" standalone="no"?><!DOCTYPE svg PUBLIC "-//W3C//DTD SVG 1.1//EN" "http://www.w3.org/Graphics/SVG/1.1/DTD/svg11.dtd"><svg t="1513836308694" class="icon" style="" viewBox="0 0 1024 1024" version="1.1" xmlns="http://www.w3.org/2000/svg" p-id="51069" xmlns:xlink="http://www.w3.org/1999/xlink" width="64" height="64"><defs><style type="text/css"></style></defs><path d="M363.392404 610.276281 113.976868 610.276281c-27.553543 0-49.885154 22.331611-49.885154 49.885154l0 249.415536c0 27.558659 22.331611 49.89027 49.885154 49.89027l249.415536 0c27.548426 0 49.880037-22.331611 49.880037-49.89027L413.272441 660.161435C413.272441 632.607892 390.94083 610.276281 363.392404 610.276281L363.392404 610.276281zM363.392404 884.635929c0 13.781888-11.168364 24.941042-24.941042 24.941042L138.918933 909.576971c-13.776771 0-24.941042-11.159154-24.941042-24.941042L113.977891 685.102477c0-13.776771 11.164271-24.941042 24.941042-24.941042l199.532429 0c13.772678 0 24.941042 11.164271 24.941042 24.941042L363.392404 884.635929 363.392404 884.635929zM525.509688 610.276281l-24.940019 0c-6.885827 0-12.470009 5.584182-12.470009 12.475126l0 224.474494c0 6.890944 5.584182 12.470009 12.470009 12.470009l24.940019 0c6.885827 0 12.470009-5.579065 12.470009-12.470009L537.979698 622.751407C537.979698 615.860463 532.395516 610.276281 525.509688 610.276281L525.509688 610.276281zM500.56967 410.741805l24.940019 0c6.885827 0 12.470009-5.584182 12.470009-12.470009L537.979698 74.036203c0-6.885827-5.584182-12.475126-12.470009-12.475126l-24.940019 0c-6.885827 0-12.470009 5.589298-12.470009 12.475126l0 324.235592C488.09966 405.157623 493.683842 410.741805 500.56967 410.741805L500.56967 410.741805zM113.976868 410.741805l249.415536 0c27.548426 0 49.880037-22.331611 49.880037-49.874921L413.272441 111.441115c0-27.54331-22.331611-49.880037-49.880037-49.880037L113.976868 61.561078c-27.553543 0-49.885154 22.336728-49.885154 49.880037l0 249.425769C64.091714 388.410194 86.423325 410.741805 113.976868 410.741805L113.976868 410.741805zM113.976868 136.387273c0-13.777795 11.164271-24.946159 24.941042-24.946159l199.532429 0c13.772678 0 24.941042 11.168364 24.941042 24.946159l0 199.532429c0 13.772678-11.168364 24.946159-24.941042 24.946159L138.918933 360.865861c-13.776771 0-24.941042-11.17348-24.941042-24.946159L113.977891 136.387273 113.976868 136.387273zM675.157987 685.107593l-24.941042 0c-6.885827 0-12.470009 5.584182-12.470009 12.470009l0 249.414513c0 6.885827 5.584182 12.475126 12.470009 12.475126l24.941042 0c6.885827 0 12.475126-5.589298 12.475126-12.475126L687.633113 697.577602C687.633113 690.691775 682.043814 685.107593 675.157987 685.107593L675.157987 685.107593zM949.517635 485.569024 76.561723 485.569024c-6.885827 0-12.470009 5.584182-12.470009 12.470009l0 24.940019c0 6.885827 5.584182 12.470009 12.470009 12.470009l872.955912 0c6.885827 0 12.470009-5.584182 12.470009-12.470009l0-24.940019C961.987644 491.153206 956.403462 485.569024 949.517635 485.569024L949.517635 485.569024zM912.102491 61.561078 662.687978 61.561078c-27.549449 0-49.881061 22.336728-49.881061 49.880037l0 249.425769c0 27.54331 22.331611 49.874921 49.881061 49.874921l249.414513 0c27.553543 0 49.885154-22.331611 49.885154-49.874921L961.987644 111.441115C961.987644 83.897805 939.656033 61.561078 912.102491 61.561078L912.102491 61.561078zM912.102491 335.920726c0 13.772678-11.163247 24.946159-24.940019 24.946159L687.633113 360.866884c-13.776771 0-24.945135-11.17348-24.945135-24.946159L662.687978 136.387273c0-13.777795 11.168364-24.946159 24.945135-24.946159l199.529359 0c13.776771 0 24.940019 11.168364 24.940019 24.946159L912.102491 335.920726 912.102491 335.920726zM799.87036 685.107593l-24.945135 0c-6.886851 0-12.471033 5.584182-12.471033 12.470009l0 249.414513c0 6.885827 5.584182 12.475126 12.471033 12.475126l24.945135 0c6.885827 0 12.470009-5.589298 12.470009-12.475126L812.340369 697.577602C812.340369 690.691775 806.756187 685.107593 799.87036 685.107593L799.87036 685.107593zM924.5725 610.276281l-24.940019 0c-6.885827 0-12.470009 5.584182-12.470009 12.475126l0 324.240709c0 6.885827 5.584182 12.475126 12.470009 12.475126l24.940019 0c6.890944 0 12.475126-5.589298 12.475126-12.475126L937.047626 622.751407C937.047626 615.860463 931.463444 610.276281 924.5725 610.276281L924.5725 610.276281zM924.5725 610.276281" p-id="51070" fill="#ffffff"></path></svg>