<?xml version="1.0" standalone="no"?><!DOCTYPE svg PUBLIC "-//W3C//DTD SVG 1.1//EN" "http://www.w3.org/Graphics/SVG/1.1/DTD/svg11.dtd"><svg t="1521084463739" class="icon" style="" viewBox="0 0 1024 1024" version="1.1" xmlns="http://www.w3.org/2000/svg" p-id="7579" xmlns:xlink="http://www.w3.org/1999/xlink" width="32" height="32"><defs><style type="text/css"></style></defs><path d="M960 768 928 768C928 838.72 870.72 896 800 896 729.28 896 672 838.72 672 768L352 768C352 838.72 294.72 896 224 896 153.28 896 96 838.72 96 768L64 768C46.336 768 32 753.664 32 736L32 256C32 185.28 89.28 128 160 128L480 128C550.72 128 608 185.28 608 256L766.016 256C775.488 255.232 785.088 257.984 792.32 265.216L980.672 453.632C981.632 454.528 981.312 456 982.144 457.024 988.16 462.848 992 470.912 992 480L992 736C992 753.664 977.664 768 960 768ZM224 704C188.672 704 160 732.672 160 768 160 803.328 188.672 832 224 832 259.328 832 288 803.328 288 768 288 732.672 259.328 704 224 704ZM800 832C835.328 832 864 803.328 864 768 864 732.672 835.328 704 800 704 764.672 704 736 732.672 736 768 736 803.328 764.672 832 800 832ZM736 320 608 320 608 512 928 512 736 320Z" p-id="7580" fill="#d81e06"></path></svg>