<?xml version="1.0" standalone="no"?><!DOCTYPE svg PUBLIC "-//W3C//DTD SVG 1.1//EN" "http://www.w3.org/Graphics/SVG/1.1/DTD/svg11.dtd"><svg t="1513827216324" class="icon" style="" viewBox="0 0 1024 1024" version="1.1" xmlns="http://www.w3.org/2000/svg" p-id="30392" xmlns:xlink="http://www.w3.org/1999/xlink" width="64" height="64"><defs><style type="text/css"></style></defs><path d="M735.744 714.752c-66.048 0-121.856 45.056-136.704 109.568l-2.048 9.728H431.616l-2.048-9.728c-14.848-65.024-71.68-109.568-136.704-109.568-77.824 0-140.8 63.488-140.8 142.336-1.536 78.848 61.44 142.848 139.264 142.848 62.976 0 118.784-43.52 135.68-105.472l2.56-9.728h167.424l2.56 9.728c16.384 61.952 72.704 104.96 135.68 104.96 77.824 0 140.8-63.488 140.8-142.336 1.024-78.848-62.464-142.336-140.288-142.336z m-444.416 234.496c-50.176 0-91.136-41.472-91.136-91.648 0-50.688 40.96-91.648 91.136-91.648s91.136 41.472 91.136 91.648c0 50.688-40.448 91.648-91.136 91.648z m443.904 0c-50.176 0-91.136-41.472-91.136-91.648 0-50.688 40.96-91.648 91.136-91.648s91.136 41.472 91.136 91.648c0 50.176-40.96 91.648-91.136 91.648zM174.08 582.656h150.016c13.824 0 25.088-11.264 25.088-25.6V406.528c0-13.824-11.264-25.6-25.088-25.6s-25.088 11.264-25.088 25.6V532.48H174.08c-13.824 0-25.088 11.264-25.088 25.6 0.512 13.312 11.264 24.576 25.088 24.576z" p-id="30393" fill="#8a8a8a"></path><path d="M925.184 41.472H380.416c-44.544 0-81.408 36.352-81.408 81.92V240.64l-235.52 118.784c-1.024 0.512-2.048 1.024-3.072 2.048C21.504 388.608 0 431.616 0 482.816v380.416c0 13.824 11.264 25.088 25.088 25.088s25.088-11.264 25.088-25.088V482.816c0-33.792 12.288-59.904 36.352-78.336l2.048-1.024 246.272-124.416c1.024-1.024 2.048-1.536 3.072-2.56l1.024-0.512c1.536-1.024 2.56-1.536 3.072-2.56 0.512-0.512 1.024-1.536 1.536-2.56l1.536-3.072c0.512-1.024 1.536-2.048 1.536-2.56 0.512-0.512 0.512-2.048 0.512-3.584v-1.536c0-1.536 0.512-2.56 1.024-3.584V122.368c0-16.896 13.824-31.232 31.232-31.232h544.768c27.648 0 49.664 22.528 49.664 50.688v717.312c0 13.824 11.264 25.6 25.088 25.6s25.088-11.264 25.088-25.6v-716.8c0.512-55.296-43.52-100.864-98.816-100.864z" p-id="30394" fill="#8a8a8a"></path></svg>