<?xml version="1.0" standalone="no"?><!DOCTYPE svg PUBLIC "-//W3C//DTD SVG 1.1//EN" "http://www.w3.org/Graphics/SVG/1.1/DTD/svg11.dtd"><svg t="1508237184645" class="icon" style="" viewBox="0 0 1024 1024" version="1.1" xmlns="http://www.w3.org/2000/svg" p-id="4556" xmlns:xlink="http://www.w3.org/1999/xlink" width="32" height="32"><defs><style type="text/css"></style></defs><path d="M871.424 41.984c60.416 0 110.08 49.152 110.08 110.08v717.824c0 60.416-49.152 110.08-110.08 110.08H153.6c-60.416 0-110.08-49.152-110.08-110.08V152.064c0-60.416 49.152-110.08 110.08-110.08h717.824m0-20.48H153.6c-72.192 0-130.56 58.368-130.56 130.56v717.824c0 72.192 58.368 130.56 130.56 130.56h717.824c72.192 0 130.56-58.368 130.56-130.56V152.064c-0.512-72.192-58.88-130.56-130.56-130.56z" p-id="4557" fill="#d81e06"></path></svg>