<?xml version="1.0" standalone="no"?><!DOCTYPE svg PUBLIC "-//W3C//DTD SVG 1.1//EN" "http://www.w3.org/Graphics/SVG/1.1/DTD/svg11.dtd"><svg t="1513826031180" class="icon" style="" viewBox="0 0 1024 1024" version="1.1" xmlns="http://www.w3.org/2000/svg" p-id="10235" xmlns:xlink="http://www.w3.org/1999/xlink" width="64" height="64"><defs><style type="text/css"></style></defs><path d="M898.944819 155.382906l-16.790408-0.090051c6.563486-59.564607-1.24127-102.750175-23.298635-128.523165-14.323217-16.73515-34.871205-25.951045-57.857733-25.951045-5.89015 0-19.684318 0-326.160431 75.744101-143.531997 35.472909-285.698904 71.38584-299.774481 74.943877l-51.531653-0.276293c-53.267181 0-96.602152 43.335994-96.602152 96.602152v676.565032c0 53.267181 43.335994 96.602152 96.602152 96.602152H898.845559c53.267181 0 96.602152-43.335994 96.602151-96.602152V251.985058c0.001023-53.266158-43.334971-96.602152-96.502891-96.602152z m-97.684809-117.725238c12.278651 0.062422 22.23849 4.456498 29.607318 13.066597 11.007705 12.860912 21.883403 41.357943 14.246469 104.370069l-522.210549-2.796696C538.14445 98.417497 779.382746 39.279608 801.26001 37.657668z m97.585549 946.503998H123.531478c-32.95353 0-59.763129-26.809599-59.763129-59.763128V247.833505c0-32.95353 26.809599-59.763129 59.664891-59.764152l775.412319 4.152577c32.95353 0 59.763129 26.809599 59.763128 59.763128v188.912557H705.468316c-46.320978 0-89.983407 18.152429-122.945123 51.114145-32.960693 32.960693-51.113121 76.623122-51.113121 122.9441s18.152429 89.982384 51.113121 122.9441c32.961716 32.960693 76.624145 51.113121 122.945123 51.113121h253.141395v135.385457c0 32.952506-26.809599 59.763129-59.764152 59.763128z m59.764152-506.425027V752.174058H705.468316c-36.479843 0-70.891584-14.320147-96.894817-40.323381s-40.323381-60.414975-40.323381-96.894817 14.320147-70.89056 40.323381-96.893794 60.414975-40.323381 96.894817-40.323381h253.141395z" fill="#8a8a8a" p-id="10236"></path><path d="M647.333268 614.954837c0 42.116213 34.264385 76.381621 76.381621 76.381621s76.381621-34.264385 76.381622-76.381621-34.264385-76.381621-76.381622-76.381622-76.381621 34.265408-76.381621 76.381622z m76.381621-39.542598c21.803585 0 39.542598 17.739013 39.542598 39.542598s-17.739013 39.542598-39.542598 39.542598-39.542598-17.739013-39.542598-39.542598 17.739013-39.542598 39.542598-39.542598z" fill="#8a8a8a" p-id="10237"></path></svg>