<?xml version="1.0" standalone="no"?><!DOCTYPE svg PUBLIC "-//W3C//DTD SVG 1.1//EN" "http://www.w3.org/Graphics/SVG/1.1/DTD/svg11.dtd"><svg t="1526540305737" class="icon" style="" viewBox="0 0 1024 1024" version="1.1" xmlns="http://www.w3.org/2000/svg" p-id="748" xmlns:xlink="http://www.w3.org/1999/xlink" width="200" height="200"><defs><style type="text/css"></style></defs><path d="M926.47619 975.238095 97.52381 975.238095c-53.857524 0-97.52381-43.666286-97.52381-97.52381L0 146.285714c0-53.857524 43.666286-97.52381 97.52381-97.52381l828.952381 0c53.857524 0 97.52381 43.666286 97.52381 97.52381l0 731.428571C1024 931.57181 980.333714 975.238095 926.47619 975.238095zM975.238095 146.285714c0-26.940952-21.820952-48.761905-48.761905-48.761905L97.52381 97.52381C70.582857 97.52381 48.761905 119.344762 48.761905 146.285714l0 195.047619 292.571429 0L341.333333 97.52381l48.761905 0 0 512 96.768-48.761905 51.053714 0L633.904762 609.52381 633.904762 97.52381l48.761905 0 0 243.809524 292.571429 0L975.238095 146.285714zM975.238095 390.095238 682.666667 390.095238l0 292.571429-145.67619-73.142857-49.493333 0L341.333333 682.666667 341.333333 390.095238 48.761905 390.095238l0 487.619048c0 26.940952 21.820952 48.761905 48.761905 48.761905l828.952381 0c26.940952 0 48.761905-21.820952 48.761905-48.761905L975.238095 390.095238z" p-id="749" fill="#ffffff"></path></svg>