<?xml version="1.0" standalone="no"?><!DOCTYPE svg PUBLIC "-//W3C//DTD SVG 1.1//EN" "http://www.w3.org/Graphics/SVG/1.1/DTD/svg11.dtd"><svg t="1511592683191" class="icon" style="" viewBox="0 0 1024 1024" version="1.1" xmlns="http://www.w3.org/2000/svg" p-id="3096" xmlns:xlink="http://www.w3.org/1999/xlink" width="64" height="64"><defs><style type="text/css"></style></defs><path d="M1024 701.013333V196.906667A196.949333 196.949333 0 0 0 827.050667 0H196.864A196.949333 196.949333 0 0 0 0 196.864v630.272A196.906667 196.906667 0 0 0 196.864 1024h630.186667a197.12 197.12 0 0 0 193.877333-162.133333c-52.224-22.613333-278.528-120.32-396.416-176.597334-89.728 108.714667-183.68 173.909333-325.333333 173.909334-141.610667 0-236.16-87.210667-224.810667-194.005334 7.509333-70.058667 55.552-184.618667 264.32-164.992 110.037333 10.325333 160.384 30.848 250.112 60.501334 23.210667-42.581333 42.496-89.429333 57.173333-139.264H248.021333v-39.466667h196.864V311.168H204.8V267.776h240.128V165.632s2.133333-16 19.84-16H563.2v118.186667h256v43.349333h-256v70.826667h208.810667a806.016 806.016 0 0 1-84.778667 212.650666c60.672 21.973333 336.768 106.410667 336.768 106.410667zM283.52 791.637333c-149.632 0-173.312-94.464-165.376-133.973333 7.850667-39.253333 51.2-90.538667 134.4-90.538667 95.573333 0 181.248 24.448 284.032 74.496-72.192 94.037333-160.896 150.016-253.056 150.016z" fill="#009FE8" p-id="3097"></path></svg>