<?xml version="1.0" standalone="no"?><!DOCTYPE svg PUBLIC "-//W3C//DTD SVG 1.1//EN" "http://www.w3.org/Graphics/SVG/1.1/DTD/svg11.dtd"><svg t="1515048000472" class="icon" style="" viewBox="0 0 1024 1024" version="1.1" xmlns="http://www.w3.org/2000/svg" p-id="2454" xmlns:xlink="http://www.w3.org/1999/xlink" width="64" height="64"><defs><style type="text/css"></style></defs><path d="M387.402237 918.39173l0.218988-0.464581c-144.304593-68.336388-244.340961-214.618009-244.340961-384.575866 0-235.239676 191.150528-425.938925 426.943812-425.938925 82.207303 0 158.696372 23.63121 223.826741 63.811328 3.654226 3.8814 8.753361 6.375198 14.505365 6.375198 11.051707 0 20.014846-8.94165 20.014846-19.966751 0-6.67298-3.495614-12.288884-8.53642-15.918551l0.038886-0.063445c-0.349971-0.222057-0.725524-0.412392-1.076518-0.639566-1.069355-0.665149-2.030239-1.426489-3.221368-1.892093-71.346955-44.352137-155.294902-70.429049-245.550509-70.429049-257.234619 0-465.756793 208.037127-465.756793 464.661855 0 182.266184 105.566314 339.369268 258.69283 415.470503 3.664459 4.116761 8.856715 6.833639 14.814404 6.833639 11.051707 0 20.014846-8.93551 20.014846-19.966751C397.98834 928.132582 393.614729 921.781944 387.402237 918.39173z" p-id="2455" fill="#B62D29"></path><path d="M570.216913 184.858218c-192.923918 0-349.315804 156.030659-349.315804 348.493066 0 192.467523 156.391886 348.495112 349.315804 348.495112 192.921871 0 349.315804-156.027589 349.315804-348.495112C919.532717 340.888877 763.138784 184.858218 570.216913 184.858218zM612.618629 762.351861l-65.615417 0c0-79.533404 0-180.25334 0-302.224276-25.194822 18.578124-60.332087 37.125549-105.380072 55.672974l0-63.626109c66.267263-27.836999 106.685811-64.277956 121.287367-109.357664l49.708122 0L612.618629 762.351861z" p-id="2456" fill="#B62D29"></path></svg>