<?xml version="1.0" standalone="no"?><!DOCTYPE svg PUBLIC "-//W3C//DTD SVG 1.1//EN" "http://www.w3.org/Graphics/SVG/1.1/DTD/svg11.dtd"><svg t="1515048413482" class="icon" style="" viewBox="0 0 1024 1024" version="1.1" xmlns="http://www.w3.org/2000/svg" p-id="7082" xmlns:xlink="http://www.w3.org/1999/xlink" width="64" height="64"><defs><style type="text/css"></style></defs><path d="M387.402237 918.218792l0.218988-0.464581c-144.304593-68.336388-244.340961-214.618009-244.340961-384.575866 0-235.239676 191.150528-425.938925 426.943812-425.938925 82.207303 0 158.696372 23.63121 223.826741 63.811328 3.654226 3.8814 8.753361 6.375198 14.505365 6.375198 11.051707 0 20.014846-8.94165 20.014846-19.966751 0-6.67298-3.495614-12.288884-8.53642-15.918551l0.038886-0.063445c-0.349971-0.222057-0.725524-0.412392-1.076518-0.639566-1.069355-0.665149-2.030239-1.426489-3.221368-1.892093-71.346955-44.352137-155.294902-70.429049-245.550509-70.429049-257.234619 0-465.756793 208.037127-465.756793 464.661855 0 182.266184 105.566314 339.369268 258.69283 415.470503 3.664459 4.116761 8.856715 6.833639 14.814404 6.833639 11.051707 0 20.014846-8.93551 20.014846-19.966751C397.98834 927.959643 393.614729 921.607982 387.402237 918.218792z" p-id="7083" fill="#bfbfbf"></path><path d="M570.216913 184.685279c-192.923918 0-349.315804 156.030659-349.315804 348.493066 0 192.467523 156.391886 348.495112 349.315804 348.495112 192.921871 0 349.315804-156.027589 349.315804-348.495112C919.532717 340.715939 763.138784 184.685279 570.216913 184.685279zM701.266621 681.214936l0 59.529815L401.490094 740.744751l0-42.521442c32.589233-59.530838 80.059384-111.951745 142.447293-157.330258 62.35414-43.917232 92.119047-82.916455 89.295745-116.934223 0-42.521442-25.514093-63.782675-76.53921-63.782675-39.698141 1.428535-65.908082 25.51307-78.664617 72.28635l-68.034513-29.764907c26.907836-72.28635 78.664617-108.429525 155.203828-108.429525 87.866187 4.251837 134.64049 46.076408 140.320862 125.43892 7.076162 56.706513-29.067013 110.556978-108.429525 161.582095-49.631374 36.873816-85.042885 70.15992-106.304118 99.92585C578.652026 681.214936 648.811946 681.214936 701.266621 681.214936z" p-id="7084" fill="#bfbfbf"></path></svg>