<?xml version="1.0" standalone="no"?><!DOCTYPE svg PUBLIC "-//W3C//DTD SVG 1.1//EN" "http://www.w3.org/Graphics/SVG/1.1/DTD/svg11.dtd"><svg t="1515048399206" class="icon" style="" viewBox="0 0 1024 1024" version="1.1" xmlns="http://www.w3.org/2000/svg" p-id="6127" xmlns:xlink="http://www.w3.org/1999/xlink" width="64" height="64"><defs><style type="text/css"></style></defs><path d="M387.402 918.219l0.22-0.465C243.316 849.418 143.28 703.136 143.28 533.178c0-235.24 191.15-425.939 426.944-425.939 82.207 0 158.696 23.632 223.827 63.812 3.654 3.881 8.753 6.375 14.505 6.375 11.052 0 20.015-8.942 20.015-19.967 0-6.673-3.496-12.289-8.536-15.918l0.038-0.064c-0.35-0.222-0.725-0.412-1.076-0.64-1.07-0.665-2.03-1.426-3.221-1.891-71.347-44.353-155.295-70.43-245.55-70.43-257.236 0-465.758 208.038-465.758 464.662 0 182.267 105.567 339.37 258.693 415.47 3.665 4.118 8.857 6.834 14.815 6.834 11.051 0 20.014-8.935 20.014-19.966-0.002-7.556-4.375-13.908-10.588-17.297z" fill="#bfbfbf" p-id="6128"></path><path d="M570.217 184.685c-192.924 0-349.316 156.03-349.316 348.493 0 192.468 156.392 348.495 349.316 348.495 192.922 0 349.316-156.027 349.316-348.495 0-192.462-156.394-348.493-349.316-348.493zM558.819 749.25c-87.899-1.428-139.623-41.092-155.203-119.06l72.287-17.009c5.648 49.63 31.891 75.145 78.664 76.54 58.103 1.428 86.44-24.783 85.043-78.666-4.251-42.521-32.622-64.48-85.043-65.908h-53.15V483.49h36.142c53.85 0 82.186-22.656 85.043-68.035-1.429-36.84-22.69-55.976-63.783-57.404-41.125 2.857-65.908 26.243-74.412 70.16l-72.287-17.008c19.832-76.539 68.034-115.505 144.573-116.934 90.69 1.429 137.464 42.522 140.32 123.313 0 42.521-23.386 73.017-70.16 91.42 56.675 22.69 85.742 58.136 87.171 106.304-5.681 85.044-57.405 129.692-155.205 133.943z" fill="#bfbfbf" p-id="6129"></path></svg>