<?xml version="1.0" standalone="no"?><!DOCTYPE svg PUBLIC "-//W3C//DTD SVG 1.1//EN" "http://www.w3.org/Graphics/SVG/1.1/DTD/svg11.dtd"><svg t="1526551026509" class="icon" style="" viewBox="0 0 1024 1024" version="1.1" xmlns="http://www.w3.org/2000/svg" p-id="3021" xmlns:xlink="http://www.w3.org/1999/xlink" width="200" height="200"><defs><style type="text/css"></style></defs><path d="M873.10071 63.508429 147.060869 63.508429c-33.412994 0-60.500932 26.728758-60.500932 59.696614l0 776.055978c0 13.441127 4.503571 25.840528 12.099572 35.817764l48.40136-95.516424 60.504002 119.393227 60.501956-119.393227 60.505026 119.393227 60.500932-119.393227 60.505026 119.393227 60.499909-119.393227 60.507072 119.393227 60.500932-119.393227 60.505026 119.393227 60.501956-119.393227 60.505026 119.393227 60.502979-119.393227 48.40443 95.517447c7.596002-9.977235 12.098549-22.37766 12.098549-35.818787L933.603689 123.205043C933.603689 90.237187 906.519844 63.508429 873.10071 63.508429zM409.950278 645.102461c-18.760273 19.170618-42.296315 34.07405-78.189803 40.857547l0 54.598502c-8.470929 2.032286-24.571628 10.917654-33.43653 10.917654-8.877181 0-14.127765-6.379291-22.995737-8.419763l0-53.937446-4.840238 0c-13.311167 0-25.214265-0.342808-35.694967-1.019213-10.494005-0.682545-20.478404-1.777483-29.951149-3.308349-9.481955-1.526773-18.860557-3.473101-28.133757-5.851265-9.284457-2.365884-18.965957-5.256724-29.04143-8.651031 1.210571-9.832949 3.420913-19.757996 6.655584-29.765931 3.224438-10.002818 7.051603-20.435425 11.495822-31.298843 16.939811 5.774517 32.869618 9.757225 47.799656 11.962449 14.914688 2.205225 30.852682 3.304256 47.796586 3.304256 25.41074 0 45.072545-3.64297 58.989509-10.939143 13.915941-7.290033 20.874423-19.080567 20.874423-35.367509 0-8.139378-1.917676-14.832823-5.749958-20.097734-3.834328-5.256724-8.676613-9.581216-14.518668-12.975523-5.852288-3.38612-12.400425-6.274914-19.664875-8.653077-7.260357-2.367931-14.320147-4.91187-21.176298-7.631818l-32.0653-11.706623c-13.30912-4.745071-25.411763-9.742898-36.301787-15.007809-10.891048-5.257747-20.267603-11.529591-28.136827-18.828834-7.866155-7.290033-13.912871-15.85306-18.147312-25.696242-4.235464-9.834996-6.354731-21.880333-6.354731-36.128849 0-30.531364 10.287297-54.615898 30.858822-72.257697 20.571525-17.633612 49.010227-28.322046 85.308945-32.057113l0-53.939493c8.470929-2.034333 17.136286-3.053546 26.015513-3.053546 8.470929 0 21.131273-2.110057 30.416753-0.075725l0 54.600549c16.124236 1.020236 27.866674 3.913123 42.793642 6.79066 14.916734 2.891863 30.645974 6.706749 47.191812 11.45182-2.422166 19.678178-8.875135 39.015595-19.361977 58.009182-6.048763-2.037403-12.20395-4.071735-18.453281-6.105045-6.258541-2.036379-12.914124-3.731998-19.965727-5.089925-7.060813-1.352811-15.030321-2.457981-23.898293-3.308349-8.879228-0.842181-18.964934-1.274016-30.252001-1.274016-6.862291 0-13.81975 0.430812-20.8734 1.274016-7.061836 0.850367-13.411451 2.635013-19.056008 5.345752-5.65479 2.717901-10.288321 6.532787-13.921058 11.447726-3.625574 4.920056-5.441942 11.281951-5.441942 19.080567 0 6.791683 1.407046 12.55699 4.233418 17.303085 2.818185 4.754281 6.65763 8.736988 11.495822 11.957333 4.838192 3.228531 10.287297 6.02625 16.33606 8.396227 6.049786 2.379187 12.097526 4.580319 18.149359 6.613628l36.301787 12.722766c15.326057 5.432733 29.240975 10.864442 41.747823 16.281825 12.498662 5.433756 23.085788 11.957333 31.763424 19.591197 8.670473 7.631818 15.430434 16.96744 20.268626 27.989471 4.841262 11.028171 7.262404 24.854061 7.262404 41.47153C438.083012 602.444918 428.706457 625.944122 409.950278 645.102461zM879.065562 627.916033c0 4.666276-3.781116 8.447393-8.448416 8.447393L550.217928 636.363426c-4.665253 0-8.447393-3.781116-8.447393-8.447393l0-54.660924c0-4.665253 3.78214-8.446369 8.447393-8.446369l320.399217 0c4.6673 0 8.448416 3.781116 8.448416 8.446369L879.065562 627.916033zM879.065562 475.980645c0 4.681626-3.797489 8.479115-8.479115 8.479115l-320.335772 0c-4.682649 0-8.479115-3.796466-8.479115-8.479115l0-54.998615c0-4.682649 3.796466-8.479115 8.479115-8.479115l320.335772 0c4.681626 0 8.479115 3.796466 8.479115 8.479115L879.065562 475.980645zM879.065562 332.510046c0 4.660136-3.77907 8.43716-8.436136 8.43716L550.209742 340.947206c-4.659113 0-8.438183-3.777023-8.438183-8.43716l0-54.680367c0-4.66116 3.77907-8.43716 8.438183-8.43716l320.419683 0c4.657067 0 8.436136 3.776 8.436136 8.43716L879.065562 332.510046z" p-id="3022" fill="#1296db"></path></svg>