<?xml version="1.0" standalone="no"?><!DOCTYPE svg PUBLIC "-//W3C//DTD SVG 1.1//EN" "http://www.w3.org/Graphics/SVG/1.1/DTD/svg11.dtd"><svg t="1511592759399" class="icon" style="" viewBox="0 0 1024 1024" version="1.1" xmlns="http://www.w3.org/2000/svg" p-id="5259" xmlns:xlink="http://www.w3.org/1999/xlink" width="64" height="64"><defs><style type="text/css"></style></defs><path d="M896 0 128 0C57.6 0 0 57.6 0 128l0 768c0 70.4 57.6 128 128 128l768 0c70.4 0 128-57.6 128-128L1024 128C1024 57.6 966.4 0 896 0zM198.4 243.2C198.4 243.2 204.8 236.8 198.4 243.2 236.8 224 256 204.8 275.2 179.2c0 0 0-6.4 6.4-6.4l25.6 0c6.4 0 6.4 6.4 6.4 12.8C300.8 198.4 294.4 211.2 288 217.6c0 0 0 0 0 6.4L275.2 300.8c0 0 0 6.4-6.4 6.4L243.2 307.2c-6.4 0-6.4 0-6.4-6.4l0-32C236.8 256 236.8 256 230.4 256 224 256 217.6 262.4 204.8 262.4 204.8 262.4 198.4 256 198.4 256L198.4 243.2zM409.6 345.6 268.8 345.6c0 0-6.4 0-6.4 6.4L256 409.6c0 0 0 6.4-6.4 6.4L224 416c-6.4 0-6.4 0-6.4-6.4L224 320c0 0 0-6.4 6.4-6.4l224 0c6.4 0 6.4 0 6.4 6.4L454.4 409.6c0 0 0 6.4-6.4 6.4L422.4 416c-6.4 0-6.4 0-6.4-6.4l6.4-64C416 345.6 416 345.6 409.6 345.6zM185.6 454.4C185.6 454.4 185.6 448 185.6 454.4 275.2 441.6 320 416 313.6 384l0-19.2c0 0 0-6.4 6.4-6.4l32 0c6.4 0 6.4 0 6.4 6.4l0 19.2C352 416 390.4 435.2 473.6 448c6.4 0 6.4 6.4 6.4 6.4l0 12.8c0 6.4-6.4 6.4-6.4 6.4-64-6.4-102.4-19.2-128-38.4 0 0-6.4 0-6.4 0C300.8 460.8 256 467.2 192 473.6c-6.4 0-6.4 0-6.4-6.4L185.6 454.4zM262.4 620.8l-19.2 224c0 0 0 6.4-6.4 6.4L204.8 851.2c0 0 0 0 0-6.4l12.8-179.2c0 0 0-6.4-6.4-6.4-6.4 6.4-12.8 6.4-25.6 12.8 0 0-6.4 0-6.4-6.4l0-12.8c0 0 0 0 0 0 32-19.2 51.2-51.2 64-102.4 0 0 0 0 6.4 0l32 0c0 0 6.4 0 6.4 6.4C281.6 582.4 275.2 601.6 262.4 620.8 262.4 620.8 262.4 620.8 262.4 620.8zM313.6 742.4c0-25.6-6.4-51.2-12.8-70.4 0 0 0-6.4 6.4-6.4l25.6 0c0 0 0 0 6.4 0 6.4 25.6 12.8 51.2 19.2 76.8 0 0 0 6.4-6.4 6.4L313.6 742.4C320 748.8 313.6 748.8 313.6 742.4zM486.4 620.8C486.4 627.2 486.4 627.2 486.4 620.8L454.4 627.2c0 0-6.4 0-6.4 6.4l-12.8 172.8c0 32-19.2 44.8-51.2 44.8L352 851.2c0 0-6.4 0-6.4-6.4l0-19.2c0 0 0-6.4 6.4-6.4l19.2 0c12.8 0 19.2-6.4 19.2-19.2l12.8-166.4c0 0 0-6.4-6.4-6.4L288 627.2c0 0-6.4 0-6.4-6.4l0-19.2c0 0 0-6.4 6.4-6.4l115.2 0c0 0 6.4 0 6.4-6.4l0-44.8c0 0 0-6.4 6.4-6.4l32 0c0 0 6.4 0 6.4 6.4l0 38.4c0 0 0 6.4 6.4 6.4l25.6 0c0 0 6.4 0 6.4 6.4L486.4 620.8zM499.2 256c0 25.6-19.2 44.8-44.8 44.8l-64 0C358.4 300.8 345.6 288 345.6 256c0-6.4 0-6.4-6.4-6.4L326.4 249.6l0 0c-6.4 0-6.4 0-12.8 0 0 0-6.4 0-6.4-6.4l0-6.4c0 0 0-6.4 6.4-6.4 6.4 0 19.2 0 25.6 0 0 0 6.4 0 6.4-6.4l6.4-44.8c0 0 0-6.4 6.4-6.4L384 172.8c6.4 0 6.4 0 6.4 6.4l0 32c0 6.4 6.4 6.4 6.4 6.4 25.6-6.4 44.8-19.2 57.6-32 0 0 0 0 6.4 0l25.6 0c6.4 0 6.4 6.4 6.4 12.8C467.2 217.6 435.2 236.8 384 243.2l0 0c0 12.8 6.4 25.6 19.2 19.2l38.4 0c12.8 0 19.2-6.4 19.2-19.2l0-6.4 25.6 0c6.4 0 6.4 0 6.4 6.4L499.2 256zM748.8 198.4l19.2 0c6.4 0 6.4 0 6.4 6.4l-19.2 198.4c0 0 0 6.4-6.4 6.4l-19.2 0c-6.4 0-6.4 0-6.4-6.4l19.2-198.4C742.4 204.8 742.4 198.4 748.8 198.4zM556.8 281.6C556.8 275.2 556.8 275.2 556.8 281.6c19.2-19.2 32-32 44.8-51.2 0-6.4 0-12.8-6.4-12.8L563.2 217.6c-6.4 0-6.4-6.4-6.4-12.8l0-12.8c0 0 0-6.4 6.4-6.4l160 0c6.4 0 6.4 0 6.4 6.4l0 12.8c0 0 0 6.4-6.4 6.4l-70.4 0c0 0-6.4 0-6.4 0C633.6 236.8 620.8 249.6 608 262.4c-6.4 6.4 0 12.8 6.4 12.8 19.2 0 44.8 0 64 0 0 0 0-6.4-6.4-12.8 0-6.4-6.4-12.8-6.4-19.2 0-6.4 0-6.4 6.4-6.4l19.2 0c0 0 6.4 0 6.4 6.4C704 256 710.4 281.6 716.8 307.2c0 6.4 0 6.4-6.4 6.4l-19.2 0c0 0-6.4 0-6.4-6.4l0 0c0 0-6.4-6.4-6.4-6.4-32 0-70.4 6.4-115.2 6.4-6.4 0-6.4 0-6.4-6.4L556.8 281.6zM531.2 435.2c0 0 0-6.4 6.4-6.4 19.2 0 38.4 0 57.6 0 0 0 6.4 0 6.4-6.4l0-38.4c0-6.4 0-6.4-6.4-6.4L556.8 377.6c0 0-6.4-6.4-6.4-6.4l0-12.8c0 0 0-6.4 6.4-6.4l44.8 0c0 0 6.4 0 6.4-6.4l0-19.2c0 0 0-6.4 6.4-6.4l25.6 0c6.4 0 6.4 0 6.4 6.4l0 12.8c0 6.4 0 6.4 6.4 6.4L704 345.6c6.4 0 6.4 0 6.4 6.4l0 12.8c0 0 0 6.4-6.4 6.4l-44.8 0c0 0-6.4 0-6.4 6.4l0 38.4c0 6.4 0 6.4 6.4 6.4 6.4 0 19.2 0 38.4-6.4 6.4 0 12.8 0 12.8 0 6.4 0 6.4 0 6.4 6.4l0 12.8c0 0 0 6.4-6.4 6.4-51.2 12.8-108.8 12.8-166.4 12.8-6.4 0-6.4 0-6.4-6.4L531.2 435.2zM640 620.8l38.4 0c0 0 6.4 0 6.4 6.4l0 19.2c0 0 0 6.4-6.4 6.4l-128 0c0 0-6.4 0-6.4-6.4l0-19.2c0 0 0-6.4 6.4-6.4l44.8 0c0 0 6.4 0 6.4-6.4l0-19.2c0 0 0-6.4-6.4-6.4L544 588.8c0 0-6.4 0-6.4 0l0-19.2c0 0 0-6.4 6.4-6.4l51.2 0c0 0 6.4 0 6.4-6.4l0-12.8c0 0 0-6.4 6.4-6.4L640 537.6c0 0 6.4 0 6.4 6.4l0 12.8c0 0 0 6.4 6.4 6.4l51.2 0c0 0 6.4 0 6.4 6.4l0 19.2c0 0 0 6.4-6.4 6.4l-51.2 0c0 0-6.4 0-6.4 6.4L640 620.8C640 620.8 640 620.8 640 620.8zM678.4 678.4l0 19.2c0 0 0 6.4-6.4 6.4l-128 0c0 0-6.4 0-6.4-6.4l0-19.2c0 0 0-6.4 6.4-6.4L678.4 678.4C678.4 672 678.4 672 678.4 678.4zM524.8 825.6l0-12.8c0 0 0 0 0 0 12.8-6.4 19.2-25.6 25.6-44.8 0 0 0 0 6.4 0l25.6 0c0 0 6.4 0 6.4 6.4C576 800 556.8 819.2 524.8 825.6 531.2 832 524.8 832 524.8 825.6zM627.2 755.2l-6.4 57.6c0 25.6-12.8 38.4-38.4 38.4L563.2 851.2c0 0-6.4 0-6.4-6.4l0-19.2 6.4 0c12.8 0 12.8 0 12.8-12.8l6.4-57.6c0 0 0-6.4-6.4-6.4L537.6 748.8c0 0-6.4-6.4-6.4-6.4l0-19.2c0 0 0-6.4 6.4-6.4l153.6 0c0 0 6.4 0 6.4 6.4l0 19.2c0 0 0 6.4-6.4 6.4L627.2 755.2C633.6 748.8 627.2 748.8 627.2 755.2zM825.6 844.8c0 0-6.4 6.4-6.4 0-25.6-25.6-51.2-51.2-57.6-76.8 0 0-6.4-6.4-6.4 0-12.8 32-38.4 57.6-76.8 76.8 0 0-6.4 0-6.4 0l0-19.2c0 0 0 0 0-6.4C652.8 812.8 640 793.6 640 768c0 0 0-6.4 6.4-6.4l19.2 0c0 0 6.4 0 6.4 6.4 0 19.2 6.4 25.6 12.8 32l0 6.4c38.4-38.4 57.6-89.6 57.6-153.6l0-12.8c0 0 0-6.4 6.4-6.4l32 0c0 0 6.4 0 6.4 6.4l0 12.8c-6.4 64 6.4 121.6 44.8 160 0 0 0 0 0 0L825.6 844.8zM838.4 646.4C838.4 646.4 838.4 652.8 838.4 646.4l-32 6.4c0 0-6.4 0-6.4-6.4l0-32c0 0 0-6.4-6.4-6.4l-51.2 0c0 0 0 0 0 0-12.8 19.2-25.6 32-51.2 44.8 0 0-6.4 0-6.4-6.4l0-19.2c0 0 0 0 0 0 19.2-12.8 32-44.8 38.4-76.8 0 0 0 0 6.4 0L768 550.4c0 0 6.4 0 6.4 6.4 0 6.4 0 6.4 0 12.8 0 6.4 0 6.4 0 12.8l76.8 0c0 0 6.4 0 6.4 6.4L838.4 646.4zM825.6 435.2c0 25.6-12.8 38.4-38.4 38.4l-32 0c-6.4 0-6.4 0-6.4-6.4l0-12.8c0 0 0-6.4 6.4-6.4l19.2 0c12.8 0 12.8 0 19.2-12.8l19.2-249.6c0 0 0-6.4 6.4-6.4l25.6 0c6.4 0 6.4 0 6.4 6.4L825.6 435.2z" fill="#f4ea2a" p-id="5260"></path></svg>