<?xml version="1.0" standalone="no"?><!DOCTYPE svg PUBLIC "-//W3C//DTD SVG 1.1//EN" "http://www.w3.org/Graphics/SVG/1.1/DTD/svg11.dtd"><svg t="1511339410975" class="icon" style="" viewBox="0 0 1451 1024" version="1.1" xmlns="http://www.w3.org/2000/svg" p-id="2010" xmlns:xlink="http://www.w3.org/1999/xlink" width="45.34375" height="32"><defs><style type="text/css"></style></defs><path d="M798.98333362 251.7999998C798.98333362 206.32500019 761.98333343 169.325 716.50833294 169.325 671.03333333 169.325 634.03333314 206.32500019 634.03333314 251.7999998 634.03333314 297.2999999 671.03333333 334.32499971 716.50833294 334.32499971 761.98333343 334.32499971 798.98333362 297.2999999 798.98333362 251.7999998L798.98333362 251.7999998ZM716.50833294 296.82500029C691.70833372 296.82500029 671.53333343 276.62500039 671.53333343 251.7999998 671.53333343 226.99999971 691.70833372 206.82500029 716.50833294 206.82500029 741.28333343 206.82500029 761.48333333 226.99999971 761.48333333 251.7999998 761.48333333 276.62500039 741.28333343 296.82500029 716.50833294 296.82500029L716.50833294 296.82500029ZM938.35833294 500.85000019C928.08333353 499.32500029 918.65833313 506.6500001 917.28333353 516.92500039 915.88333343 527.19999981 923.10833304 536.62500019 933.35833372 537.99999981 1156.43333304 568.0750001 1312.20833362 643.77500029 1312.20833362 722.0250002 1312.20833362 817.70000029 1072.85833372 920.15 716.50833294 920.15 360.18333352 920.15 120.83333362 817.70000029 120.83333362 722.0250002 120.83333362 643.64999961 276.95833313 567.92499981 500.58333352 537.85000039 510.83333333 536.50000039 518.00833372 527.05000039 516.63333323 516.79999971 515.25833362 506.52500029 505.80833362 499.19999961 495.53333333 500.6999999 245.15833343 534.34999971 83.33333333 621.22500019 83.33333333 722.0250002 83.33333333 854.15000029 361.45833294 957.65000029 716.50833294 957.65000029 1071.58333343 957.65000029 1349.70833304 854.15000029 1349.70833304 722.0250002 1349.70833304 621.35 1188.23333362 534.5500001 938.35833294 500.85000019L938.35833294 500.85000019ZM581.18333362 676.8249998C591.45833304 675.64999971 598.85833343 666.35 597.68333333 656.07499971 596.53333372 645.80000029 587.20833353 638.60000029 576.93333323 639.575 490.43333304 649.4249999 387.35833343 671.72500039 387.35833343 722.0250002 387.35833343 793.04999961 594.25833323 811.99999971 716.50833294 811.99999971 838.78333313 811.99999971 1045.65833333 793.04999961 1045.65833333 722.0250002 1045.65833333 671.85000019 943.18333313 649.57500019 857.20833352 639.72500029 847.05833304 638.69999961 837.63333352 645.9250001 836.45833343 656.225 835.25833372 666.50000029 842.63333362 675.8 852.93333352 676.9750001 974.40833304 690.89999961 1006.30833294 716.40000019 1008.20833314 721.5999998 1002.55833353 740.0499998 897.33333323 774.50000029 716.50833294 774.50000029 535.70833313 774.50000029 430.50833333 740.0499998 424.80833362 722.44999971 426.70833294 716.37499971 458.88333294 690.77499981 581.18333362 676.8249998L581.18333362 676.8249998ZM716.50833294 722.2000001C721.20833333 722.2000001 725.90833372 720.4500002 729.55833294 716.95000039 738.10833294 708.65 940.10833372 510.89999961 940.10833372 301.7999999 940.10833372 169.57499961 839.78333333 62 716.50833294 62 593.23333343 62 492.95833313 169.57499961 492.95833313 301.7999999 492.95833313 507.5 694.75833352 708.3749999 703.35833362 716.82499971 706.98333323 720.4000001 711.75833333 722.2000001 716.50833294 722.2000001L716.50833294 722.2000001ZM716.50833294 99.50000029C819.10833294 99.50000029 902.60833343 190.25 902.60833343 301.7999999 902.60833343 465.44999961 760.98333323 629.1749999 716.60833313 676.4249999 672.28333313 628.62499971 530.45833343 463.02499971 530.45833343 301.7999999 530.45833343 190.25 613.93333343 99.50000029 716.50833294 99.50000029L716.50833294 99.50000029Z" fill="#ef3f28" p-id="2011"></path></svg>