<?xml version="1.0" standalone="no"?><!DOCTYPE svg PUBLIC "-//W3C//DTD SVG 1.1//EN" "http://www.w3.org/Graphics/SVG/1.1/DTD/svg11.dtd"><svg t="1511833876723" class="icon" style="" viewBox="0 0 1024 1024" version="1.1" xmlns="http://www.w3.org/2000/svg" p-id="13810" xmlns:xlink="http://www.w3.org/1999/xlink" width="64" height="64"><defs><style type="text/css"></style></defs><path d="M512 0c-283.306667 0-512 228.693333-512 512s228.693333 512 512 512 512-228.693333 512-512-228.693333-512-512-512z m221.866667 423.253333l-259.413334 262.826667c-10.24 10.24-27.306667 10.24-37.546666 0l-150.186667-150.186667c-10.24-10.24-10.24-27.306667 0-37.546666l17.066667-17.066667c10.24-10.24 27.306667-10.24 37.546666 0l112.64 112.64 221.866667-225.28c10.24-10.24 27.306667-10.24 37.546667 0l17.066666 17.066667c13.653333 10.24 13.653333 27.306667 3.413334 37.546666z" fill="#B62D29" p-id="13811"></path></svg>