<?xml version="1.0" standalone="no"?><!DOCTYPE svg PUBLIC "-//W3C//DTD SVG 1.1//EN" "http://www.w3.org/Graphics/SVG/1.1/DTD/svg11.dtd"><svg t="1511833794906" class="icon" style="" viewBox="0 0 1040 1024" version="1.1" xmlns="http://www.w3.org/2000/svg" p-id="13226" xmlns:xlink="http://www.w3.org/1999/xlink" width="65" height="64"><defs><style type="text/css"></style></defs><path d="M79.9 513c0 114 43.6 228.1 130.8 315.3C297.7 915.4 411.9 959 525.9 959c114.1-0.1 228.2-43.7 315.3-130.8 87-87 130.6-201.2 130.5-315.2 0.1-114.1-43.5-228.2-130.5-315.2C754.1 110.7 639.9 67.1 525.8 67.1c-114 0-228.1 43.6-315.2 130.6C123.5 284.8 79.9 398.9 79.9 513L79.9 513zM175.1 863.9C78.3 767.1 29.9 640 29.9 513.1l-0.1-0.2c0-127 48.4-253.9 145.2-350.8C271.9 65.3 398.9 16.8 525.9 16.9c127 0 253.9 48.4 350.9 145.3C973.6 259.1 1022 386 1022 513c0.1 127-48.4 253.9-145.2 350.8C779.9 960.6 653 1009 525.9 1009l-0.2-0.1C398.8 1008.9 271.8 960.6 175.1 863.9L175.1 863.9z" p-id="13227" fill="#8a8a8a"></path></svg>