<?xml version="1.0" standalone="no"?><!DOCTYPE svg PUBLIC "-//W3C//DTD SVG 1.1//EN" "http://www.w3.org/Graphics/SVG/1.1/DTD/svg11.dtd"><svg t="1526550987649" class="icon" style="" viewBox="0 0 1024 1024" version="1.1" xmlns="http://www.w3.org/2000/svg" p-id="2329" xmlns:xlink="http://www.w3.org/1999/xlink" width="200" height="200"><defs><style type="text/css"></style></defs><path d="M80.213333 186.026667h783.36c44.373333 0 80.213333 35.84 80.213334 80.213333v95.573333c0 44.373333-35.84 80.213333-80.213334 80.213334H80.213333c-44.373333 0-80.213333-35.84-80.213333-80.213334v-95.573333c0-44.373333 35.84-80.213333 80.213333-80.213333z" fill="#996B4D" p-id="2330"></path><path d="M256 271.36l500.053333-133.12c17.066667-5.12 34.133333 5.12 39.253334 22.186667l83.626666 307.2c5.12 17.066667-5.12 34.133333-22.186666 39.253333L204.8 680.96c-17.066667 5.12-34.133333-5.12-39.253333-22.186667L104.106667 433.493333l151.893333-162.133333z" fill="#39BFA7" p-id="2331"></path><path d="M791.893333 459.093333L682.666667 488.106667c-8.533333 1.706667-17.066667-1.706667-18.773334-11.946667-1.706667-8.533333 1.706667-17.066667 11.946667-18.773333l92.16-25.6-49.493333-186.026667-92.16 25.6c-8.533333 1.706667-17.066667-1.706667-18.773334-11.946667-1.706667-8.533333 1.706667-17.066667 11.946667-18.773333l107.52-29.013333c8.533333-1.706667 17.066667 1.706667 18.773333 11.946666L802.133333 438.613333c3.413333 10.24-1.706667 18.773333-10.24 20.48z m-448.853333 119.466667l-107.52 29.013333c-8.533333 1.706667-17.066667-1.706667-18.773333-11.946666L158.72 380.586667c-1.706667-8.533333 1.706667-17.066667 11.946667-18.773334l107.52-29.013333c8.533333-1.706667 17.066667 1.706667 18.773333 11.946667 1.706667 8.533333-1.706667 17.066667-11.946667 18.773333l-92.16 25.6 49.493334 186.026667 92.16-25.6c8.533333-1.706667 17.066667 1.706667 18.773333 11.946666 3.413333 6.826667-1.706667 15.36-10.24 17.066667z" fill="#7CD1C0" p-id="2332"></path><path d="M6.826667 384c141.653333-81.92 525.653333-307.2 525.653333-307.2 15.36-8.533333 35.84-3.413333 44.373333 11.946667l160.426667 274.773333c8.533333 15.36 3.413333 34.133333-11.946667 42.666667L139.946667 742.4c-15.36 8.533333-35.84 3.413333-44.373334-11.946667 0 0-44.373333-90.453333-90.453333-167.253333 0-179.2 1.706667-121.173333 1.706667-179.2z" fill="#52CCB6" p-id="2333"></path><path d="M655.36 354.986667L542.72 160.426667c-5.12-6.826667-13.653333-10.24-20.48-5.12l-97.28 56.32c-8.533333 5.12-10.24 13.653333-5.12 22.186666s13.653333 10.24 22.186667 5.12l83.626666-47.786666 95.573334 167.253333-83.626667 47.786667c-8.533333 3.413333-11.946667 13.653333-6.826667 20.48 5.12 8.533333 13.653333 10.24 22.186667 5.12l97.28-56.32c6.826667-3.413333 10.24-13.653333 5.12-20.48zM230.4 580.266667l-83.626667 47.786666L51.2 462.506667l83.626667-47.786667c8.533333-5.12 10.24-15.36 6.826666-22.186667-5.12-6.826667-15.36-10.24-22.186666-5.12L22.186667 443.733333c-8.533333 5.12-10.24 13.653333-5.12 22.186667l112.64 192.853333c5.12 8.533333 13.653333 10.24 22.186666 5.12l97.28-56.32c8.533333-5.12 10.24-13.653333 5.12-22.186666-5.12-6.826667-15.36-8.533333-23.893333-5.12z m40.96-281.6c-61.44 35.84-81.92 114.346667-47.786667 175.786666 35.84 61.44 114.346667 81.92 175.786667 47.786667s81.92-114.346667 47.786667-175.786667c-35.84-61.44-114.346667-83.626667-175.786667-47.786666z m384 56.32L542.72 160.426667c-5.12-6.826667-13.653333-10.24-20.48-5.12l-97.28 56.32c-8.533333 5.12-10.24 13.653333-5.12 22.186666s13.653333 10.24 22.186667 5.12l83.626666-47.786666 95.573334 167.253333-83.626667 47.786667c-8.533333 3.413333-11.946667 13.653333-6.826667 20.48 5.12 8.533333 13.653333 10.24 22.186667 5.12l97.28-56.32c6.826667-3.413333 10.24-13.653333 5.12-20.48zM230.4 580.266667l-83.626667 47.786666L51.2 462.506667l83.626667-47.786667c8.533333-5.12 10.24-15.36 6.826666-22.186667-5.12-6.826667-15.36-10.24-22.186666-5.12L22.186667 443.733333c-8.533333 5.12-10.24 13.653333-5.12 22.186667l112.64 192.853333c5.12 8.533333 13.653333 10.24 22.186666 5.12l97.28-56.32c8.533333-5.12 10.24-13.653333 5.12-22.186666-5.12-6.826667-15.36-8.533333-23.893333-5.12z m40.96-281.6c-61.44 35.84-81.92 114.346667-47.786667 175.786666 35.84 61.44 114.346667 81.92 175.786667 47.786667s81.92-114.346667 47.786667-175.786667c-35.84-61.44-114.346667-83.626667-175.786667-47.786666z" fill="#99E6D7" p-id="2334"></path><path d="M894.293333 959.146667H80.213333c-44.373333 0-80.213333-35.84-80.213333-80.213334V329.386667h894.293333c44.373333 0 80.213333 35.84 80.213334 80.213333v471.04c0 42.666667-35.84 78.506667-80.213334 78.506667zM64.853333 329.386667H0v-64.853334c0 35.84 29.013333 64.853333 64.853333 64.853334z" fill="#B37F59" p-id="2335"></path><path d="M991.573333 768h-128C802.133333 768 750.933333 716.8 750.933333 655.36s51.2-112.64 112.64-112.64h128c17.066667 0 32.426667 13.653333 32.426667 32.426667v160.426666c0 18.773333-13.653333 32.426667-32.426667 32.426667z" fill="#8F6649" p-id="2336"></path><path d="M863.573333 592.213333c35.84 0 64.853333 29.013333 64.853334 64.853334 0 35.84-29.013333 64.853333-64.853334 64.853333-35.84 0-64.853333-29.013333-64.853333-64.853333 1.706667-35.84 30.72-64.853333 64.853333-64.853334z" fill="#F2BC5F" p-id="2337"></path></svg>