<?xml version="1.0" standalone="no"?><!DOCTYPE svg PUBLIC "-//W3C//DTD SVG 1.1//EN" "http://www.w3.org/Graphics/SVG/1.1/DTD/svg11.dtd"><svg t="1507716981390" class="icon" style="" viewBox="0 0 1050 1024" version="1.1" xmlns="http://www.w3.org/2000/svg" p-id="3125" xmlns:xlink="http://www.w3.org/1999/xlink" width="32.8125" height="32"><defs><style type="text/css"></style></defs><path d="M408.564796 62.019728l86.124958 0 0 43.642644-64.073688 0c-17.125784 0-31.00987 13.884087-31.00987 31.00987s13.88284 31.00987 31.00987 31.00987l190.190798 0c17.125784 0 31.00987-13.884087 31.00987-31.00987s-13.88284-31.00987-31.00987-31.00987l-64.098615 0 0-43.642644 87.068428 0c17.125784 0 31.00987-13.884087 31.00987-31.00987s-13.88284-31.00987-31.00987-31.00987L408.564796-1.2e-05c-17.125784 0-31.00987 13.884087-31.00987 31.00987S391.437765 62.019728 408.564796 62.019728z" p-id="3126" fill="#ffffff"></path><path d="M268.06133 375.559543c0 17.125784 13.88284 31.00987 31.00987 31.00987l451.129367 0c17.125784 0 31.00987-13.884087 31.00987-31.00987 0-17.125784-13.88284-31.00987-31.00987-31.00987L299.0712 344.549672C281.94417 344.549672 268.06133 358.433759 268.06133 375.559543z" p-id="3127" fill="#ffffff"></path><path d="M750.19932 512.6892 299.0712 512.6892c-17.12703 0-31.00987 13.884087-31.00987 31.00987s13.88284 31.00987 31.00987 31.00987l451.129367 0c17.125784 0 31.00987-13.884087 31.00987-31.00987S767.326351 512.6892 750.19932 512.6892z" p-id="3128" fill="#ffffff"></path><path d="M750.19932 680.829975 299.0712 680.829975c-17.12703 0-31.00987 13.88284-31.00987 31.00987s13.88284 31.00987 31.00987 31.00987l451.129367 0c17.125784 0 31.00987-13.88284 31.00987-31.00987S767.326351 680.829975 750.19932 680.829975z" p-id="3129" fill="#ffffff"></path><path d="M979.540999 208.991633c-1.20146-17.77512-5.527462-34.364984-12.716278-49.469225-14.305345-32.208837-37.247739-50.916211-57.078053-61.623409-30.340593-16.38048-59.136986-17.12703-62.320106-17.159435-0.057331-0.001246-0.117155-0.001246-0.174486-0.001246l-54.898226-0.229324-0.132111 0c-17.06596 0-30.935091 13.79809-31.006131 30.880252C761.144567 128.516277 774.96883 142.457695 792.09586 142.529982l54.546762 0.226832c1.521766 0.068548 18.607667 1.039437 35.383233 10.687257 20.692773 11.90118 32.387062 31.79381 35.688583 60.686171 0.23431 3.155701 0.361435 665.740702 0.361435 665.740702 0 44.958766-34.717694 81.535981-77.391942 81.535981L562.744211 961.406924l0 0.574557L208.585343 961.981481c-42.674248 0-77.391942-36.577215-77.391942-81.535981 0 0 0.128372-662.585001 0.362681-665.740702 3.301521-28.89236 14.995811-48.784991 35.688583-60.686171 16.776812-9.649066 33.861467-10.619955 35.383233-10.687257l54.546762-0.226832c17.12703-0.071041 30.951293-14.012458 30.880252-31.138242-0.071041-17.082162-13.941418-30.880252-31.006131-30.880252-0.044868 0-0.087243 0-0.132111 0l-54.89698 0.229324c-0.058577 0.001246-0.117155 0.001246-0.175732 0.001246-3.18312 0.031158-31.979513 0.777708-62.320106 17.159435C110.433326 114.18102 74.628835 147.076584 69.249686 214.605091c-0.133357 1.681296-0.125879 3.340157 0.003739 4.967861-0.04736 1.525505-0.078519 3.055995-0.078519 4.593963l0 656.278585c0 79.155495 62.539459 143.554475 139.410437 143.554475l632.099835-0.574557c76.872224 0 139.432871-63.823177 139.432871-142.979918 0 0-0.008724-20.421073-0.022434-54.078143C980.095614 826.367357 979.715485 210.654234 979.540999 208.991633z" p-id="3130" fill="#ffffff"></path></svg>