<?xml version="1.0" standalone="no"?><!DOCTYPE svg PUBLIC "-//W3C//DTD SVG 1.1//EN" "http://www.w3.org/Graphics/SVG/1.1/DTD/svg11.dtd"><svg t="1512028898958" class="icon" style="" viewBox="0 0 1025 1024" version="1.1" xmlns="http://www.w3.org/2000/svg" p-id="21213" xmlns:xlink="http://www.w3.org/1999/xlink" width="64.0625" height="64"><defs><style type="text/css"></style></defs><path d="M408.576 951.296v-214.528c0-27.136 9.216-49.664 29.696-73.728 14.848-17.408 323.072-377.856 417.28-487.936L111.104 574.976l245.76 79.36-18.944 56.832-7.68-2.56L46.08 615.936c-14.336-4.608-23.552-15.872-24.576-30.72-1.024-13.824 5.12-32.768 27.136-44.544 17.408-9.216 301.568-161.792 844.288-453.12l44.032-23.552c17.408-5.632 31.744-5.632 44.032 0.512 25.088 12.8 20.992 36.352 18.944 49.152v1.536C998.4 126.976 867.328 798.72 861.184 829.44c-3.072 17.92-12.8 32.768-27.648 41.472-13.824 8.704-29.696 10.752-45.056 6.144-10.24-3.072-65.024-20.48-268.8-84.48l-17.408-5.632 18.432-56.832 10.24 3.072c79.872 25.088 265.728 82.944 271.872 85.504h0.512c0-0.512 0.512-1.024 0.512-2.048l123.392-633.856-24.576 28.672c-114.688 134.144-419.328 490.496-423.936 496.128-4.608 5.12-10.24 17.92-9.728 31.232 0.512 14.336 0 195.072 0 202.752v7.68l-7.68 0.512-52.736 1.536z" p-id="21214" fill="#2987BA"></path></svg>