<?xml version="1.0" standalone="no"?><!DOCTYPE svg PUBLIC "-//W3C//DTD SVG 1.1//EN" "http://www.w3.org/Graphics/SVG/1.1/DTD/svg11.dtd"><svg t="1512030016551" class="icon" style="" viewBox="0 0 1024 1024" version="1.1" xmlns="http://www.w3.org/2000/svg" p-id="35871" xmlns:xlink="http://www.w3.org/1999/xlink" width="64" height="64"><defs><style type="text/css"></style></defs><path d="M770.247 741.991zM611.227 565.884H495.573v57.827h97.252c11.829 0 18.401-6.571 18.401-19.715v-38.112h0.001z m43.368 38.112c1.315 31.542-14.456 47.313-45.998 47.313H454.832V535.655h199.763v68.341z m0-99.882H454.832v-28.912h199.763v28.912z m0-56.511H454.832V418.69h199.763v28.913zM418.033 659.194h-40.74V448.917c-9.2 5.257-21.029 10.514-34.171 15.771v-28.914c30.228-22.342 48.626-56.512 56.513-102.509h43.369c-7.885 32.855-15.771 56.511-24.971 70.968v254.961z m22.342-298.33h89.367v-27.599h48.627v27.599h91.996v30.227h-229.99v-30.227z m319.359-80.168c-35.484 0-159.022-44.685-245.762-44.685-86.74 0-211.592 44.685-248.391 44.685v306.215c5.257 38.113 35.485 149.822 247.076 202.392 211.593-52.57 241.821-164.279 245.763-202.392V280.696h1.314zM512.658 827.415C272.154 768.276 236.67 639.479 231.412 597.426V247.841c42.057 0 182.68-51.256 281.246-51.256 98.568 0 240.504 51.256 279.93 51.256v349.585c-3.942 42.053-39.426 170.85-279.93 229.989z" p-id="35872" fill="#743525"></path></svg>