<?xml version="1.0" standalone="no"?><!DOCTYPE svg PUBLIC "-//W3C//DTD SVG 1.1//EN" "http://www.w3.org/Graphics/SVG/1.1/DTD/svg11.dtd"><svg t="1512030064204" class="icon" style="" viewBox="0 0 1024 1024" version="1.1" xmlns="http://www.w3.org/2000/svg" p-id="36456" xmlns:xlink="http://www.w3.org/1999/xlink" width="64" height="64"><defs><style type="text/css"></style></defs><path d="M851.02032 92.072999 746.231719 92.072999 746.231719 43.535539c0-13.620206-11.040451-24.65554-24.65554-24.65554-13.620206 0-24.65554 11.036357-24.65554 24.65554l0 48.53746L327.07936 92.072999 327.07936 43.535539c0-13.620206-11.036357-24.65554-24.65554-24.65554-13.620206 0-24.65554 11.036357-24.65554 24.65554l0 48.53746L172.97968 92.072999c-49.312102 0-92.459808 43.152822-92.459808 92.464925l0 728.127386c0 49.312102 43.147706 92.454692 92.459808 92.454692L844.855924 1005.120001c55.476499 0 92.459808-43.143613 98.624205-92.454692L943.480128 184.537923C943.480128 135.225821 900.332423 92.072999 851.02032 92.072999zM892.629997 924.988985c0 18.492166-12.32777 30.819936-30.819936 30.819936L160.650887 955.808922c-18.492166 0-30.819936-12.32777-30.819936-30.819936L129.830951 172.97968c0-18.492166 12.32777-30.819936 30.819936-30.819936l117.116371 0 0 73.967642c0 13.615089 11.036357 24.656563 24.65554 24.656563 13.620206 0 24.65554-11.041474 24.65554-24.656563l0-73.967642 369.840256 0 0 73.967642c0 13.615089 11.036357 24.656563 24.65554 24.656563 13.615089 0 24.65554-11.041474 24.65554-24.656563l0-73.967642 115.577319 0c18.492166 0 30.819936 12.32777 30.819936 30.819936L892.626927 924.988985zM647.608537 585.967642c13.620206 0 24.65554-11.040451 24.65554-24.65554S661.22772 536.65554 647.608537 536.65554L526.083763 536.65554l130.49917-130.49917c9.630335-9.630335 9.630335-25.242917 0-34.868135-9.625218-9.630335-25.242917-9.630335-34.868135 0L499.674277 493.327732 377.629663 371.288235c-9.630335-9.630335-25.237801-9.630335-34.868135 0-9.630335 9.625218-9.630335 25.237801 0 34.868135L473.26479 536.65554 351.735923 536.65554c-13.615089 0-24.65554 11.040451-24.65554 24.65554s11.041474 24.65554 24.65554 24.65554l123.279744 0 0 49.312102L351.735923 635.278721c-13.615089 0-24.65554 11.040451-24.65554 24.65554s11.041474 24.65554 24.65554 24.65554l123.279744 0L475.015667 807.872614c0 13.615089 11.040451 24.65554 24.65554 24.65554s24.65554-11.041474 24.65554-24.65554L524.326746 684.591847l123.279744 0c13.620206 0 24.65554-11.040451 24.65554-24.65554s-11.036357-24.65554-24.65554-24.65554L524.32777 635.280768l0-49.312102L647.608537 585.968665z" p-id="36457" fill="#4D6684"></path></svg>