<?xml version="1.0" standalone="no"?><!DOCTYPE svg PUBLIC "-//W3C//DTD SVG 1.1//EN" "http://www.w3.org/Graphics/SVG/1.1/DTD/svg11.dtd"><svg t="1512030108699" class="icon" style="" viewBox="0 0 1024 1024" version="1.1" xmlns="http://www.w3.org/2000/svg" p-id="37212" xmlns:xlink="http://www.w3.org/1999/xlink" width="64" height="64"><defs><style type="text/css"></style></defs><path d="M680.807 211.098H204.898c-11.534 0-20.891 8.344-20.891 18.636 0 10.293 9.357 18.628 20.891 18.628h475.933c11.529 0 20.886-8.336 20.886-18.628 0.001-10.293-9.373-18.636-20.91-18.636z m20.874 152.17c0-10.292-9.357-18.636-20.89-18.636H204.874c-11.509 0-20.866 8.344-20.866 18.636 0 10.293 9.357 18.632 20.866 18.632h475.957c11.493 0 20.85-8.34 20.85-18.632zM204.858 478.19c-11.538 0-20.891 8.34-20.891 18.632 0 10.292 9.353 18.632 20.891 18.632h305.436c11.509 0 20.866-8.34 20.866-18.632 0-10.293-9.357-18.632-20.866-18.632H204.858z m239.286 133.554h-239.27c-11.529 0-20.891 8.36-20.891 18.628 0 10.297 9.361 18.636 20.891 18.636h239.27c11.534 0 20.891-8.34 20.891-18.636 0-10.268-9.357-18.628-20.891-18.628z m466.947 190.249h-53.457l-104.33-130.288c42.94-13.482 73.941-49.668 73.941-92.523 0-54.31-49.47-98.491-110.331-98.491-60.857 0-110.343 44.18-110.343 98.491 0 42.854 31.037 79.041 73.957 92.523L576.175 801.993h-53.432c-26.871 0-48.717 19.482-48.717 43.464v70.054c0 23.978 21.847 43.485 48.717 43.485h388.303c26.871-0.016 48.738-19.507 48.738-43.505v-70.054c0.02-23.962-21.823-43.444-48.693-43.444z m-262.745-222.81c0-33.75 30.736-61.23 68.566-61.23 37.839 0 68.57 27.46 68.57 61.23 0 33.538-30.386 60.815-67.94 61.141h-1.281c-37.484-0.326-67.915-27.579-67.915-61.141z m62.163 119.234l12.282-0.692 83.505 104.268H627.537l82.972-103.576z m207.579 217.115h-0.045v-0.02c0 3.377-3.169 6.204-6.953 6.204H522.759c-3.783 0-6.957-2.827-6.957-6.204v-70.03c0-3.381 3.173-6.208 6.957-6.208h388.352c3.779 0 6.977 2.827 6.977 6.208v70.05z m-811.54-78.17V107.485c0-3.372 3.173-6.2 6.957-6.2h664.741c3.8 0 6.977 2.827 6.977 6.2v350.567c15.659 7.058 29.755 16.456 41.757 27.704V107.485c0-23.982-21.867-43.489-48.734-43.489H113.505c-26.871 0-48.721 19.507-48.721 43.489v729.877c0 23.982 21.851 43.489 48.721 43.489h318.74v-35.393c0-0.651 0.207-1.241 0.224-1.896H113.505c-3.763-0.001-6.957-2.824-6.957-6.2z" p-id="37213" fill="#492540"></path></svg>