<?xml version="1.0" standalone="no"?><!DOCTYPE svg PUBLIC "-//W3C//DTD SVG 1.1//EN" "http://www.w3.org/Graphics/SVG/1.1/DTD/svg11.dtd"><svg t="1507717032447" class="icon" style="" viewBox="0 0 1024 1024" version="1.1" xmlns="http://www.w3.org/2000/svg" p-id="3572" xmlns:xlink="http://www.w3.org/1999/xlink" width="32" height="32"><defs><style type="text/css"></style></defs><path d="M660.876174 415.748842c59.462666 19.436678 127.449822 5.556553 174.714179-41.705867 45.029364-45.026496 59.75125-108.826568 44.277203-166.183903l-97.186348 97.182366-95.193889-25.524327-25.524349-95.189989 97.186348-97.182366c-57.359686-15.474436-121.161348-0.75213-166.190713 44.274366-45.294411 45.270043-59.927266 109.578698-43.987596 167.180604L286.753402 560.813752c-57.6145-15.939017-121.914532-1.305739-167.208944 43.985794-45.018107 45.027519-59.73897 108.827591-44.253666 166.183903l97.175091-97.182366 95.205146 25.523303 25.514116 95.189989-97.186348 97.182366c57.359686 15.473413 121.172605 0.75213 166.190713-44.275389 47.275613-47.263443 61.145051-115.245767 41.719856-174.72851L660.876174 415.748842zM936.229478 681.218006l-20.942819 0c-9.608216 0-19.769039-7.504928-22.62418-16.648169l-11.99978-29.221532c-4.560039-8.43409-2.700616-20.896936 4.072926-27.693736l14.832408-14.810311c6.818569-6.818289 6.818569-17.930371 0-24.705682l-24.683157-24.660656c-6.797078-6.774287-17.865612-6.774287-24.68418 0l-14.832408 14.8318c-6.774565 6.795776-19.259412 8.633634-27.717384 4.095271l-29.177702-11.999288c-9.121102-2.833535-16.648851-13.016455-16.648851-22.623253l0-20.919449c0-9.585309-7.880804-17.444301-17.443992-17.444301l-34.846027 0c-9.629706 0-17.489019 7.858992-17.489019 17.444301l0 20.919449c0 9.607822-7.483745 19.790742-16.648851 22.623253l-29.177702 11.999288c-8.479463 4.538363-20.920306 2.700505-27.67338-4.095271l-14.898925-14.8318c-6.797078-6.774287-17.887102-6.774287-24.639153 0l-24.66269 24.660656c-6.818569 6.774287-6.818569 17.886369 0 24.683169l14.788404 14.8318c6.818569 6.7968 8.676969 19.258623 4.11693 27.693736l-12.02127 29.221532c-2.855141 9.16473-12.994475 16.669658-22.60269 16.669658l-20.931563-0.021489c-9.596959 0-17.456272 7.836479-17.456272 17.444301l0 34.865065c0 9.607822 7.859314 17.46579 17.456272 17.46579l20.931563 0c9.608216 0.022513 19.747549 7.504928 22.580176 16.648169l12.043784 29.199019c4.516035 8.478092 2.679125 20.963451-4.11693 27.736715l-14.832408 14.810311c-6.774565 6.7968-6.774565 17.886369 0 24.705682l24.706694 24.660656c6.752051 6.774287 17.843098 6.774287 24.639153 0l14.854921-14.854313c6.774565-6.751774 19.215408-8.611122 27.650866-4.028757l29.244219 11.998265c9.165106 2.856048 16.648851 13.017478 16.648851 22.624277l0 20.874423c0 9.56382 7.8368 17.421788 17.489019 17.421788l34.846027 0c9.563188 0 17.443992-7.858992 17.443992-17.421788l0-20.874423c0-9.607822 7.526725-19.768229 16.648851-22.624277l29.222729-11.998265c8.456949-4.583388 20.942819-2.723018 27.737851 4.028757l14.766913 14.854313c6.818569 6.774287 17.887102 6.774287 24.68418 0l24.683157-24.660656c6.818569-6.818289 6.818569-17.908882 0-24.705682l-14.832408-14.810311c-6.773541-6.773264-8.633988-19.258623-4.072926-27.736715l11.99978-29.199019c2.855141-9.143241 13.062015-16.624632 22.62418-16.624632l20.942819 0c9.564212 0 17.401012-7.858992 17.401012-17.444301L953.630489 698.662307C953.630489 689.054485 945.793689 681.218006 936.229478 681.218006zM726.981393 803.260573c-48.172066 0-87.179027-39.028898-87.179027-87.176478s39.006961-87.197968 87.179027-87.197968 87.201541 39.049365 87.201541 87.197968S775.153459 803.260573 726.981393 803.260573z" p-id="3573" fill="#ffffff"></path></svg>