<?xml version="1.0" standalone="no"?><!DOCTYPE svg PUBLIC "-//W3C//DTD SVG 1.1//EN" "http://www.w3.org/Graphics/SVG/1.1/DTD/svg11.dtd"><svg t="1507717042086" class="icon" style="" viewBox="0 0 1024 1024" version="1.1" xmlns="http://www.w3.org/2000/svg" p-id="4296" xmlns:xlink="http://www.w3.org/1999/xlink" width="32" height="32"><defs><style type="text/css"></style></defs><path d="M934.958545 222.068364h-151.854545c-0.418909 0-0.768 0.209455-1.186909 0.232727v-0.232727c-25.972364 0-60.625455-21.690182-71.284364-34.443637l-44.078545-52.736c-14.336-17.128727-45.940364-45.917091-96.116364-45.917091h-116.177454c-51.479273 0-79.266909 24.948364-99.677091 49.361455l-42.891637 51.293091c-9.285818 11.101091-44.8 32.442182-68.910545 32.442182-0.768 0-1.396364 0.349091-2.141091 0.442181v-0.442181H89.041455A89.181091 89.181091 0 0 0 0 311.249455v535.063272a89.181091 89.181091 0 0 0 89.041455 89.181091h845.91709A89.204364 89.204364 0 0 0 1024 846.312727V311.249455a89.181091 89.181091 0 0 0-89.041455-89.181091z m44.520728 624.244363a44.613818 44.613818 0 0 1-44.520728 44.590546H89.041455a44.613818 44.613818 0 0 1-44.520728-44.590546V311.249455c0-24.576 19.991273-44.590545 44.520728-44.590546h151.598545v-0.442182c0.744727 0.069818 1.373091 0.442182 2.141091 0.442182 38.749091 0 86.132364-5.911273 103.051636-26.112l42.891637-73.588364c17.245091-20.596364 34.210909-33.373091 65.559272-33.37309h116.177455c30.510545 0 50.548364 16.314182 61.975273 29.975272l45.265454 76.357818c16.733091 20.037818 63.488 26.763636 104.238546 26.763637v-0.232727c0.418909 0.023273 0.768 0.232727 1.186909 0.232727h151.854545c24.552727 0 44.520727 20.014545 44.520727 44.590545v535.04zM512 378.670545c-116.782545 0-200.354909 89.693091-200.354909 200.331637A200.331636 200.331636 0 0 0 512 779.333818a200.331636 200.331636 0 0 0 200.354909-200.331636c0-110.638545-83.572364-200.331636-200.354909-200.331637z m0 355.048728c-86.062545 0-155.834182-69.818182-155.834182-155.927273s69.771636-155.927273 155.834182-155.927273c86.062545 0 155.834182 69.818182 155.834182 155.927273s-69.771636 155.927273-155.834182 155.927273z" fill="#ffffff" p-id="4297"></path></svg>