<?xml version="1.0" standalone="no"?><!DOCTYPE svg PUBLIC "-//W3C//DTD SVG 1.1//EN" "http://www.w3.org/Graphics/SVG/1.1/DTD/svg11.dtd"><svg t="1512028794570" class="icon" style="" viewBox="0 0 1024 1024" version="1.1" xmlns="http://www.w3.org/2000/svg" p-id="20358" xmlns:xlink="http://www.w3.org/1999/xlink" width="64" height="64"><defs><style type="text/css"></style></defs><path d="M257.4 959.8c-12.2 0-24.5-3.9-34.9-11.6-19.3-14.2-27.5-38.2-21.1-61l77.1-244.9c3.6-13-1.2-27.3-12.4-36.1L93.6 471.7c-19-14.8-26.6-39.1-19.3-61.9 7.4-23.2 28.1-38.9 52.7-39.9l220.3-9.6c14.6-0.6 27.3-9.6 32.4-22.9l77.4-202.1c8.6-22.4 29.9-36.9 54.2-36.9 24.4 0 45.6 14.5 54.2 36.9l77.5 202c5.1 13.3 17.8 22.3 32.4 22.9l84.6 3.7c10 0.4 17.8 8.9 17.3 18.9-0.4 10-8.1 18-18.9 17.3l-84.6-3.7c-29-1.3-54.4-19.4-64.7-46.2l-77.4-202.1c-4.9-12.7-16.8-13.6-20.4-13.6-3.5 0-15.5 1-20.3 13.6l-77.4 202.1c-10.2 26.8-35.6 44.9-64.7 46.2L128.6 406c-14.2 0.6-18.7 11.4-19.8 14.7-1 3.2-3.5 14.1 7.1 22.3l172.5 134.5c22.9 17.9 32.7 47.3 24.8 75.1l-77 244.9c-3.4 12 5.2 19.5 7.8 21.5 6 4.4 15.8 6.9 25.3 0.8l202.8-119.4c23.6-15.3 54.8-15.2 79 0.4l201.5 118.6c10.2 6.5 20 4 26-0.4 2.7-2 11.2-9.5 7.7-22l-76.8-243.9c-8-28.3 1.8-57.7 24.7-75.6L906.7 443c10.6-8.2 8.1-19.1 7.1-22.3-1.1-3.3-5.6-14.1-19.8-14.7l-52.6-2.3c-10-0.4-17.8-8.9-17.3-18.9s9.2-17.8 18.9-17.3l52.6 2.3c24.6 1.1 45.3 16.8 52.7 39.9 7.3 22.8-0.3 47.1-19.3 61.9L756.6 606.2c-11.2 8.8-16.1 23.1-12.2 36.6l76.7 243.9c6.6 23.4-1.6 47.3-20.9 61.5-19.8 14.6-45.9 15.4-66.6 2.1L532.1 831.7c-12.9-8.3-28.7-8.3-40.9-0.4L288.4 950.6c-9.4 6.2-20.2 9.2-31 9.2z" fill="#D25B36" p-id="20359"></path></svg>