<?xml version="1.0" standalone="no"?><!DOCTYPE svg PUBLIC "-//W3C//DTD SVG 1.1//EN" "http://www.w3.org/Graphics/SVG/1.1/DTD/svg11.dtd"><svg t="1507717068862" class="icon" style="" viewBox="0 0 1024 1024" version="1.1" xmlns="http://www.w3.org/2000/svg" p-id="5746" xmlns:xlink="http://www.w3.org/1999/xlink" width="32" height="32"><defs><style type="text/css"></style></defs><path d="M935.04 434.304C935.008 434.304 935.008 434.272 935.04 434.304c-9.856-14.176-21.28-29.408-33.088-44-0.48-0.576-0.928-1.152-1.408-1.728l0.256 0-11.04-12.992-0.16-0.192c-14.688-17.28-29.088-32.672-41.664-44.544-29.12-27.488-43.328-31.2-53.376-31.2l-154.944 0c-4.288 0-8.512 0.448-12.64 1.344L626.976 232.32c0-33.248-27.04-60.288-60.288-60.288L110.944 172.032c-33.248 0-60.288 27.04-60.288 60.288l0 473.92c0 33.248 27.04 60.288 60.288 60.288l69.792 0c11.136 52.416 58.304 91.136 112.48 91.136 54.208 0 101.376-38.72 112.512-91.136l160.928 0c13.312 0 26.016-4.32 36.48-12.288 10.432 7.968 23.136 12.288 36.448 12.288l15.104 0c11.136 52.416 58.304 91.136 112.48 91.136s101.376-38.72 112.512-91.136l33.344 0c33.248 0 60.288-27.04 60.288-60.288l0-191.392c0-8.48-2.176-21.888-19.072-50.72C948.928 455.04 942.464 444.992 935.04 434.304zM293.248 810.016c-37.12 0-67.296-30.208-67.296-67.328s30.176-67.328 67.296-67.328c37.12 0 67.328 30.208 67.328 67.328S330.368 810.016 293.248 810.016zM579.296 359.936 579.296 706.24c0 6.976-5.664 12.64-12.64 12.64l-160.928 0c-10.848-51.616-55.584-89.44-108.928-91.104-0.128 0-0.224 0-0.352 0l0 0.032c-0.032 0-0.096 0-0.16 0-0.032 0-0.096 0-0.16 0l0 0 0 0-0.032 0c-0.032 0-0.096 0-0.128 0 0 0-0.032 0-0.032 0-0.064 0-0.16 0-0.224 0-0.096 0-0.192-0.032-0.224 0-0.064 0-0.128 0-0.192 0-0.032 0-0.16 0-0.288 0-0.032 0-0.064 0-0.128 0l0 0c-0.032 0-0.064 0-0.096 0 0 0-0.032 0-0.064 0-0.032 0-0.064 0-0.096 0s-0.032 0-0.064 0l0 0c-0.032 0-0.064 0-0.096 0 0 0-0.032 0-0.064 0s-0.064 0-0.096 0c0 0-0.032 0-0.064 0s-0.064 0-0.096 0l0 0 0 0c0 0-0.032 0-0.064 0s-0.064 0-0.096 0-0.032 0-0.064 0c-0.032 0-0.064 0-0.096 0 0 0-0.032 0-0.032 0-0.064 0-0.096 0-0.128 0-0.096 0-0.16 0-0.224 0L293.056 627.808l0 0c0 0-0.032 0-0.032 0L292.832 627.808l0 0-0.192 0 0 0-0.8 0L291.808 627.808 291.68 627.808c0 0 0 0 0 0s0 0-0.032 0L291.584 627.808c-0.032 0-0.064 0-0.096 0L291.232 627.808l0 0L291.104 627.808c0 0-0.032 0-0.032 0L290.912 627.808l-0.032 0L290.752 627.808c-0.032 0-0.064 0-0.064 0L290.56 627.808c0 0 0 0-0.032 0l-0.128 0c0 0 0 0 0 0l0 0-0.128 0c0 0 0 0-0.032 0l-0.128 0c-0.064 0-0.16 0-0.224 0-53.408 1.568-98.208 39.424-109.056 91.104L110.944 718.912c-6.976 0-12.64-5.664-12.64-12.64L98.304 232.32c0-6.976 5.664-12.64 12.64-12.64l455.712 0c6.976 0 12.64 5.664 12.64 12.64L579.296 359.936zM767.2 810.016c-37.12 0-67.328-30.208-67.328-67.328s30.208-67.328 67.328-67.328 67.328 30.208 67.328 67.328S804.288 810.016 767.2 810.016zM925.632 706.24c0 6.976-5.664 12.64-12.64 12.64L879.68 718.88c-10.496-49.28-53.088-87.008-103.808-90.816l0 0.224c-0.064 0-0.096-0.032-0.16-0.032s-0.096-0.032-0.16-0.032c-0.064 0-0.096-0.032-0.16-0.032s-0.096-0.032-0.16-0.032c-0.032 0-0.096 0-0.16-0.032-0.256-0.064-0.544-0.096-0.8-0.128-0.032 0-0.096 0-0.16 0-0.096 0-0.224 0-0.32 0 0 0-0.032 0-0.032 0-0.032 0-0.064 0-0.128 0l0 0c0 0-0.032 0-0.032 0-0.032 0-0.064 0-0.096 0 0 0-0.032 0-0.032 0-0.064 0-0.16 0-0.224 0-0.224 0-0.48 0-0.672-0.032-0.032 0-0.096 0-0.16 0-0.032 0-0.032 0-0.064 0s-0.064 0-0.096 0-0.032 0-0.064 0l0 0c-0.032 0-0.064 0-0.096 0 0 0-0.032 0-0.032 0-0.032 0-0.064 0-0.128 0 0 0-0.032 0-0.064 0-0.032 0-0.064 0-0.096 0s-0.032 0-0.064 0-0.064 0-0.096 0c-0.032 0-0.032 0-0.064 0s-0.064 0-0.096 0c-0.032 0-0.032 0-0.064 0s-0.064 0-0.096 0c0 0-0.032 0-0.064 0-0.064 0-0.096 0-0.16 0l0 0c-0.032 0-0.064 0-0.096-0.032l-0.032 0 0-0.128 0 0.128c-0.032 0-0.064 0-0.096-0.032 0 0-0.032 0-0.064 0-0.032 0-0.064 0-0.096 0-0.032 0-0.032 0-0.064 0-0.032 0-0.064 0-0.096 0l0-0.032 0-0.032 0 0.064c0 0-0.032 0-0.064 0s-0.064 0-0.064 0c-0.064 0-0.064 0-0.096 0-0.032 0-0.064 0-0.096 0s-0.064 0-0.064 0c-0.032 0-0.064 0-0.096 0s-0.064 0-0.096 0-0.064 0-0.096 0-0.032 0-0.064 0-0.064 0-0.096 0c-0.064 0-0.16-0.032-0.256 0-0.064 0-0.128 0-0.192 0s-0.096 0-0.16 0c0 0-0.032 0-0.064 0s-0.064 0-0.096 0-0.032 0-0.064 0-0.064 0-0.096 0c0 0-0.032 0-0.064 0-0.032 0-0.064 0-0.096 0s-0.032 0-0.064 0-0.064 0-0.096 0c0 0-0.032 0-0.064 0s-0.064 0-0.096 0-0.032 0-0.064 0c-0.032 0-0.064 0-0.096 0 0 0-0.032 0-0.032 0-0.064 0-0.096 0-0.128 0-0.064 0-0.16 0-0.224 0l-0.16 0 0 0c0 0-0.032 0-0.032 0l-0.16 0 0 0-0.16 0 0 0 0 0-0.64 0 0 0-0.16 0 0 0-0.16 0c0 0-0.032 0-0.064 0l-0.16 0 0 0-0.16 0c0 0-0.032 0-0.064 0l-0.16 0 0 0-0.16 0c0 0 0 0 0 0l-0.64 0 0 0.032 0 0-0.16-0.064 0 0.064c0 0 0 0-0.032 0l0-0.064-0.128 0.096c0 0-0.032 0-0.032 0l0-0.096-0.128 0.128c0 0 0 0 0 0l-0.16-0.128 0 0.128c0 0 0 0 0 0l0-0.128-0.128 0.096c0 0-0.032 0-0.032 0l0-0.096-0.128 0.064 0 0 0-0.064-0.16 0.032-0.736 0-0.032 0-0.096 0-0.032 0-0.544 0c-0.032 0-0.096 0-0.128 0l-0.032 0c-0.032 0-0.096 0-0.128 0l-0.032 0 0 0-0.48 0c-0.032 0-0.096 0-0.128 0L760.32 627.904l-0.032 0-0.128 0c0 0 0 0 0 0l-0.8 0.128 0 0 0-0.064-0.128 0 0 0.096c0 0 0 0 0 0l-0.16-0.096 0 0.128c0 0 0 0-0.032 0l0-0.128-0.128 0.16 0 0 0-0.16-0.128 0 0 0.192c0 0 0 0-0.032 0l0-0.192-0.128 0c-0.352 0.032-0.704 0.032-1.088 0.064-50.24 4.256-92.32 41.792-102.72 90.72l-15.104 0c-6.976 0-12.64-5.664-12.64-12.64L627.072 359.936c0-6.976 5.664-12.64 12.64-12.64l152.704 0c2.464 1.216 10.304 5.856 26.528 21.664 1.216 1.184 2.4 2.368 3.648 3.584l-73.472 0c-33.248 0-60.288 27.04-60.288 60.288l0 72.928c0 33.248 27.04 60.288 60.288 60.288l176.672 0L925.792 706.24zM925.632 518.368l-176.672 0c-6.976 0-12.64-5.664-12.64-12.64l0-72.928c0-6.976 5.664-12.64 12.64-12.64l115.84 0c5.728 7.072 11.296 14.208 16.576 21.248 0.064 0.064 0.128 0.16 0.192 0.256 9.408 12.576 18.08 24.992 25.056 35.968l3.232-1.728-3.008 2.016 6.72-3.968 0 0-6.592 4.192 3.2 5.152c13.696 22.432 15.328 30.752 15.488 31.84L925.664 518.368z" p-id="5747" fill="#ffffff"></path></svg>