<?xml version="1.0" standalone="no"?><!DOCTYPE svg PUBLIC "-//W3C//DTD SVG 1.1//EN" "http://www.w3.org/Graphics/SVG/1.1/DTD/svg11.dtd"><svg t="1512029030546" class="icon" style="" viewBox="0 0 1024 1024" version="1.1" xmlns="http://www.w3.org/2000/svg" p-id="24753" xmlns:xlink="http://www.w3.org/1999/xlink" width="64" height="64"><defs><style type="text/css"></style></defs><path d="M245.791411 834.748466c-31.411043 0-56.539877-25.91411-56.539877-57.325153L189.251534 246.576687l-26.699387 18.846626 608.588957 0c39.263804 0 64.392638 25.91411 64.392638 57.325153l0 445.251534c0 10.208589 8.638037 18.846626 18.846626 18.846626 10.208589 0 18.846626-8.638037 18.846626-18.846626L873.226994 322.748466c0-52.613497-42.404908-95.018405-102.08589-95.018405L162.552147 227.730061c-2.355828 0-10.993865 8.638037-10.993865 18.846626L151.558282 777.423313c0 52.613497 42.404908 95.803681 94.233129 95.803681l523.779141 0c10.208589 0 18.846626-8.638037 18.846626-18.846626 0-10.208589-8.638037-18.846626-18.846626-18.846626L245.791411 835.533742 245.791411 834.748466zM350.233129 322.748466c0 10.208589 8.638037 18.846626 18.846626 18.846626 10.208589 0 18.846626-8.638037 18.846626-18.846626L387.92638 179.828221c0-10.208589-8.638037-18.846626-18.846626-18.846626-10.208589 0-18.846626 8.638037-18.846626 18.846626L350.233129 322.748466 350.233129 322.748466zM647.067485 313.325153c0 10.208589 8.638037 18.846626 18.846626 18.846626 10.208589 0 18.846626-8.638037 18.846626-18.846626L684.760736 170.404908c0-10.208589-8.638037-18.846626-18.846626-18.846626-10.208589 0-18.846626 8.638037-18.846626 18.846626L647.067485 313.325153 647.067485 313.325153zM387.92638 468.809816c10.208589 0 18.846626-8.638037 18.846626-18.846626 0-10.208589-8.638037-18.846626-18.846626-18.846626L284.269939 431.116564c-10.208589 0-18.846626 8.638037-18.846626 18.846626 0 10.208589 8.638037 18.846626 18.846626 18.846626L387.92638 468.809816 387.92638 468.809816zM563.828221 468.809816c10.208589 0 18.846626-8.638037 18.846626-18.846626 0-10.208589-8.638037-18.846626-18.846626-18.846626L460.171779 431.116564c-10.208589 0-18.846626 8.638037-18.846626 18.846626 0 10.208589 8.638037 18.846626 18.846626 18.846626L563.828221 468.809816 563.828221 468.809816zM751.509202 468.809816c10.208589 0 18.846626-8.638037 18.846626-18.846626 0-10.208589-8.638037-18.846626-18.846626-18.846626L648.638037 431.116564c-10.208589 0-18.846626 8.638037-18.846626 18.846626 0 10.208589 8.638037 18.846626 18.846626 18.846626L751.509202 468.809816 751.509202 468.809816zM387.92638 583.460123c10.208589 0 18.846626-8.638037 18.846626-18.846626 0-10.208589-8.638037-18.846626-18.846626-18.846626L284.269939 545.766871c-10.208589 0-18.846626 8.638037-18.846626 18.846626 0 10.208589 8.638037 18.846626 18.846626 18.846626L387.92638 583.460123 387.92638 583.460123zM563.828221 583.460123c10.208589 0 18.846626-8.638037 18.846626-18.846626 0-10.208589-8.638037-18.846626-18.846626-18.846626L460.171779 545.766871c-10.208589 0-18.846626 8.638037-18.846626 18.846626 0 10.208589 8.638037 18.846626 18.846626 18.846626L563.828221 583.460123 563.828221 583.460123zM751.509202 583.460123c10.208589 0 18.846626-8.638037 18.846626-18.846626 0-10.208589-8.638037-18.846626-18.846626-18.846626L648.638037 545.766871c-10.208589 0-18.846626 8.638037-18.846626 18.846626 0 10.208589 8.638037 18.846626 18.846626 18.846626L751.509202 583.460123 751.509202 583.460123zM387.92638 697.325153c10.208589 0 18.846626-8.638037 18.846626-18.846626 0-10.208589-8.638037-18.846626-18.846626-18.846626L284.269939 659.631902c-10.208589 0-18.846626 8.638037-18.846626 18.846626 0 10.208589 8.638037 18.846626 18.846626 18.846626L387.92638 697.325153 387.92638 697.325153zM563.828221 697.325153c10.208589 0 18.846626-8.638037 18.846626-18.846626 0-10.208589-8.638037-18.846626-18.846626-18.846626L460.171779 659.631902c-10.208589 0-18.846626 8.638037-18.846626 18.846626 0 10.208589 8.638037 18.846626 18.846626 18.846626L563.828221 697.325153 563.828221 697.325153zM751.509202 697.325153c10.208589 0 18.846626-8.638037 18.846626-18.846626 0-10.208589-8.638037-18.846626-18.846626-18.846626L648.638037 659.631902c-10.208589 0-18.846626 8.638037-18.846626 18.846626 0 10.208589 8.638037 18.846626 18.846626 18.846626L751.509202 697.325153 751.509202 697.325153zM751.509202 697.325153" fill="#4D638C" p-id="24754"></path></svg>