<?xml version="1.0" standalone="no"?><!DOCTYPE svg PUBLIC "-//W3C//DTD SVG 1.1//EN" "http://www.w3.org/Graphics/SVG/1.1/DTD/svg11.dtd"><svg t="1507717080004" class="icon" style="" viewBox="0 0 1024 1024" version="1.1" xmlns="http://www.w3.org/2000/svg" p-id="6491" xmlns:xlink="http://www.w3.org/1999/xlink" width="32" height="32"><defs><style type="text/css"></style></defs><path d="M942.08 151.552h-122.88v49.664c0 47.104-37.888 84.992-84.992 84.992-47.104 0-84.992-37.888-84.992-84.992v-49.664H374.272v49.664c0 47.104-37.888 84.992-84.992 84.992-47.104 0-84.992-37.888-84.992-84.992v-49.664H81.92c-26.624 0-48.128 21.504-48.128 48.128v752.64c0 26.624 21.504 48.128 48.128 48.128h860.16c26.624 0 48.128-21.504 48.128-48.128V199.68c-0.512-26.624-22.016-48.128-48.128-48.128z m-812.032 752.64v-547.84h763.904v547.84H130.048z" fill="#ffffff" p-id="6492"></path><path d="M383.488 592.384c9.728 0 18.432 4.096 25.088 10.24L465.92 660.48l140.288-140.288c6.656-6.656 15.36-10.24 25.088-10.24 19.456 0 35.328 15.872 35.328 35.328 0 9.728-4.096 18.432-10.24 25.088l-165.376 165.376c-6.656 6.656-15.36 10.24-25.088 10.24-9.728 0-18.432-4.096-25.088-10.24L358.4 652.8c-6.656-6.656-10.24-15.36-10.24-25.088 0-19.456 15.36-35.328 35.328-35.328z" fill="#ffffff" p-id="6493"></path><path d="M734.208 247.808c-26.624 0-48.128-21.504-48.128-48.128V71.68c0-26.624 21.504-48.128 48.128-48.128s48.128 21.504 48.128 48.128v128c0 26.624-21.504 48.128-48.128 48.128zM289.792 247.808c-26.624 0-48.128-21.504-48.128-48.128V71.68c0-26.624 21.504-48.128 48.128-48.128S337.92 45.056 337.92 71.68v128c0 26.624-21.504 48.128-48.128 48.128z" fill="#ffffff" p-id="6494"></path></svg>