<?xml version="1.0" standalone="no"?><!DOCTYPE svg PUBLIC "-//W3C//DTD SVG 1.1//EN" "http://www.w3.org/Graphics/SVG/1.1/DTD/svg11.dtd"><svg t="1512029272740" class="icon" style="" viewBox="0 0 1024 1024" version="1.1" xmlns="http://www.w3.org/2000/svg" p-id="27815" xmlns:xlink="http://www.w3.org/1999/xlink" width="64" height="64"><defs><style type="text/css"></style></defs><path d="M943.039595 613.595886c-33.69952-121.697713-105.863073-215.643362-218.690768-279.548834-12.963243-7.344269-26.671453-13.4575-40.052205-20.154016 0.084934-0.184195 0.149403-0.593518 0.399089-0.818645 2.245134-2.096754 4.539386-4.1536 6.797823-6.239098 23.218818-21.472034 44.072775-46.306652 54.962799-75.611072 5.28333-14.199397 6.589069-20.379143 10.255575-33.562397 6.827499-41.643446-1.01512-66.960041-26.593681-88.004333-34.561144-28.440749-73.779354-31.804357-115.196649-15.102976-2.876514 1.152243-4.790096 1.997494-7.653307-0.629333-53.319369-48.790216-138.916886-49.242518-192.603623-1.069355-2.501984 2.251274-4.313236 2.816139-7.569396 1.372254-21.781072-9.701966-44.553729-11.776208-67.921949-7.099698-44.299949 8.851599-80.933287 45.320185-74.43427 95.115288 5.644557 43.207058 22.946618 80.589456 52.77804 112.816438 6.125511 6.617721 12.631692 12.903891 19.22076 19.594267-1.64036 0.772596-3.26844 1.574868-4.925173 2.311649C179.42702 384.40088 76.491627 530.921955 64.43708 697.584766c-3.332908 46.087665-0.546446 91.723028 11.413957 136.913253 18.833951 71.184249 83.535555 124.513852 161.231101 124.341936 183.089945-0.409322 366.181937 0.041956 549.270858-0.232291 58.81964-0.081864 104.099916-25.63075 136.956232-72.152297 16.695241-23.645536 24.508183-50.502208 29.04757-78.628802C962.942901 742.398414 960.744839 677.531034 943.039595 613.595886zM890.601292 766.264984c-3.78214 24.6494-7.881504 50.507324-21.797445 71.229275-27.381627 40.776705-79.82607 63.163575-128.83425 63.243393-152.570861 0.239454-305.142745-0.159636-457.707466 0.199545-64.74663 0.149403-125.811404-35.82595-141.508921-98.215906-9.958816-39.617299-8.883321-89.163739-6.105045-129.555681 10.04989-146.066727 142.372591-283.813974 269.355681-342.924233 1.38351-0.64059-36.586267-33.887808-41.696658-39.689954-24.861224-28.246321-40.382733-51.124378-45.080731-88.9908-5.774517-46.481637 29.034267-60.202127 50.099025-64.632019 19.482727-4.099365 60.82532 16.652262 62.916958 14.674211 44.732807-42.222637 116.064412-41.822524 160.495344 0.938372 2.38942 2.298346 3.978614 1.566682 6.369058 0.548492 34.520211-14.634302 63.711044-23.655769 92.517113 1.27504 21.312398 18.442024 21.803585 32.138978 16.576537 61.104683-3.172249 12.021801-22.88215 44.149523-30.410614 54.108339-27.806299 36.797068-55.028291 60.280922-56.915267 62.116733-0.194428 0.194428 59.452044 28.160363 69.423139 35.746132 92.082208 70.062705 154.159032 124.245745 182.247764 230.90495C885.29238 654.383848 899.417075 708.921975 890.601292 766.264984z" p-id="27816" fill="#AF4034"></path><path d="M615.981724 678.308747l-18.707061 0-28.912493 0-28.071336 0 0-31.834033 28.031427 0c0.014326 0 0.026606 0.001023 0.039909 0.001023l47.619554 0c16.264429 0 29.448706-13.1853 29.448706-29.448706 0-16.265452-13.1853-29.449729-29.448706-29.449729l-18.707061 0-28.912493 0-28.071336 0 0-14.783705 59.019185-58.297754c0.543376-0.467651 1.079588-0.949628 1.596358-1.464351l15.855106-15.773242 4.010337-3.962242-0.014326-0.014326 13.906731-13.8351c11.529591-11.471262 11.577686-30.117948 0.106424-41.647539-11.471262-11.530614-30.117948-11.577686-41.647539-0.107447l-17.714454 17.624403-60.420091 59.684334-64.697511-63.908542-17.714454-17.624403c-11.530614-11.470239-30.176276-11.423167-41.647539 0.107447-11.472286 11.529591-11.423167 30.176276 0.106424 41.647539l13.906731 13.8351-0.014326 0.014326 4.010337 3.962242 15.855106 15.773242c0.51677 0.5137 1.051959 0.9967 1.596358 1.464351l55.003731 54.332443 0 22.974247-28.071336 0-27.451212 0-20.168342 0c-16.264429 0-29.448706 13.1853-29.448706 29.449729 0 16.264429 13.1853 29.448706 29.448706 29.448706l47.619554 0c0.013303 0 0.026606-0.001023 0.039909-0.001023l28.03245 0 0 31.834033-28.071336 0-27.451212 0-20.168342 0c-16.264429 0-29.448706 13.1853-29.448706 29.449729 0 16.264429 13.1853 29.448706 29.448706 29.448706l47.619554 0c0.013303 0 0.026606-0.001023 0.039909-0.001023l28.03245 0 0 19.193131 0 0.908696c0 16.264429 13.1853 29.448706 29.449729 29.448706 16.264429 0 29.448706-13.1853 29.448706-29.448706l0-20.101827 28.030403 0c0.014326 0 0.026606 0.001023 0.039909 0.001023l47.619554 0c16.264429 0 29.448706-13.1853 29.448706-29.448706C645.43043 691.493024 632.246153 678.308747 615.981724 678.308747z" p-id="27817" fill="#AF4034"></path></svg>