<?xml version="1.0" standalone="no"?><!DOCTYPE svg PUBLIC "-//W3C//DTD SVG 1.1//EN" "http://www.w3.org/Graphics/SVG/1.1/DTD/svg11.dtd"><svg t="1507717113816" class="icon" style="" viewBox="0 0 1024 1024" version="1.1" xmlns="http://www.w3.org/2000/svg" p-id="8014" xmlns:xlink="http://www.w3.org/1999/xlink" width="32" height="32"><defs><style type="text/css"></style></defs><path d="M713.448 758.757l-68.606 40.874c-4.38-2.92-10.221-2.92-16.052-2.92h-26.273c-21.892 0-39.414 17.512-39.414 39.413v26.273c0 20.432 17.512 39.414 39.414 39.414h26.273c16.052 0 27.733-8.761 35.033-20.432l89.039-51.085c10.221-5.84 10.221-24.813-1.46-45.254-10.221-21.903-29.202-32.114-37.954-26.283zM773.294 336.916c16.052 35.033 37.953 48.165 61.306 40.874 23.352-7.291 27.733-21.892 26.273-39.413l-1.46-5.84C815.619 192.412 681.335 88.773 523.69 88.773h-27.733c-194.138 0-353.243 159.105-353.243 354.703v21.892c-30.653 14.601-51.085 45.254-51.085 81.738v105.1c0 49.625 40.874 90.499 91.959 90.499 49.634 0 91.959-40.874 91.959-90.499v-105.1c0-36.493-20.432-67.146-52.545-81.738v-10.221c0-157.645 128.452-286.097 287.557-286.097 116.762-1.459 216.021 68.607 262.735 167.866zM878.385 463.908v-10.221h-2.92c1.46-4.38 2.92-8.761 2.92-13.132 0-20.432-17.512-39.413-39.414-39.413-21.901 0-39.413 17.512-39.413 39.413 0 4.38 1.46 8.761 2.92 13.132h-2.92v10.221c-30.653 16.061-52.545 46.714-52.545 81.738v105.1c0 49.625 40.874 90.499 91.959 90.499 49.625 0 91.959-40.874 91.959-90.499v-105.1c-1.452-35.033-21.893-67.146-52.546-81.738z" fill="#ffffff" p-id="8015"></path></svg>