<?xml version="1.0" standalone="no"?><!DOCTYPE svg PUBLIC "-//W3C//DTD SVG 1.1//EN" "http://www.w3.org/Graphics/SVG/1.1/DTD/svg11.dtd"><svg t="1512029770128" class="icon" style="" viewBox="0 0 1024 1024" version="1.1" xmlns="http://www.w3.org/2000/svg" p-id="29879" xmlns:xlink="http://www.w3.org/1999/xlink" width="64" height="64"><defs><style type="text/css"></style></defs><path d="M972.8 896H51.2C23.466667 896 0 872.533333 0 844.8V179.2C0 151.466667 23.466667 128 51.2 128H972.8C1000.533333 128 1024 151.466667 1024 179.2v665.6c0 27.733333-23.466667 51.2-51.2 51.2z m0-691.2c0-14.933333-10.666667-25.6-25.6-25.6H76.8c-14.933333 0-25.6 10.666667-25.6 25.6v614.4c0 14.933333 10.666667 25.6 25.6 25.6h870.4c14.933333 0 25.6-10.666667 25.6-25.6V204.8zM512 563.2c-155.733333 0-281.6-125.866667-281.6-281.6 0-14.933333 10.666667-25.6 25.6-25.6s25.6 10.666667 25.6 25.6C281.6 409.6 384 512 512 512s230.4-102.4 230.4-230.4c0-14.933333 10.666667-25.6 25.6-25.6s25.6 10.666667 25.6 25.6c0 155.733333-125.866667 281.6-281.6 281.6z" p-id="29880" fill="#725F5A"></path></svg>