<?xml version="1.0" standalone="no"?><!DOCTYPE svg PUBLIC "-//W3C//DTD SVG 1.1//EN" "http://www.w3.org/Graphics/SVG/1.1/DTD/svg11.dtd"><svg t="1507690655482" class="icon" style="" viewBox="0 0 1024 1024" version="1.1" xmlns="http://www.w3.org/2000/svg" p-id="2395" xmlns:xlink="http://www.w3.org/1999/xlink" width="32" height="32"><defs><style type="text/css"></style></defs><path d="M902.120107 834.013867z" p-id="2396" fill="#d81e06"></path><path d="M368.984747 691.002027L245.200213 655.496533l46.851414 174.578347c7.891627 29.590187 37.973333 46.851413 67.560106 38.959787 29.590187-7.891627 46.851413-37.973333 38.9632-67.56352l-29.590186-110.46912z m-159.290027-71.010987v-256.44032H89.36448c-40.441173 0-72.000853 34.02752-72.000853 74.46528v110.465707c0 40.43776 31.563093 71.50592 72.000853 71.50592h120.33024v0.003413z m724.933973-225.37216v189.863253c39.45472-11.83744 72.004267-49.810773 72.004267-94.685866 0-45.861547-32.549547-83.83488-72.004267-95.177387zM878.906027 182.0672c-2.46784 0-3.945813 0.498347-6.413654 0.986453l-633.207466 181.48352v257.426774l632.224426 181.97504c2.46784 0.494933 5.4272 0.986453 7.89504 0.986453 13.312 0 25.644373-10.850987 25.644374-24.65792V206.72512c-0.006827-14.301867-13.32224-24.65792-26.14272-24.65792z" p-id="2397" fill="#d81e06"></path></svg>