<?xml version="1.0" standalone="no"?><!DOCTYPE svg PUBLIC "-//W3C//DTD SVG 1.1//EN" "http://www.w3.org/Graphics/SVG/1.1/DTD/svg11.dtd"><svg t="1511491984179" class="icon" style="" viewBox="0 0 1024 1024" version="1.1" xmlns="http://www.w3.org/2000/svg" p-id="4585" xmlns:xlink="http://www.w3.org/1999/xlink" width="64" height="64"><defs><style type="text/css"></style></defs><path d="M822.5131053511111 605.1289577244445l145.83712426666665-333.5492414577778c3.461445404444444-7.926513208888889 2.6930119111111113-17.087177386666667-2.056143075555555-24.323263146666665-4.745662008888889-7.234921813333333-12.830518613333334-11.62081735111111-21.473071786666665-11.62081735111111L311.44863175111107 235.63563463111115l-19.561301333333336-91.24804039111112c-0.08033621333333334-0.3737383822222222-0.1909441422222222-0.7335048533333333-0.28758016-1.1002572800000001 0-0.02095672888888889 0.0034929777777777775-0.040750648888888893 0.0034929777777777775-0.06287132444444445 0-10.539187768888889-8.543588124444446-19.082777031111114-19.082777031111114-19.082777031111114-0.9023283200000001 0-1.7836987733333334 0.0838291911111111-2.652261262222222 0.20608-1.0117711644444445-0.12108686222222222-2.0340212622222222-0.20608-3.0749001955555553-0.20608L72.26308039111115 124.14168746666667l0 0.017464888888888887c-10.385501297777777 0.17697223111111113-18.752117191111108 8.63789624888889-18.752117191111108 19.065312142222222 0 10.540352853333333 8.543588124444446 19.082777031111114 19.082777031111114 19.082777031111114 0.3504526222222222 0 0.6915902577777778-0.03376469333333333 1.036222008888889-0.05239352888888888l182.05830712888888 0 116.76819797333333 541.5550020266667c-2.16209408 0.6228969244444443-3.8759344355555556 1.2760655644444445-5.220693333333333 1.9513560177777776-38.909537848888895 13.642031786666665-66.82115527111111 50.670069760000004-66.82115527111111 94.23678350222222 0 55.151437368888885 44.70888561777778 99.86148693333332 99.85915790222224 99.86148693333332 55.151437368888885 0 99.86148693333332-44.70888561777778 99.86148693333332-99.86148693333332 0-23.360392533333332-8.042942008888888-44.829971342222215-21.48238677333333-61.83914154666666l213.06578147555555 0c0.4866753422222222 0 0.9617066666666666-0.00931384888888889 1.4437239466666667-0.01164288-13.444101688888889 17.009169066666665-21.49170062222222 38.48573496888889-21.49170062222222 61.850784426666664 0 55.151437368888885 44.70655658666667 99.86148693333332 99.85915790222224 99.86148693333332 55.14910833777778 0 99.85915790222224-44.70888561777778 99.85915790222224-99.86148693333332 0-54.79516273777777-44.14071011555556-99.26303971555556-98.80081521777777-99.83121521777777-0.024449706666666668-0.02095672888888889-0.05472142222222222-0.02910776888888889-0.08848611555555556-0.02677873777777778L411.49873379555555 700.1399955911112c-0.07684323555555556-1.15497984-0.45523854222222226-2.2575661511111114-0.7090551466666666-3.4381596444444447l-16.42352981333333-76.17742051555554 404.6200695466667 0C809.1935835022223 620.5232514844445 818.4043121777778 614.4957019022222 822.5131053511111 605.1289577244445zM834.32020992 799.9979895466668c0 34.62377130666667-28.167761919999997 62.79502620444445-62.79269831111111 62.79502620444445s-62.79502620444445-28.17009095111111-62.79502620444445-62.79502620444445 28.17009095111111-62.79269831111111 62.79502620444445-62.79269831111111S834.32020992 765.3730542933333 834.32020992 799.9979895466668zM400.2726115555556 862.7918518044444c-34.62377130666667 0-62.79269831111111-28.17009095111111-62.79269831111111-62.79502620444445s28.168925866666665-62.79269831111111 62.79269831111111-62.79269831111111c34.62377130666667 0 62.79502620444445 28.167761919999997 62.79502620444445 62.79269831111111S434.896384 862.7918518044444 400.2726115555556 862.7918518044444zM385.31143566222227 582.3565334755556l-66.53124608-308.5553447822222 606.9429111466667 0L790.8128756622223 582.3565334755556 385.31143566222227 582.3565334755556z" fill="#B42E28" p-id="4586"></path></svg>