<?xml version="1.0" standalone="no"?><!DOCTYPE svg PUBLIC "-//W3C//DTD SVG 1.1//EN" "http://www.w3.org/Graphics/SVG/1.1/DTD/svg11.dtd"><svg t="1507714868117" class="icon" style="" viewBox="0 0 1024 1024" version="1.1" xmlns="http://www.w3.org/2000/svg" p-id="2395" xmlns:xlink="http://www.w3.org/1999/xlink" width="32" height="32"><defs><style type="text/css"></style></defs><path d="M510.146 1002.213c270.306 0 490.236-219.931 490.236-490.236 0-270.311-219.931-490.241-490.236-490.241-270.313 0-490.241 219.928-490.241 490.241C19.905 782.282 239.808 1002.213 510.146 1002.213zM510.146 62.698c247.726 0 449.276 201.553 449.276 449.281 0 247.723-201.551 449.274-449.276 449.274-247.728 0-449.281-201.551-449.281-449.274C60.865 264.248 262.418 62.698 510.146 62.698z" p-id="2396" fill="#d81e06"></path><path d="M221.831 273.128c12.84 0 25.648 0.035 38.488 0.035 17.845 0 35.653 0.03 53.498-0.035 1.968 0 3.003 0.505 3.902 2.235 40.325 77.235 80.713 154.44 121.07 231.676 0.798 1.512 1.633 2.047 3.433 2.047 66.24-0.065 132.475-0.065 198.71 0 1.735 0 2.57-0.535 3.44-1.888 36.485-60.003 73.04-119.945 109.565-179.915 0.295-0.502 0.66-1.005 1.13-1.762 16.915 8.43 33.75 16.857 50.595 25.255 0 0.125 0 0.252 0 0.377-0.4 0.532-0.835 1.04-1.165 1.605-36.56 60.095-73.115 120.19-109.695 180.293-11.575 18.99-29.255 28.395-52.225 28.43-70.815 0.155-141.62 0.06-212.428 0.025-1.967 0-3.035 0.505-4.035 2.14-7.97 13.24-16.075 26.42-24.083 39.63-3.333 5.5-0.297 9.18 3.938 10.34 1.133 0.315 2.403 0.25 3.635 0.25 110.198 0 220.358 0 330.553 0 0.9 0 1.805 0 2.835 0 0 17.485 0 34.885 0 52.525-0.7 0-1.405 0-2.065 0-115.2 0-230.366 0-345.561 0-26.182 0-49.365-16.415-55.868-39.695-3.668-13.17-1.9-25.785 5.27-37.64 12.708-20.975 25.515-41.92 38.29-62.86 0.698-1.165 0.83-2.015 0.165-3.305-34.188-65.163-68.338-130.35-102.493-195.513-0.5-0.975-0.9-1.76-2.435-1.76-18.478 0.062-36.955 0.03-55.398 0.062-0.333 0-0.632 0.03-0.968 0.06C221.831 308.193 221.831 290.681 221.831 273.128zM569.326 246.998c0 25.945 0 51.888 0 77.833 0 0.188 0.065 0.35 0.135 0.787 28.845 0 57.7 0 86.68 0 0 17.548 0 34.81 0 52.328-28.88 0-57.73 0-86.78 0 0 26.355 0 52.425 0 78.655-19.375 0-38.59 0-57.97 0 0-26.135 0-52.235 0-78.495-28.945 0-57.728 0-86.648 0 0-17.485 0-34.812 0-52.36 28.75 0 57.535 0 86.453 0 0.065-0.695 0.165-1.165 0.165-1.637 0-25.347 0-50.663 0-76.01 0-0.345-0.065-0.722-0.1-1.067C530.606 246.998 549.946 246.998 569.326 246.998zM680.152 797.432c-3.765-0.72-7.595-1.105-11.24-2.17-22.875-6.82-37.085-21.13-40.915-43.71-3.435-20.165 8.005-40.915 27.75-51.635 30.145-16.355 69.54-4.315 83.045 25.37 11.11 24.44 0.065 52.68-25.615 65.575-6.805 3.425-14.045 5.5-21.71 6.255-0.43 0.035-0.835 0.225-1.265 0.315C686.827 797.432 683.492 797.432 680.152 797.432zM390.759 797.432c-3.868-0.72-7.838-1.225-11.638-2.2-21.28-5.505-37.988-23.235-40.658-42.955-2.9-21.415 7.67-41.39 27.55-52.27 30.718-16.795 70.905-4 83.778 26.64 9.943 23.645-0.6 50.56-24.878 63.515-7.172 3.84-14.843 6.165-23.047 6.955-0.5 0.065-1 0.225-1.468 0.315C397.198 797.432 393.996 797.432 390.759 797.432z" p-id="2397" fill="#d81e06"></path></svg>