<?xml version="1.0" standalone="no"?><!DOCTYPE svg PUBLIC "-//W3C//DTD SVG 1.1//EN" "http://www.w3.org/Graphics/SVG/1.1/DTD/svg11.dtd"><svg t="1510739108164" class="icon" style="" viewBox="0 0 1025 1024" version="1.1" xmlns="http://www.w3.org/2000/svg" p-id="2166" xmlns:xlink="http://www.w3.org/1999/xlink" width="32.03125" height="32"><defs><style type="text/css"></style></defs><path d="M874.048 149.957486c-199.957943-199.943314-524.127086-199.943314-724.085029 0s-199.943314 524.127086 0 724.085029c199.943314 199.943314 524.127086 199.943314 724.085029 0C1073.991314 674.084571 1073.991314 349.915429 874.048 149.957486zM170.6624 853.357714c-188.225829-188.225829-188.225829-494.4896 0-682.7008s494.474971-188.225829 682.7008 0c188.2112 188.225829 188.2112 494.474971 0 682.7008C665.137371 1041.568914 358.8736 1041.568914 170.6624 853.357714z" p-id="2167" fill="#ffffff"></path><path d="M729.239771 315.465143 708.540343 294.780343 512.005486 491.3152 315.470629 294.780343 294.785829 315.465143 491.320686 512 294.785829 708.534857 315.470629 729.234286 512.005486 532.6848 708.540343 729.234286 729.239771 708.534857 532.690286 512Z" p-id="2168" fill="#ffffff"></path></svg>