<?xml version="1.0" standalone="no"?><!DOCTYPE svg PUBLIC "-//W3C//DTD SVG 1.1//EN" "http://www.w3.org/Graphics/SVG/1.1/DTD/svg11.dtd"><svg t="1512026240630" class="icon" style="" viewBox="0 0 1024 1024" version="1.1" xmlns="http://www.w3.org/2000/svg" p-id="50729" xmlns:xlink="http://www.w3.org/1999/xlink" width="64" height="64"><defs><style type="text/css"></style></defs><path d="M850.37890625 463.66015625h-48.33984375c-26.67323521205357 0-48.33984375 21.666608537946427-48.33984375 48.33984375 0 133.27985491071428-108.41936383928571 241.69921875-241.69921875 241.69921875S270.30078125 645.2798549107142 270.30078125 512s108.41936383928571-241.69921875 241.69921875-241.69921875c19.767543247767858 0 36.686488560267854-11.998639787946429 44.19642857142857-29.00390625h190.25181361607142c3.9707728794642856 0 7.2509765625-3.280203683035714 7.2509765625-7.2509765625 0-3.9707728794642856-3.280203683035714-7.2509765625-7.2509765625-7.2509765625H559.3903111049107c0.17264229910714285-1.640101841517857 0.9495326450892857-3.107561383928571 0.9495326450892857-4.833984375v-16.9189453125h186.1083984375c3.9707728794642856 0 7.2509765625-3.280203683035714 7.2509765625-7.2509765625 0-3.9707728794642856-3.280203683035714-7.2509765625-7.2509765625-7.2509765625H560.33984375V173.62109375c0-1.7264229910714284-0.7768903459821428-3.193882533482143-0.9495326450892857-4.833984375h187.05793108258928c3.9707728794642856 0 7.2509765625-3.280203683035714 7.2509765625-7.2509765625 0-3.9707728794642856-3.280203683035714-7.2509765625-7.2509765625-7.2509765625H556.1964285714286C548.6864885602679 137.27988978794644 531.7675432477679 125.28125 512 125.28125 298.44147600446433 125.28125 125.28125 298.44147600446433 125.28125 512s173.16022600446428 386.71875 386.71875 386.71875 386.71875-173.16022600446428 386.71875-386.71875c0-26.67323521205357-21.666608537946427-48.33984375-48.33984375-48.33984375zM512 850.37890625c-186.54000418526786 0-338.37890625-151.83890206473214-338.37890625-338.37890625s151.83890206473214-338.37890625 338.37890625-338.37890625v48.33984375c-160.21205357142856 0-290.0390625 129.82700892857142-290.0390625 290.0390625s129.82700892857142 290.0390625 290.0390625 290.0390625 290.0390625-129.82700892857142 290.0390625-290.0390625h48.33984375c0 186.54000418526786-151.83890206473214 338.37890625-338.37890625 338.37890625z" p-id="50730" fill="#ffffff"></path></svg>