<?xml version="1.0" standalone="no"?><!DOCTYPE svg PUBLIC "-//W3C//DTD SVG 1.1//EN" "http://www.w3.org/Graphics/SVG/1.1/DTD/svg11.dtd"><svg t="1508233400881" class="icon" style="" viewBox="0 0 1024 1024" version="1.1" xmlns="http://www.w3.org/2000/svg" p-id="3893" xmlns:xlink="http://www.w3.org/1999/xlink" width="32" height="32"><defs><style type="text/css"></style></defs><path d="M831.792 82.405H191.55c-60.677 0-110.043 49.364-110.043 110.042v640.246c0 60.678 49.365 110.042 110.043 110.042h640.244c60.678 0 110.043-49.364 110.043-110.042V192.447c-0.001-60.678-49.366-110.042-110.044-110.042zM191.55 122.42h640.244c38.613 0 70.027 31.415 70.027 70.027v134.35c-144.76 4.954-280.061 63.592-382.865 166.397-48.28 48.28-86.814 103.732-114.628 163.962-80.589-68.745-197.639-73.052-282.804-12.939v-451.77c-0.001-38.612 31.412-70.027 70.026-70.027z m-70.027 710.272V696.09c74.04-72.026 192.53-71.925 266.451 0.302-23.496 62.998-35.762 130.383-35.762 199.672 0 2.336 0.42 4.57 1.157 6.653h-161.82c-38.613 0-70.026-31.414-70.026-70.026z m710.27 70.027H391.07a19.934 19.934 0 0 0 1.157-6.653c0-141.581 55.055-274.608 155.024-374.578 95.245-95.245 220.5-149.72 354.57-154.655v465.86c0 38.611-31.415 70.026-70.028 70.026z m-482.32-425.186c75.047 0 136.102-61.055 136.102-136.102S424.52 205.328 349.471 205.328 213.37 266.384 213.37 341.431s61.055 136.102 136.102 136.102z m0-232.19c52.982 0 96.087 43.106 96.087 96.088 0 52.983-43.105 96.088-96.088 96.088-52.982 0-96.087-43.105-96.087-96.088 0-52.982 43.105-96.087 96.087-96.087z" fill="#5b595a" p-id="3894"></path></svg>