<?xml version="1.0" standalone="no"?><!DOCTYPE svg PUBLIC "-//W3C//DTD SVG 1.1//EN" "http://www.w3.org/Graphics/SVG/1.1/DTD/svg11.dtd"><svg t="1506764053968" class="icon" style="" viewBox="0 0 1093 1024" version="1.1" xmlns="http://www.w3.org/2000/svg" p-id="4128" xmlns:xlink="http://www.w3.org/1999/xlink" width="68.3125" height="64"><defs><style type="text/css"></style></defs><path d="M592.18465 323.299838l0 506.989864-80.866149 0L511.318502 323.299838l-100.262641 0-42.043208 0-42.043208 0-121.291734 0L205.67771 255.374669l305.65577 0 0-93.792151 80.866149 0 0 93.792151 304.038147 0 0 67.925169-119.674112 0-42.043208 0-42.043208 0L592.18465 323.299838zM642.196147 354.753609l82.483771 0 18.557725 64.64499 173.519973 395.913116L834.273846 815.311715 661.023476 420.372168 642.196147 354.753609z" p-id="4129"></path><path d="M442.329896 420.372168 269.094505 815.311715 186.610733 815.311715 360.130706 419.398599 378.688432 354.753609 461.157225 354.753609Z" p-id="4130"></path></svg>