<?xml version="1.0" standalone="no"?><!DOCTYPE svg PUBLIC "-//W3C//DTD SVG 1.1//EN" "http://www.w3.org/Graphics/SVG/1.1/DTD/svg11.dtd"><svg t="1506763984579" class="icon" style="" viewBox="0 0 1024 1024" version="1.1" xmlns="http://www.w3.org/2000/svg" p-id="2393" xmlns:xlink="http://www.w3.org/1999/xlink" width="64" height="64"><defs><style type="text/css"></style></defs><path d="M531.328 72.505c-11.07-10.507-29.005-10.507-40.076 0C476.75 86.268 135.863 412.072 135.863 603.19c0 196.689 168.415 356.708 375.437 356.708 207.004 0 375.401-160.018 375.401-356.708 0-191.118-340.87-516.922-355.373-530.685zM511.3 906.015c-175.758 0-318.73-135.855-318.73-302.826 0-131.114 213.962-369.639 318.73-473.14 104.75 103.501 318.712 342.026 318.712 473.14 0 166.972-142.99 302.826-318.712 302.826z" fill="#63B44B" p-id="2394"></path><path d="M728.768 589.144c-15.568-1.787-29.593 8.968-31.355 23.721-10.152 85.016-72.514 155.614-158.87 179.831-15.016 4.21-23.59 19.21-19.147 33.468 3.635 11.71 14.944 19.317 27.17 19.317 2.662 0 5.36-0.354 8.041-1.097 108.257-30.373 186.424-118.873 199.147-225.452 1.761-14.77-9.418-28.108-24.986-29.788z" fill="#63B44B" p-id="2395"></path></svg>