<?xml version="1.0" standalone="no"?><!DOCTYPE svg PUBLIC "-//W3C//DTD SVG 1.1//EN" "http://www.w3.org/Graphics/SVG/1.1/DTD/svg11.dtd"><svg t="1512026298687" class="icon" style="" viewBox="0 0 1024 1024" version="1.1" xmlns="http://www.w3.org/2000/svg" p-id="52603" xmlns:xlink="http://www.w3.org/1999/xlink" width="64" height="64"><defs><style type="text/css"></style></defs><path d="M399.106048 334.9504c0 23.018496-8.963072 44.65664-25.238528 60.93312-5.06368 5.06368-5.06368 13.274112 0 18.338816a12.929024 12.929024 0 0 0 9.16992 3.798016c3.31776 0 6.637568-1.266688 9.168896-3.798016 21.175296-21.173248 32.836608-49.327104 32.836608-79.271936 0-29.945856-11.662336-58.097664-32.836608-79.273984-33.596416-33.59744-33.596416-88.266752 0-121.864192 5.065728-5.064704 5.065728-13.27616 0-18.33984-5.062656-5.064704-13.273088-5.064704-18.338816 0-21.174272 21.175296-32.835584 49.32608-32.835584 79.271936 0 29.944832 11.662336 58.098688 32.835584 79.271936 16.275456 16.277504 25.238528 37.917696 25.238528 60.934144zM530.774016 334.9504c0 23.018496-8.964096 44.65664-25.238528 60.93312-5.064704 5.06368-5.064704 13.274112 0 18.338816a12.92288 12.92288 0 0 0 9.16992 3.798016c3.31776 0 6.637568-1.266688 9.170944-3.798016 21.173248-21.173248 32.83456-49.327104 32.83456-79.271936 0-29.945856-11.660288-58.097664-32.83456-79.273984-33.599488-33.59744-33.599488-88.266752 0-121.864192 5.061632-5.064704 5.061632-13.27616 0-18.33984-5.067776-5.064704-13.27616-5.064704-18.340864 0-21.175296 21.175296-32.83456 49.32608-32.83456 79.271936 0 29.944832 11.660288 58.098688 32.83456 79.271936 16.274432 16.277504 25.238528 37.917696 25.238528 60.934144zM631.793664 395.88352c-5.06368 5.064704-5.06368 13.27616 0 18.338816a12.929024 12.929024 0 0 0 9.16992 3.798016 12.93312 12.93312 0 0 0 9.170944-3.798016c21.174272-21.174272 32.835584-49.327104 32.835584-79.27296 0-29.945856-11.662336-58.097664-32.835584-79.27296-16.27648-16.275456-25.238528-37.9136-25.238528-60.932096 0-23.017472 8.963072-44.65664 25.238528-60.932096 5.06368-5.064704 5.06368-13.275136 0-18.33984-5.064704-5.06368-13.27616-5.06368-18.33984 0-21.174272 21.175296-32.836608 49.327104-32.836608 79.27296 0 29.943808 11.662336 58.097664 32.836608 79.271936 33.596416 33.599488 33.596416 88.267776-0.001024 121.86624zM996.11136 638.83264h-0.357376v-0.004096a181.275648 181.275648 0 0 0-3.032064-32.606208 178.475008 178.475008 0 0 0-6.242304-24.09472 176.492544 176.492544 0 0 0-7.134208-17.923072 173.50656 173.50656 0 0 0-8.936448-16.800768 170.944512 170.944512 0 0 0-10.604544-15.54432c-0.149504-0.198656-0.303104-0.390144-0.454656-0.5888l0.649216 0.047104a169.218048 169.218048 0 0 0-13.949952-16.017408 170.401792 170.401792 0 0 0-5.740544-5.532672 167.251968 167.251968 0 0 0-8.638464-7.399424 157.852672 157.852672 0 0 0-2.701312-2.107392 173.340672 173.340672 0 0 0-2.742272-2.049024 166.238208 166.238208 0 0 0-5.342208-3.740672 165.757952 165.757952 0 0 0-5.216256-3.352576c-0.88064-0.540672-1.7664-1.074176-2.656256-1.599488a169.39008 169.39008 0 0 0-5.064704-2.857984 157.528064 157.528064 0 0 0-15.372288-7.24992 162.987008 162.987008 0 0 0-5.12512-1.975296 158.902272 158.902272 0 0 0-7.81824-2.617344 152.020992 152.020992 0 0 0-7.962624-2.194432h-0.00512c-0.909312-0.224256-1.8176-0.44032-2.73408-0.646144a148.79744 148.79744 0 0 0-12.96896-2.356224 151.013376 151.013376 0 0 0-4.697088-0.56832L260.02432 484.680704a177.317888 177.317888 0 0 0-40.1152-3.960832c-26.822656 0.410624-52.27008 6.807552-75.329536 17.985536-22.949888 11.126784-43.55584 27.001856-60.822528 46.455808-17.206272 19.38432-31.121408 42.348544-40.7552 67.760128-9.617408 25.362432-14.98624 53.204992-15.112192 82.432-0.128 29.228032 4.996096 57.13408 14.390272 82.608128 9.408512 25.521152 23.117824 48.647168 40.152064 68.23424 17.089536 19.653632 37.55008 35.770368 60.39552 47.17056 22.949888 11.451392 48.334848 18.153472 75.144192 18.888704 14.902272 0.4096 29.462528-1.053696 43.501568-4.189184l590.62784-98.569216a151.467008 151.467008 0 0 0 23.943168-4.614144 153.162752 153.162752 0 0 0 22.638592-8.262656 157.077504 157.077504 0 0 0 21.035008-11.634688 161.995776 161.995776 0 0 0 19.121152-14.727168 161.589248 161.589248 0 0 0 3.489792-3.217408 160.031744 160.031744 0 0 0 3.401728-3.32288 163.49184 163.49184 0 0 0 6.534144-6.951936 173.84448 173.84448 0 0 0 5.004288-5.907456 171.056128 171.056128 0 0 0 4.75136-6.15424c0.669696-0.912384 1.333248-1.830912 1.984512-2.757632a164.752384 164.752384 0 0 0 3.820544-5.649408c0.618496-0.955392 1.2288-1.918976 1.830912-2.888704a175.80032 175.80032 0 0 0 7.596032-13.579264c0.447488-0.891904 0.886784-1.785856 1.316864-2.686976 0.436224-0.90112 0.86016-1.805312 1.277952-2.7136a178.643968 178.643968 0 0 0 3.489792-8.127488c0.36352-0.904192 0.718848-1.813504 1.065984-2.727936a176.45056 176.45056 0 0 0 2.909184-8.247296 188.623872 188.623872 0 0 0 1.714176-5.581824 192.141312 192.141312 0 0 0 1.540096-5.68832 186.63936 186.63936 0 0 0 1.36192-5.767168c0.217088-0.990208 0.425984-1.983488 0.62464-2.97984a168.67328 168.67328 0 0 0 1.102848-6.019072c0.167936-1.00864 0.326656-2.0224 0.477184-3.037184l-0.370688 0.007168c0.007168-0.058368 0.018432-0.116736 0.0256-0.175104 0.154624-1.061888 0.3072-2.125824 0.446464-3.19488a190.22848 190.22848 0 0 0 0.718848-6.433792c0.099328-1.047552 0.188416-2.097152 0.26624-3.150848l0.364544-0.004096c0.079872-1.077248 0.151552-2.156544 0.21504-3.239936 0.064512-1.081344 0.116736-2.167808 0.15872-3.255296 0.044032-1.086464 0.080896-2.178048 0.104448-3.270656 0.026624-1.092608 0.04096-2.188288 0.04608-3.284992v-0.355328c0.002048-0.119808 0.002048-0.238592 0.002048-0.357376v-0.355328a7.91552 7.91552 0 0 0 0.001024-0.349184zM374.248448 770.305024c-8.77568 22.254592-21.38624 42.182656-36.89472 58.785792-15.463424 16.55296-33.777664 29.782016-54.019072 38.723584-20.158464 8.904704-42.205184 13.54752-65.221632 12.987392-22.912-0.557056-44.616704-6.219776-64.258048-15.95392-19.565568-9.696256-37.097472-23.43936-51.74784-40.223744-14.609408-16.73728-26.374144-36.516864-34.453504-58.359808-8.062976-21.809152-12.464128-45.707264-12.353536-70.740992 0.10752-25.033728 4.719616-48.877568 12.976128-70.588416 8.2688-21.747712 20.209664-41.388032 34.966528-57.951232 14.802944-16.611328 32.459776-30.147584 52.113408-39.610368 19.73248-9.498624 41.491456-14.900224 64.41472-15.178752 23.02464-0.2816 45.034496 4.630528 65.115136 13.785088 20.16256 9.1904 38.36416 22.647808 53.67296 39.392256 15.358976 16.795648 27.790336 36.87936 36.36224 59.242496 8.583168 22.401024 13.280256 47.054848 13.160448 72.926208-0.121856 25.875456-5.044224 50.470912-13.833216 72.764416zM983.20384 655.356928a168.38656 168.38656 0 0 1-1.087488 9.004032c-0.10752 0.718848-0.224256 1.439744-0.339968 2.158592L415.1296 730.436608a238.782464 238.782464 0 0 0 1.748992-16.311296l566.48704-60.669952c-0.0512 0.63488-0.101376 1.268736-0.161792 1.901568z m-565.704704 40.541184c-0.083968-29.710336-5.577728-58.022912-15.478784-83.781632-7.179264-18.67776-16.667648-35.980288-28.048384-51.50208l569.071616-30.497792c0.379904 0.43008 0.770048 0.843776 1.14688 1.278976a162.644992 162.644992 0 0 1 3.181568 3.766272 159.840256 159.840256 0 0 1 12.937216 18.348032 161.634304 161.634304 0 0 1 8.326144 15.65696 163.373056 163.373056 0 0 1 6.651904 16.7168 165.615616 165.615616 0 0 1 6.66624 27.398144c0.253952 1.642496 0.487424 3.295232 0.6912 4.95616 0.206848 1.65888 0.390144 3.328 0.550912 5.00224 0.119808 1.283072 0.227328 2.571264 0.318464 3.874816a170.719232 170.719232 0 0 1 0.438272 11.747328l-566.453248 57.035776z" p-id="52604" fill="#ffffff"></path><path d="M312.301568 594.154496c-11.921408-13.108224-26.105856-23.665664-41.832448-30.902272-15.676416-7.215104-32.873472-11.123712-50.881536-10.975232-17.943552 0.14848-34.997248 4.31104-50.47296 11.695104-15.430656 7.361536-29.30176 17.93024-40.93952 30.925824-11.611136 12.966912-21.008384 28.35968-27.522048 45.420544-6.505472 17.03936-10.138624 35.759104-10.225664 55.417856-0.086016 19.659776 3.383296 38.423552 9.735168 55.539712 6.363136 17.13664 15.624192 32.643072 27.117568 45.746176 11.52 13.133824 25.2928 23.866368 40.654848 31.4112 15.407104 7.571456 32.420864 11.938816 50.359296 12.30336 18.000896 0.367616 35.229696-3.332096 50.967552-10.353664 15.78496-7.042048 30.061568-17.422336 42.103808-30.384128 12.06784-12.990464 21.878784-28.55936 28.699648-45.930496 6.83008-17.396736 10.653696-36.578304 10.74688-56.752128 0.093184-20.171776-3.556352-39.399424-10.226688-56.876032-6.664192-17.455104-16.3328-33.14688-28.283904-46.285824z m-1.03936 146.226176c-5.184512 13.248512-12.6464 25.132032-21.82656 35.058688-9.165824 9.908224-20.040704 17.859584-32.0768 23.269376-12.005376 5.397504-25.156608 8.2688-38.912 8.034304-13.71648-0.233472-26.734592-3.529728-38.536192-9.283584-11.77088-5.73952-22.336512-13.927424-31.176704-23.9616-8.82688-10.017792-15.940608-21.885952-20.829184-35.011584-4.885504-13.114368-7.553024-27.496448-7.484416-42.569728 0.064512-15.070208 2.859008-29.418496 7.861248-42.472448 5.005312-13.06624 12.223488-24.846336 21.14048-34.757632 8.932352-9.929728 19.56864-17.988608 31.392768-23.586816 11.8528-5.610496 24.901632-8.751104 38.622208-8.817664 13.760512-0.065536 26.888192 2.962432 38.844416 8.50944 11.98592 5.557248 22.792192 13.641728 31.86688 23.661568 9.091072 10.039296 16.446464 22.012928 21.508096 35.324928 5.070848 13.324288 7.841792 27.977728 7.77216 43.347968-0.072704 15.373312-2.978816 29.991936-8.1664 43.254784z" p-id="52605" fill="#ffffff"></path></svg>