<?xml version="1.0" standalone="no"?><!DOCTYPE svg PUBLIC "-//W3C//DTD SVG 1.1//EN" "http://www.w3.org/Graphics/SVG/1.1/DTD/svg11.dtd"><svg t="1506764072918" class="icon" style="" viewBox="0 0 1024 1024" version="1.1" xmlns="http://www.w3.org/2000/svg" p-id="5154" xmlns:xlink="http://www.w3.org/1999/xlink" width="64" height="64"><defs><style type="text/css"></style></defs><path d="M866.208742 230.986815l-1.357927 1.369184-69.179592 69.169359c-38.877449 38.888705-127.508046 97.66946-128.634706 98.575086l-0.893346 0.442068-6.116301-6.093788-2.029216-1.810229-26.681686-26.449395-1.799996-2.273786-6.115278-6.093788 0.684592-1.12666c0.684592-0.904603 59.234079-89.522919 98.343819-128.423905l68.495-68.716035c2.494821-2.041496 1.811252-1.810229 1.811252-1.810229 0.451278-0.232291 4.073782-3.609201 10.851139-3.609201 11.072173 0 25.544793 8.356318 41.152259 23.732517l0.89437 0.905626c15.609513 15.818267 24.197098 30.510898 24.197098 41.593304C869.830223 226.471988 867.113345 229.860155 866.208742 230.986815zM877.058858 148.020218l-0.672312-0.673335c-24.870434-24.870434-49.288566-37.299511-72.801073-37.299511-24.638143 0-39.110763 13.555737-42.277896 16.95516l-0.89437 1.12666-69.189825 69.179592c-42.035372 41.824571-101.269451 131.348514-103.763249 134.969994-16.956184 24.859177-6.325056 47.467081 5.650697 57.423851l3.400446 3.377934 1.810229 2.041496 25.542746 25.775037L516.479523 528.281825c-4.071735 4.29277-6.567579 9.713222-6.567579 15.597233 0 5.882987 2.494821 11.534707 6.567579 15.597233l129.529075 129.771599L248.128729 865.800955c-26.460652 9.05319-46.803979 3.169179-70.306252-19.891026-23.060205-23.512507-28.943193-43.855834-19.892049-70.305229l176.553065-398.111137 114.626667 114.615411-67.601654 67.589374c-23.060205 22.838148-23.280216 59.918671-0.673335 82.525552 4.28356 4.513804 9.934257 6.557346 15.587 6.557346 5.65172 0 11.30344-2.043542 15.608489-6.337335 8.588609-8.588609 8.588609-22.606881 0-31.194466-5.430686-5.430686-5.199419-14.702863 0.453325-20.355607l163.450652-164.345022-31.195489-31.194466-65.106834 65.10581-136.560212-136.76999c-5.199419-5.209652-12.429077-7.240915-19.671015-6.115278-7.230682 1.356904-13.103436 6.115278-16.039301 12.661368L117.451504 758.648516l-0.452301 1.578961c-15.144932 42.49893-5.41943 80.7143 29.396517 116.204605l0.673335 0.673335 0.232291 0.451278c24.638143 24.186865 50.635237 36.394908 78.452793 36.394908 12.19781 0 24.859177-2.251274 37.741579-6.998391l1.589195-0.463558 428.180989-190.120059c6.557346-2.935865 11.304464-9.04091 12.661368-16.050558 1.346671-7.229658-0.903579-14.47262-6.104021-19.672038L563.040978 543.879058l99.018178-99.028411 3.168156 0.233314c9.04091 0 17.872043-2.936889 26.228361-8.588609 3.841491-2.484587 93.143377-61.718667 135.191028-103.775528l69.179592-69.168336 0.453325-0.232291c4.062526-3.841491 17.176195-18.313088 17.628496-42.046628C914.138358 197.760063 901.931339 172.889629 877.058858 148.020218z" p-id="5155" fill="#13227a"></path></svg>