<?xml version="1.0" standalone="no"?><!DOCTYPE svg PUBLIC "-//W3C//DTD SVG 1.1//EN" "http://www.w3.org/Graphics/SVG/1.1/DTD/svg11.dtd"><svg t="1512026340388" class="icon" style="" viewBox="0 0 1024 1024" version="1.1" xmlns="http://www.w3.org/2000/svg" p-id="54113" xmlns:xlink="http://www.w3.org/1999/xlink" width="64" height="64"><defs><style type="text/css"></style></defs><path d="M928.113651 310.695205l0-2.368954c0-5.650697-1.566682-10.992355-4.318352-15.742543-1.356904-81.364099-46.660716-153.203264-114.563222-203.094558C740.118999 38.584784 646.922411 8.260128 544.586674 8.18645 442.273451 8.260128 349.103468 38.584784 279.940249 89.488127c-67.86669 49.904597-113.181759 121.755018-114.526383 203.131397-2.726088 4.774747-4.330632 10.166547-4.330632 15.705704l0 4.021593-0.024559 0 0 517.964852c0 6.043646 1.788739 12.015661 5.03262 17.074887 17.050328 49.54644 66.449411 80.19139 128.394229 103.854323 67.38676 24.774243 154.450674 39.183418 250.074545 39.282678 95.67606-0.099261 182.77579-14.508435 250.16255-39.282678 61.894675-23.662933 111.281479-54.283324 128.35739-103.829763 3.267417-5.057179 5.057179-11.029194 5.057179-17.099447L928.137187 312.347844C928.13821 311.779909 928.13821 311.237557 928.113651 310.695205zM568.952618 582.175269c2.713808 30.916127 3.911076 57.751309 3.911076 80.919984 0.085958 68.545142-10.894118 104.990193-21.491477 122.026194-10.894118 16.739243-18.641569 16.692171-24.169469 17.20894-1.775436 0-3.281743-0.222057-4.168949-0.444115-0.345877-0.062422-0.618077-0.1361-0.729617-0.171915 0-0.014326-0.01228-0.025583-0.01228-0.025583l-0.023536 0 0 0.050142-4.319375-1.086751c-3.997034-0.049119-11.632945-5.366218-19.24532-21.762653-23.045879-48.250934-27.018354-159.473061-26.63666-202.406896 0-11.594059 0.209778-18.331507 0.209778-18.331507l-0.073678-2.245134c-0.912789-9.42465-2.295276-22.576181-7.783267-35.727713-4.848425-12.755512-17.901719-28.40084-38.282908-29.609365-0.938372-0.1361-2.270716-0.1361-3.145643-0.1361-20.714787 0.430812-34.162054 12.583596-44.537356 22.565948-10.203386 10.338463-19.024286 20.797675-23.871687 24.00881-9.821693 7.216355-21.701255 12.534478-29.462009 12.273535-2.972705 0-5.429663-0.518816-7.982812-1.727341-10.769274-3.5038-25.254174-32.55751-30.656207-52.754504-6.921643-21.751397-10.215666-48.214095-21.751397-74.67884-3.491521-7.92039-7.254218-15.71696-11.004635-23.502273 67.459415 30.892591 171.893952 48.745191 290.862507 49.164746 97.734952-0.049119 186.179306-12.758582 251.79063-34.039257 8.351202-2.727111 16.321734-5.601578 23.920806-8.598842-9.79304 19.677155-15.951297 40.675398-20.193925 59.650565-7.105838 32.730449-8.080026 60.182684-8.228405 65.819055-2.110057 29.633924-8.378831 62.525032-23.3805 82.708723-8.043187 11.42419-23.352871 20.071128-33.903158 19.689435-6.315846-0.172939-11.078313-1.727341-16.778128-7.696286-5.54018-5.54018-8.563026-17.815761-8.612145-31.361265-0.518816-37.012985-8.510838-61.698201-22.405289-77.959559-13.868869-16.396435-32.596396-20.935822-45.350884-20.714787-9.562796 0.037862-16.654308 1.976004-19.888979 3.035126-22.947641 6.04467-37.925774 21.738094-44.880163 37.011962-7.18361 15.259542-8.217149 29.829376-8.267291 38.997176C568.409243 577.598021 568.829821 581.151963 568.952618 582.175269zM860.751451 313.741587l4.219091 0 0 18.296715c-2.922563 3.367701-6.637164 6.931876-11.510148 10.683317-45.24139 35.814694-167.626765 65.659419-308.874743 65.141626-94.318132 0.035816-179.729407-12.547781-240.020562-32.175817-30.091342-9.734712-53.877071-21.367657-68.805062-32.964786-4.885264-3.762697-8.586562-7.315616-11.511171-10.683317l0-18.296715 4.220115 0c-0.271176-1.468444 1.257643-8.303106 14.95255-18.937305 19.826558-15.569604 60.785411-32.56979 113.502054-43.944861 52.850695-11.634991 117.733425-18.60473 187.661054-18.60473 93.207845-0.036839 177.618327 12.509918 236.147348 31.583323 29.188786 9.42465 51.853995 20.701484 65.043389 30.966269C859.491761 305.439504 861.01137 312.273143 860.751451 313.741587zM317.482283 140.317793c56.688093-41.921785 137.361461-68.990281 227.103368-68.941162 89.740884-0.049119 170.43881 27.019377 227.152487 68.941162 31.201629 23.119557 54.876842 50.101071 69.953212 79.426981-27.094078-12.472056-59.305711-22.428825-95.861278-30.595832-58.169841-12.768815-127.109979-20.035312-201.24442-20.035312-98.883101 0.049119-188.302667 12.854772-255.652588 34.643008-15.013949 4.935406-28.757974 10.339486-41.526789 16.211217C262.483668 190.554964 286.195719 163.499771 317.482283 140.317793zM864.317673 824.046992c-1.270946 15.988136-32.261775 46.978964-91.479481 67.951625-58.169841 21.491477-139.139967 35.409464-228.276077 35.33374-89.11155 0.073678-170.06735-13.842263-228.239238-35.33374-59.204403-20.972661-90.172719-51.963489-91.455945-67.951625-0.197498-0.839111-0.393973-1.65264-0.617054-2.467191L224.249879 423.050132c1.913583 4.133134 3.973498 8.228405 5.799076 12.373819 8.857738 19.690458 12.275581 44.586474 20.23281 70.669526 7.747451 22.046109 18.20871 58.502415 50.459229 75.624375 8.007371 3.851725 16.482393 5.490038 24.378224 5.454222 21.24486-0.224104 38.369889-10.117428 51.544957-19.343557 11.732206-8.6848 19.948331-19.666922 28.449959-27.933189 8.315386-8.463766 15.247262-11.891841 17.791202-11.597129l0 0.01535c2.836605 0.429789 3.231601 0.135076 6.611581 6.697539 2.62785 5.921873 4.169973 15.484669 4.860704 23.367197-0.062422 2.639107-0.196475 9.006118-0.196475 18.10945 0 30.003338 1.133823 89.64367 9.82067 144.001695 4.415566 27.240411 10.56052 53.137221 20.332071 74.319659 9.228175 19.887956 23.194258 38.737256 46.609551 43.056632 3.059686 0.986467 8.710382 2.366907 16.261359 2.393513 0.431835 0 0.887206 0.024559 1.333368 0.024559 15.765055 0 39.454594-8.958022 55.097876-35.311227 16.347317-26.894534 27.018354-69.53161 27.142174-141.877311-0.037862-24.687262-1.284249-52.842509-4.195555-85.005023l-0.073678-0.910743c0 0 0 0-0.099261-0.864694-0.050142-0.865717-0.12382-2.246157-0.12382-3.986801-0.036839-5.78475 0.961908-15.261589 4.589528-22.73684 3.849678-7.479345 8.476045-13.153578 20.62576-16.70445l1.716084-0.544399 0.013303 0.024559c0.913812-0.294712 4.367471-1.209548 8.216125-1.209548 5.747911 0.222057 10.979052 1.172709 16.606213 7.525394 5.712095 6.489808 12.844539 21.800515 13.276375 53.791114 0.36839 17.000186 2.64013 38.750559 18.59245 56.565297 12.237719 13.485129 29.05371 20.073174 44.671409 19.899212 26.798343-0.445138 49.818639-15.532765 64.512293-35.284621 22.441105-31.18935 27.944446-70.235644 30.584576-102.322433l0.073678-1.210571c0-0.037862 0.049119-6.353708 1.036609-17.246803 1.826602-27.180036 11.523451-79.599919 34.174334-111.010303l0 419.538145C864.712669 822.268486 864.501868 823.157739 864.317673 824.046992z" p-id="54114" fill="#ffffff"></path></svg>