<?xml version="1.0" standalone="no"?><!DOCTYPE svg PUBLIC "-//W3C//DTD SVG 1.1//EN" "http://www.w3.org/Graphics/SVG/1.1/DTD/svg11.dtd"><svg t="1506764087173" class="icon" style="" viewBox="0 0 1024 1024" version="1.1" xmlns="http://www.w3.org/2000/svg" p-id="5997" xmlns:xlink="http://www.w3.org/1999/xlink" width="64" height="64"><defs><style type="text/css"></style></defs><path d="M935.253258 456.463126V3.260254H85.489558v453.202872H57.165466v141.629671h-0.002047c0 93.863784 76.089979 169.94967 169.953764 169.94967h169.95274v141.632741c0 62.573127 50.728358 113.301486 113.301485 113.301486 62.576197 0 113.301486-50.727335 113.301486-113.301486V768.042467h169.951717c93.863784 0 169.953763-76.086909 169.953763-169.94967l0.002046-141.629671h-28.327162zM142.139789 59.913555h56.650231v169.950693h56.651255V59.913555h56.650231v113.298415h56.650231V59.913555h56.653301v56.647161h56.648185V59.913555h396.556734v396.552641H142.139789V59.913555z m764.786307 538.179242c0 62.574151-50.725288 113.302509-113.302509 113.302509v-0.005117H567.021639v198.286043c0 31.284517-25.363667 56.647161-56.650231 56.647161s-56.650231-25.362644-56.650231-56.647161v-198.286043H227.117183v0.005117c-62.575174 0-113.301486-50.727335-113.301486-113.302509v-84.977393h793.110399v84.977393z" p-id="5998" fill="#dd6572"></path></svg>