<?xml version="1.0" standalone="no"?><!DOCTYPE svg PUBLIC "-//W3C//DTD SVG 1.1//EN" "http://www.w3.org/Graphics/SVG/1.1/DTD/svg11.dtd"><svg t="1512558899757" class="icon" style="" viewBox="0 0 1024 1024" version="1.1" xmlns="http://www.w3.org/2000/svg" p-id="7724" xmlns:xlink="http://www.w3.org/1999/xlink" width="64" height="64"><defs><style type="text/css"></style></defs><path d="M511.989255 63.829747c-247.51321 0-448.16002 200.647833-448.16002 448.16002 0 247.51321 200.646809 448.158996 448.16002 448.158996 247.493767 0 448.158996-200.645786 448.158996-448.158996C960.148251 264.47758 759.484046 63.829747 511.989255 63.829747zM785.815761 383.218962 478.562958 684.107823c-1.531889 2.571568-3.429099 5.187139-5.92699 7.713682L458.229864 706.217377c-7.968485 7.960299-17.323551 11.497868-20.915355 7.896854L290.972513 560.989761c-3.591805-3.593851-0.054235-12.957103 7.896854-20.916379l14.406105-14.396895c7.951089-7.969509 17.305131-11.497868 20.915355-7.90504l109.687168 114.784256 298.718429-292.545846c7.951089-7.959276 20.862143-7.959276 28.812209 0l14.406105 14.406105C793.765827 362.367051 793.765827 375.267872 785.815761 383.218962z" p-id="7725" fill="#cdcdcd"></path></svg>