<?xml version="1.0" standalone="no"?><!DOCTYPE svg PUBLIC "-//W3C//DTD SVG 1.1//EN" "http://www.w3.org/Graphics/SVG/1.1/DTD/svg11.dtd"><svg t="1511697832263" class="icon" style="" viewBox="0 0 1024 1024" version="1.1" xmlns="http://www.w3.org/2000/svg" p-id="11006" xmlns:xlink="http://www.w3.org/1999/xlink" width="64" height="64"><defs><style type="text/css"></style></defs><path d="M512 0C229.248 0 0 229.248 0 512c0 282.816 229.248 512 512 512s512-229.184 512-512C1024 229.248 794.752 0 512 0zM512 960c-247.424 0-448-200.576-448-448s200.576-448 448-448c247.36 0 448 200.576 448 448S759.36 960 512 960z" p-id="11007" fill="#B42E28"></path><path d="M512 512m-320 0a5 5 0 1 0 640 0 5 5 0 1 0-640 0Z" p-id="11008" fill="#B42E28"></path></svg>