<?xml version="1.0" standalone="no"?><!DOCTYPE svg PUBLIC "-//W3C//DTD SVG 1.1//EN" "http://www.w3.org/Graphics/SVG/1.1/DTD/svg11.dtd"><svg t="1511516719431" class="icon" style="" viewBox="0 0 1024 1024" version="1.1" xmlns="http://www.w3.org/2000/svg" p-id="3957" xmlns:xlink="http://www.w3.org/1999/xlink" width="200" height="200"><defs><style type="text/css"></style></defs><path d="M154.582339 512a11.242 11.293 0 1 0 719.443035 0 11.242 11.293 0 1 0-719.443035 0ZM514.303856 0C232.817449 0 4.607712 229.233673 4.607712 512s228.209737 512 509.696144 512 509.696144-229.233673 509.696144-512S795.790263 0 514.303856 0zM514.303856 986.978314c-261.135679 0-472.834448-212.658709-472.834448-474.978314 0-262.319605 211.698769-474.978314 472.834448-474.978314S987.138304 249.680395 987.138304 512C987.138304 774.319605 775.439535 986.978314 514.303856 986.978314z" p-id="3958" fill="#888888"></path></svg>