<?xml version="1.0" standalone="no"?><!DOCTYPE svg PUBLIC "-//W3C//DTD SVG 1.1//EN" "http://www.w3.org/Graphics/SVG/1.1/DTD/svg11.dtd"><svg t="1512700676547" class="icon" style="" viewBox="0 0 1024 1024" version="1.1" xmlns="http://www.w3.org/2000/svg" p-id="4733" xmlns:xlink="http://www.w3.org/1999/xlink" width="64" height="64"><defs><style type="text/css"></style></defs><path d="M164.864 115.712q135.168-3.072 308.224-12.8t387.072-31.232l28.672 76.8q-184.32 14.336-346.112 23.552t-306.176 12.288l-35.84 279.552 283.648 0 0-220.16 79.872 0 0 220.16 379.904 0 0 72.704-379.904 0 0 303.104q3.072 69.632-27.136 100.352t-96.768 27.648l-128 0q-3.072-20.48-8.704-41.472t-10.752-42.496q51.2 3.072 81.92 5.632t46.08 2.56q32.768 3.072 49.664-13.824t13.824-49.664l0-291.84-375.808 0zM736.256 595.968q69.632 66.56 132.608 135.68t123.392 144.896l-59.392 55.296q-52.224-63.488-114.688-135.68t-138.24-156.16zM280.576 595.968l63.488 44.032q-126.976 181.248-251.904 287.744l-55.296-48.128q63.488-60.416 124.928-131.072t118.784-152.576z" p-id="4734" fill="#ffffff"></path></svg>