<?xml version="1.0" standalone="no"?><!DOCTYPE svg PUBLIC "-//W3C//DTD SVG 1.1//EN" "http://www.w3.org/Graphics/SVG/1.1/DTD/svg11.dtd"><svg t="1513839329967" class="icon" style="" viewBox="0 0 1024 1024" version="1.1" xmlns="http://www.w3.org/2000/svg" p-id="10143" xmlns:xlink="http://www.w3.org/1999/xlink" width="200" height="200"><defs><style type="text/css"></style></defs><path d="M73.143 182.857c0-21.943 14.628-36.571 36.571-36.571h804.572c21.943 0 36.571 14.628 36.571 36.571v658.286c0 21.943-14.628 36.571-36.571 36.571H109.714c-21.943 0-36.571-14.628-36.571-36.571V182.857zM672.914 475.43c51.2 0 87.772-43.886 87.772-87.772s-36.572-95.086-87.772-95.086c-43.885 0-87.771 43.886-87.771 87.772s43.886 95.086 87.771 95.086z" fill="#B4B4B4" p-id="10144"></path><path d="M950.857 753.371l-299.886-204.8-292.571 256-197.486-131.657-87.771 73.143v95.086c0 21.943 14.628 36.571 36.571 36.571h804.572c21.943 0 36.571-14.628 36.571-36.571V753.37z" fill="#D2D2D2" p-id="10145"></path></svg>