<?xml version="1.0" standalone="no"?><!DOCTYPE svg PUBLIC "-//W3C//DTD SVG 1.1//EN" "http://www.w3.org/Graphics/SVG/1.1/DTD/svg11.dtd"><svg t="1511231001765" class="icon" style="" viewBox="0 0 1072 1024" version="1.1" xmlns="http://www.w3.org/2000/svg" p-id="2471" xmlns:xlink="http://www.w3.org/1999/xlink" width="33.5" height="32"><defs><style type="text/css"></style></defs><path d="M1063.152941 938.164706h-57.223529a9.035294 9.035294 0 0 1 0-18.070588h57.223529a9.035294 9.035294 0 0 1 0 18.070588z m-105.411765 0H554.164706a9.035294 9.035294 0 0 1 0-18.070588h403.57647a9.035294 9.035294 0 0 1 0 18.070588z m-150.997835-451.812894l0.4096 0.048188-228.894117 150.588235v-105.411764h-39.152942a263.427012 263.427012 0 0 1-48.079811-4.478495 157.470118 157.470118 0 0 1-23.642353 19.79633l0.252988 0.030118-136.896753 90.063811v-63.060329h-23.446588a156.705129 156.705129 0 0 1-30.057412-310.512941c-0.045176 2.041976-0.1536 4.068894-0.1536 6.122917v0.0512c0 2.054024 0.084329 4.086965 0.132518 6.12593a144.655059 144.655059 0 0 0 30.078494 286.150776h35.493647v52.763106l108.998776-71.710118 8.827483-6.002447a145.498353 145.498353 0 0 0 16.206305-12.866258 262.062682 262.062682 0 0 1-199.607717-248.335059h0.024094c-0.048188-2.041976-0.1536-4.068894-0.156612-6.122918V269.552941a262.023529 262.023529 0 0 1 262.02353-262.023529h120.470588a262.023529 262.023529 0 0 1 147.169882 478.8224zM659.576471 19.576471h-120.470589a249.976471 249.976471 0 0 0 0 499.952941h51.2v95.111529l195.46353-128.602353 14.20047-9.655717A249.976471 249.976471 0 0 0 659.576471 19.576471z m159.394635 192.256a5.903059 5.903059 0 0 1-1.286024 0.141553 5.966306 5.966306 0 0 1-5.809694-4.701365c-11.248941-51.350588-69.984376-76.116329-70.577694-76.357271a6.023529 6.023529 0 0 1-3.255718-7.812517 5.942212 5.942212 0 0 1 7.758306-3.2768c2.653365 1.087247 65.096282 27.310682 77.70353 84.868517a5.987388 5.987388 0 0 1-4.532706 7.137883zM310.211765 769.505882a9.035294 9.035294 0 0 1-9.035294 9.035294H123.482353a9.035294 9.035294 0 0 1 0-18.070588h177.694118a9.035294 9.035294 0 0 1 9.035294 9.035294z m39.152941 9.035294a9.035294 9.035294 0 0 1 0-18.070588h57.223529a9.035294 9.035294 0 0 1 0 18.070588h-57.223529z m105.411765 69.270589a9.035294 9.035294 0 0 1-9.035295 9.035294h-57.223529a9.035294 9.035294 0 0 1 0-18.070588h57.223529a9.035294 9.035294 0 0 1 9.035295 9.035294z m292.141176-78.305883a9.035294 9.035294 0 0 1 9.035294-9.035294h87.341177a9.035294 9.035294 0 0 1 0 18.070588h-87.341177a9.035294 9.035294 0 0 1-9.035294-9.035294z m15.058824 87.341177h-268.047059a9.035294 9.035294 0 0 1 0-18.070588h268.047059a9.035294 9.035294 0 0 1 0 18.070588z m-33.129412 141.552941a9.035294 9.035294 0 0 1 0 18.070588H114.447059a9.035294 9.035294 0 0 1 0-18.070588h614.4z m-662.588235 18.070588H9.035294a9.035294 9.035294 0 0 1 0-18.070588h57.22353a9.035294 9.035294 0 0 1 0 18.070588z" p-id="2472" fill="#707070"></path></svg>